%FSLAX45Y45*%
G04 Gerber Fmt 4.5, Leading zero omitted, Abs format (unit mm)*
G04 Created by KiCad (PCBNEW 4.0.7) date 06/20/18 18:14:53*
%MOMM*%
%LPD*%
G01*
G04 APERTURE LIST*
%ADD10C,0.127000*%
%ADD11C,0.150000*%
%ADD12C,0.200000*%
%ADD13C,0.300000*%
G04 APERTURE END LIST*
D10*
D11*
X18357503Y-3847412D02*
X18364189Y-3847939D01*
X18364189Y-3847939D02*
X18383040Y-3850124D01*
X18383040Y-3850124D02*
X18412247Y-3854872D01*
X18412247Y-3854872D02*
X18449999Y-3863088D01*
X18449999Y-3863088D02*
X18494488Y-3875676D01*
X18494488Y-3875676D02*
X18543903Y-3893541D01*
X18543903Y-3893541D02*
X18596436Y-3917588D01*
X18596436Y-3917588D02*
X18650276Y-3948722D01*
X18650276Y-3948722D02*
X18703614Y-3987847D01*
X18703614Y-3987847D02*
X18754640Y-4035869D01*
X18754640Y-4035869D02*
X18801545Y-4093691D01*
X18801545Y-4093691D02*
X18842519Y-4162220D01*
X18842519Y-4162220D02*
X18875753Y-4242360D01*
X18875753Y-4242360D02*
X18899436Y-4335015D01*
X18899436Y-4335015D02*
X18911760Y-4441090D01*
X18911760Y-4441090D02*
X18910910Y-4561491D01*
X18910910Y-4561491D02*
X18904488Y-4644146D01*
X18904488Y-4644146D02*
X18889802Y-4730030D01*
X18889802Y-4730030D02*
X18867797Y-4818917D01*
X18867797Y-4818917D02*
X18839417Y-4910581D01*
X18839417Y-4910581D02*
X18805608Y-5004792D01*
X18805608Y-5004792D02*
X18767314Y-5101326D01*
X18767314Y-5101326D02*
X18725481Y-5199954D01*
X18725481Y-5199954D02*
X18681053Y-5300450D01*
X18681053Y-5300450D02*
X18634976Y-5402587D01*
X18634976Y-5402587D02*
X18588193Y-5506137D01*
X18588193Y-5506137D02*
X18541651Y-5610875D01*
X18541651Y-5610875D02*
X18496294Y-5716572D01*
X18496294Y-5716572D02*
X18453066Y-5823001D01*
X18453066Y-5823001D02*
X18412914Y-5929937D01*
X18412914Y-5929937D02*
X18376781Y-6037151D01*
X18376781Y-6037151D02*
X18345613Y-6144417D01*
X18345613Y-6144417D02*
X18320355Y-6251508D01*
X18320355Y-6251508D02*
X18301951Y-6358197D01*
X18301951Y-6358197D02*
X18291347Y-6464257D01*
X18291347Y-6464257D02*
X18289487Y-6569460D01*
X18289487Y-6569460D02*
X18297316Y-6673580D01*
X18297316Y-6673580D02*
X18315780Y-6776390D01*
X18315780Y-6776390D02*
X18345822Y-6877662D01*
X18345822Y-6877662D02*
X18388389Y-6977171D01*
X18388389Y-6977171D02*
X18444425Y-7074688D01*
X18444425Y-7074688D02*
X18514875Y-7169987D01*
X18514875Y-7169987D02*
X18600684Y-7262841D01*
X18600684Y-7262841D02*
X18702797Y-7353023D01*
X18702797Y-7353023D02*
X18822158Y-7440305D01*
X18822158Y-7440305D02*
X18959713Y-7524462D01*
X18959713Y-7524462D02*
X19116406Y-7605265D01*
X19116406Y-7605265D02*
X19293183Y-7682488D01*
X19293183Y-7682488D02*
X19394761Y-7733761D01*
X19394761Y-7733761D02*
X19420400Y-7746353D01*
X19420400Y-7746353D02*
X19460773Y-7767151D01*
X19460773Y-7767151D02*
X19513620Y-7797030D01*
X19513620Y-7797030D02*
X19576679Y-7836864D01*
X19576679Y-7836864D02*
X19647689Y-7887531D01*
X19647689Y-7887531D02*
X19724387Y-7949905D01*
X19724387Y-7949905D02*
X19804514Y-8024863D01*
X19804514Y-8024863D02*
X19885807Y-8113278D01*
X19885807Y-8113278D02*
X19966005Y-8216028D01*
X19966005Y-8216028D02*
X20042848Y-8333988D01*
X20042848Y-8333988D02*
X20114072Y-8468033D01*
X20114072Y-8468033D02*
X20177418Y-8619038D01*
X20177418Y-8619038D02*
X20230623Y-8787880D01*
X20230623Y-8787880D02*
X20271427Y-8975434D01*
X20271427Y-8975434D02*
X20297567Y-9182576D01*
X20297567Y-9182576D02*
X20306787Y-9410180D01*
X20306787Y-9410180D02*
X20306787Y-10146788D01*
X20306787Y-10146788D02*
X20002781Y-10146788D01*
X20002781Y-10146788D02*
X18204071Y-9003775D01*
X18204071Y-9003775D02*
X15240000Y-8673572D01*
X15240000Y-8673572D02*
X12275929Y-9003775D01*
X12275929Y-9003775D02*
X10477219Y-10146788D01*
X10477219Y-10146788D02*
X10173212Y-10146788D01*
X10173212Y-10146788D02*
X10173212Y-9410180D01*
X10173212Y-9410180D02*
X10182428Y-9182575D01*
X10182428Y-9182575D02*
X10208569Y-8975434D01*
X10208569Y-8975434D02*
X10249372Y-8787880D01*
X10249372Y-8787880D02*
X10302577Y-8619038D01*
X10302577Y-8619038D02*
X10365923Y-8468033D01*
X10365923Y-8468033D02*
X10437147Y-8333988D01*
X10437147Y-8333988D02*
X10513990Y-8216028D01*
X10513990Y-8216028D02*
X10594188Y-8113278D01*
X10594188Y-8113278D02*
X10675481Y-8024862D01*
X10675481Y-8024862D02*
X10755608Y-7949905D01*
X10755608Y-7949905D02*
X10832306Y-7887531D01*
X10832306Y-7887531D02*
X10903316Y-7836864D01*
X10903316Y-7836864D02*
X10966375Y-7797029D01*
X10966375Y-7797029D02*
X11019222Y-7767151D01*
X11019222Y-7767151D02*
X11059595Y-7746353D01*
X11059595Y-7746353D02*
X11085234Y-7733761D01*
X11085234Y-7733761D02*
X11212139Y-7669955D01*
X11212139Y-7669955D02*
X11388915Y-7592747D01*
X11388915Y-7592747D02*
X11545608Y-7511958D01*
X11545608Y-7511958D02*
X11683162Y-7427815D01*
X11683162Y-7427815D02*
X11802523Y-7340545D01*
X11802523Y-7340545D02*
X11904635Y-7250375D01*
X11904635Y-7250375D02*
X11990443Y-7157532D01*
X11990443Y-7157532D02*
X12060893Y-7062243D01*
X12060893Y-7062243D02*
X12116929Y-6964734D01*
X12116929Y-6964734D02*
X12159495Y-6865235D01*
X12159495Y-6865235D02*
X12189538Y-6763970D01*
X12189538Y-6763970D02*
X12208001Y-6661167D01*
X12208001Y-6661167D02*
X12215830Y-6557053D01*
X12215830Y-6557053D02*
X12213970Y-6451856D01*
X12213970Y-6451856D02*
X12203366Y-6345802D01*
X12203366Y-6345802D02*
X12184962Y-6239118D01*
X12184962Y-6239118D02*
X12159703Y-6132031D01*
X12159703Y-6132031D02*
X12128535Y-6024769D01*
X12128535Y-6024769D02*
X12092402Y-5917557D01*
X12092402Y-5917557D02*
X12052250Y-5810625D01*
X12052250Y-5810625D02*
X12009022Y-5704197D01*
X12009022Y-5704197D02*
X11963665Y-5598502D01*
X11963665Y-5598502D02*
X11917123Y-5493767D01*
X11917123Y-5493767D02*
X11870340Y-5390218D01*
X11870340Y-5390218D02*
X11824262Y-5288082D01*
X11824262Y-5288082D02*
X11779835Y-5187587D01*
X11779835Y-5187587D02*
X11738001Y-5088959D01*
X11738001Y-5088959D02*
X11699708Y-4992426D01*
X11699708Y-4992426D02*
X11665899Y-4898215D01*
X11665899Y-4898215D02*
X11637519Y-4806552D01*
X11637519Y-4806552D02*
X11615514Y-4717665D01*
X11615514Y-4717665D02*
X11600828Y-4631780D01*
X11600828Y-4631780D02*
X11594406Y-4549125D01*
X11594406Y-4549125D02*
X11593556Y-4428725D01*
X11593556Y-4428725D02*
X11605879Y-4322649D01*
X11605879Y-4322649D02*
X11629563Y-4229994D01*
X11629563Y-4229994D02*
X11662797Y-4149855D01*
X11662797Y-4149855D02*
X11703771Y-4081326D01*
X11703771Y-4081326D02*
X11750676Y-4023503D01*
X11750676Y-4023503D02*
X11801702Y-3975481D01*
X11801702Y-3975481D02*
X11855040Y-3936356D01*
X11855040Y-3936356D02*
X11908880Y-3905222D01*
X11908880Y-3905222D02*
X11961413Y-3881175D01*
X11961413Y-3881175D02*
X12010828Y-3863310D01*
X12010828Y-3863310D02*
X12055317Y-3850722D01*
X12055317Y-3850722D02*
X12093069Y-3842507D01*
X12093069Y-3842507D02*
X12122276Y-3837759D01*
X12122276Y-3837759D02*
X12141126Y-3835574D01*
X12141126Y-3835574D02*
X12147812Y-3835046D01*
X12147812Y-3835046D02*
X15252655Y-3841229D01*
X15252655Y-3841229D02*
X18357503Y-3847412D01*
D12*
X13785850Y-5099050D02*
X13849350Y-5162550D01*
X13849350Y-5099050D02*
X13785850Y-5162550D01*
X13785850Y-5505450D02*
X13849350Y-5568950D01*
X13849350Y-5505450D02*
X13785850Y-5568950D01*
X14281150Y-5099050D02*
X14344650Y-5162550D01*
X14344650Y-5099050D02*
X14281150Y-5162550D01*
X14446250Y-5581650D02*
X14509750Y-5645150D01*
X14509750Y-5581650D02*
X14446250Y-5645150D01*
X15055850Y-6000750D02*
X15119350Y-6064250D01*
X15119350Y-6000750D02*
X15055850Y-6064250D01*
X15208250Y-6546850D02*
X15271750Y-6610350D01*
X15271750Y-6546850D02*
X15208250Y-6610350D01*
X15220950Y-5924550D02*
X15284450Y-5988050D01*
X15284450Y-5924550D02*
X15220950Y-5988050D01*
X15944850Y-5022850D02*
X16008350Y-5086350D01*
X16008350Y-5022850D02*
X15944850Y-5086350D01*
X15970250Y-6915150D02*
X16033750Y-6978650D01*
X16033750Y-6915150D02*
X15970250Y-6978650D01*
X16109950Y-5505450D02*
X16173450Y-5568950D01*
X16173450Y-5505450D02*
X16109950Y-5568950D01*
X16478250Y-6711950D02*
X16541750Y-6775450D01*
X16541750Y-6711950D02*
X16478250Y-6775450D01*
X16478250Y-6915150D02*
X16541750Y-6978650D01*
X16541750Y-6915150D02*
X16478250Y-6978650D01*
X16605250Y-5099050D02*
X16668750Y-5162550D01*
X16668750Y-5099050D02*
X16605250Y-5162550D01*
X16605250Y-5505450D02*
X16668750Y-5568950D01*
X16668750Y-5505450D02*
X16605250Y-5568950D01*
X16605250Y-5759450D02*
X16668750Y-5822950D01*
X16668750Y-5759450D02*
X16605250Y-5822950D01*
X16833850Y-4756150D02*
X16897350Y-4819650D01*
X16897350Y-4756150D02*
X16833850Y-4819650D01*
X17138650Y-4756150D02*
X17202150Y-4819650D01*
X17202150Y-4756150D02*
X17138650Y-4819650D01*
X17264450Y-5989250D02*
X17327950Y-6052750D01*
X17327950Y-5989250D02*
X17264450Y-6052750D01*
X15163000Y-4025900D02*
G75*
G03X15163000Y-4025900I-50000J0D01*
G01*
X15163000Y-4279900D02*
G75*
G03X15163000Y-4279900I-50000J0D01*
G01*
X15417000Y-4025900D02*
G75*
G03X15417000Y-4025900I-50000J0D01*
G01*
X15417000Y-4279900D02*
G75*
G03X15417000Y-4279900I-50000J0D01*
G01*
X12598400Y-6210300D02*
X12598400Y-6311900D01*
X12547600Y-6261100D02*
X12649200Y-6261100D01*
X12598400Y-7702550D02*
X12598400Y-7804150D01*
X12547600Y-7753350D02*
X12649200Y-7753350D01*
X17731891Y-4101991D02*
X17731891Y-4024209D01*
X17654109Y-4024209D01*
X17654109Y-4101991D01*
X17731891Y-4101991D01*
X16343000Y-4133100D02*
X16413000Y-4063100D01*
X16343000Y-3993100D01*
X16273000Y-4063100D01*
X16343000Y-4133100D01*
X17593310Y-6607810D02*
X17788890Y-6803390D01*
X17788890Y-6607810D02*
X17593310Y-6803390D01*
X17788890Y-6705600D02*
G75*
G03X17788890Y-6705600I-97790J0D01*
G01*
X11178400Y-8562200D02*
X11478400Y-8862200D01*
X11478400Y-8562200D02*
X11178400Y-8862200D01*
X11328400Y-8562200D02*
X11328400Y-8862200D01*
X11178400Y-8712200D02*
X11478400Y-8712200D01*
X13743800Y-7876400D02*
X14043800Y-8176400D01*
X14043800Y-7876400D02*
X13743800Y-8176400D01*
X13893800Y-7876400D02*
X13893800Y-8176400D01*
X13743800Y-8026400D02*
X14043800Y-8026400D01*
X16436200Y-7876400D02*
X16736200Y-8176400D01*
X16736200Y-7876400D02*
X16436200Y-8176400D01*
X16586200Y-7876400D02*
X16586200Y-8176400D01*
X16436200Y-8026400D02*
X16736200Y-8026400D01*
X19001600Y-8562200D02*
X19301600Y-8862200D01*
X19301600Y-8562200D02*
X19001600Y-8862200D01*
X19151600Y-8562200D02*
X19151600Y-8862200D01*
X19001600Y-8712200D02*
X19301600Y-8712200D01*
X11811000Y-4152900D02*
X12268200Y-4610100D01*
X12268200Y-4152900D02*
X11811000Y-4610100D01*
X12201246Y-4543146D02*
X12201246Y-4219854D01*
X11877954Y-4219854D01*
X11877954Y-4543146D01*
X12201246Y-4543146D01*
X18211800Y-4152900D02*
X18669000Y-4610100D01*
X18669000Y-4152900D02*
X18211800Y-4610100D01*
X18602046Y-4543146D02*
X18602046Y-4219854D01*
X18278754Y-4219854D01*
X18278754Y-4543146D01*
X18602046Y-4543146D01*
D13*
X10437141Y-10620003D02*
X10437141Y-10320003D01*
X10508569Y-10320003D01*
X10551426Y-10334288D01*
X10579998Y-10362860D01*
X10594283Y-10391431D01*
X10608569Y-10448574D01*
X10608569Y-10491431D01*
X10594283Y-10548574D01*
X10579998Y-10577146D01*
X10551426Y-10605717D01*
X10508569Y-10620003D01*
X10437141Y-10620003D01*
X10737141Y-10620003D02*
X10737141Y-10420003D01*
X10737141Y-10477146D02*
X10751426Y-10448574D01*
X10765712Y-10434288D01*
X10794283Y-10420003D01*
X10822855Y-10420003D01*
X10922855Y-10620003D02*
X10922855Y-10420003D01*
X10922855Y-10320003D02*
X10908569Y-10334288D01*
X10922855Y-10348574D01*
X10937141Y-10334288D01*
X10922855Y-10320003D01*
X10922855Y-10348574D01*
X11108569Y-10620003D02*
X11079998Y-10605717D01*
X11065712Y-10577146D01*
X11065712Y-10320003D01*
X11265712Y-10620003D02*
X11237140Y-10605717D01*
X11222855Y-10577146D01*
X11222855Y-10320003D01*
X11608569Y-10620003D02*
X11608569Y-10320003D01*
X11708569Y-10534288D01*
X11808569Y-10320003D01*
X11808569Y-10620003D01*
X12079998Y-10620003D02*
X12079998Y-10462860D01*
X12065712Y-10434288D01*
X12037140Y-10420003D01*
X11979998Y-10420003D01*
X11951426Y-10434288D01*
X12079998Y-10605717D02*
X12051426Y-10620003D01*
X11979998Y-10620003D01*
X11951426Y-10605717D01*
X11937140Y-10577146D01*
X11937140Y-10548574D01*
X11951426Y-10520003D01*
X11979998Y-10505717D01*
X12051426Y-10505717D01*
X12079998Y-10491431D01*
X12222855Y-10420003D02*
X12222855Y-10720003D01*
X12222855Y-10434288D02*
X12251426Y-10420003D01*
X12308569Y-10420003D01*
X12337140Y-10434288D01*
X12351426Y-10448574D01*
X12365712Y-10477146D01*
X12365712Y-10562860D01*
X12351426Y-10591431D01*
X12337140Y-10605717D01*
X12308569Y-10620003D01*
X12251426Y-10620003D01*
X12222855Y-10605717D01*
X12494283Y-10591431D02*
X12508569Y-10605717D01*
X12494283Y-10620003D01*
X12479998Y-10605717D01*
X12494283Y-10591431D01*
X12494283Y-10620003D01*
X12494283Y-10434288D02*
X12508569Y-10448574D01*
X12494283Y-10462860D01*
X12479998Y-10448574D01*
X12494283Y-10434288D01*
X12494283Y-10462860D01*
X10102212Y-11082538D02*
X10165712Y-11146038D01*
X10165712Y-11082538D02*
X10102212Y-11146038D01*
X10494283Y-10950003D02*
X10522855Y-10950003D01*
X10551426Y-10964288D01*
X10565712Y-10978574D01*
X10579998Y-11007146D01*
X10594283Y-11064288D01*
X10594283Y-11135717D01*
X10579998Y-11192860D01*
X10565712Y-11221431D01*
X10551426Y-11235717D01*
X10522855Y-11250003D01*
X10494283Y-11250003D01*
X10465712Y-11235717D01*
X10451426Y-11221431D01*
X10437141Y-11192860D01*
X10422855Y-11135717D01*
X10422855Y-11064288D01*
X10437141Y-11007146D01*
X10451426Y-10978574D01*
X10465712Y-10964288D01*
X10494283Y-10950003D01*
X10722855Y-11221431D02*
X10737141Y-11235717D01*
X10722855Y-11250003D01*
X10708569Y-11235717D01*
X10722855Y-11221431D01*
X10722855Y-11250003D01*
X10994283Y-10950003D02*
X10937140Y-10950003D01*
X10908569Y-10964288D01*
X10894283Y-10978574D01*
X10865712Y-11021431D01*
X10851426Y-11078574D01*
X10851426Y-11192860D01*
X10865712Y-11221431D01*
X10879998Y-11235717D01*
X10908569Y-11250003D01*
X10965712Y-11250003D01*
X10994283Y-11235717D01*
X11008569Y-11221431D01*
X11022855Y-11192860D01*
X11022855Y-11121431D01*
X11008569Y-11092860D01*
X10994283Y-11078574D01*
X10965712Y-11064288D01*
X10908569Y-11064288D01*
X10879998Y-11078574D01*
X10865712Y-11092860D01*
X10851426Y-11121431D01*
X11279998Y-11050003D02*
X11279998Y-11250003D01*
X11208569Y-10935717D02*
X11137141Y-11150003D01*
X11322855Y-11150003D01*
X11437140Y-11250003D02*
X11437140Y-11050003D01*
X11437140Y-11078574D02*
X11451426Y-11064288D01*
X11479998Y-11050003D01*
X11522855Y-11050003D01*
X11551426Y-11064288D01*
X11565712Y-11092860D01*
X11565712Y-11250003D01*
X11565712Y-11092860D02*
X11579998Y-11064288D01*
X11608569Y-11050003D01*
X11651426Y-11050003D01*
X11679998Y-11064288D01*
X11694283Y-11092860D01*
X11694283Y-11250003D01*
X11837140Y-11250003D02*
X11837140Y-11050003D01*
X11837140Y-11078574D02*
X11851426Y-11064288D01*
X11879998Y-11050003D01*
X11922855Y-11050003D01*
X11951426Y-11064288D01*
X11965712Y-11092860D01*
X11965712Y-11250003D01*
X11965712Y-11092860D02*
X11979998Y-11064288D01*
X12008569Y-11050003D01*
X12051426Y-11050003D01*
X12079998Y-11064288D01*
X12094283Y-11092860D01*
X12094283Y-11250003D01*
X12679998Y-10935717D02*
X12422855Y-11321431D01*
X13065712Y-10950003D02*
X13094283Y-10950003D01*
X13122855Y-10964288D01*
X13137140Y-10978574D01*
X13151426Y-11007146D01*
X13165712Y-11064288D01*
X13165712Y-11135717D01*
X13151426Y-11192860D01*
X13137140Y-11221431D01*
X13122855Y-11235717D01*
X13094283Y-11250003D01*
X13065712Y-11250003D01*
X13037140Y-11235717D01*
X13022855Y-11221431D01*
X13008569Y-11192860D01*
X12994283Y-11135717D01*
X12994283Y-11064288D01*
X13008569Y-11007146D01*
X13022855Y-10978574D01*
X13037140Y-10964288D01*
X13065712Y-10950003D01*
X13294283Y-11221431D02*
X13308569Y-11235717D01*
X13294283Y-11250003D01*
X13279998Y-11235717D01*
X13294283Y-11221431D01*
X13294283Y-11250003D01*
X13494283Y-10950003D02*
X13522855Y-10950003D01*
X13551426Y-10964288D01*
X13565712Y-10978574D01*
X13579997Y-11007146D01*
X13594283Y-11064288D01*
X13594283Y-11135717D01*
X13579997Y-11192860D01*
X13565712Y-11221431D01*
X13551426Y-11235717D01*
X13522855Y-11250003D01*
X13494283Y-11250003D01*
X13465712Y-11235717D01*
X13451426Y-11221431D01*
X13437140Y-11192860D01*
X13422855Y-11135717D01*
X13422855Y-11064288D01*
X13437140Y-11007146D01*
X13451426Y-10978574D01*
X13465712Y-10964288D01*
X13494283Y-10950003D01*
X13708569Y-10978574D02*
X13722855Y-10964288D01*
X13751426Y-10950003D01*
X13822855Y-10950003D01*
X13851426Y-10964288D01*
X13865712Y-10978574D01*
X13879997Y-11007146D01*
X13879997Y-11035717D01*
X13865712Y-11078574D01*
X13694283Y-11250003D01*
X13879997Y-11250003D01*
X14151426Y-10950003D02*
X14008569Y-10950003D01*
X13994283Y-11092860D01*
X14008569Y-11078574D01*
X14037140Y-11064288D01*
X14108569Y-11064288D01*
X14137140Y-11078574D01*
X14151426Y-11092860D01*
X14165712Y-11121431D01*
X14165712Y-11192860D01*
X14151426Y-11221431D01*
X14137140Y-11235717D01*
X14108569Y-11250003D01*
X14037140Y-11250003D01*
X14008569Y-11235717D01*
X13994283Y-11221431D01*
X14279998Y-10950003D02*
X14279998Y-11007146D01*
X14394283Y-10950003D02*
X14394283Y-11007146D01*
X14837140Y-11364288D02*
X14822855Y-11350003D01*
X14794283Y-11307145D01*
X14779997Y-11278574D01*
X14765712Y-11235717D01*
X14751426Y-11164288D01*
X14751426Y-11107146D01*
X14765712Y-11035717D01*
X14779997Y-10992860D01*
X14794283Y-10964288D01*
X14822855Y-10921431D01*
X14837140Y-10907146D01*
X15108569Y-11250003D02*
X14937140Y-11250003D01*
X15022855Y-11250003D02*
X15022855Y-10950003D01*
X14994283Y-10992860D01*
X14965712Y-11021431D01*
X14937140Y-11035717D01*
X15279997Y-11078574D02*
X15251426Y-11064288D01*
X15237140Y-11050003D01*
X15222855Y-11021431D01*
X15222855Y-11007146D01*
X15237140Y-10978574D01*
X15251426Y-10964288D01*
X15279997Y-10950003D01*
X15337140Y-10950003D01*
X15365712Y-10964288D01*
X15379997Y-10978574D01*
X15394283Y-11007146D01*
X15394283Y-11021431D01*
X15379997Y-11050003D01*
X15365712Y-11064288D01*
X15337140Y-11078574D01*
X15279997Y-11078574D01*
X15251426Y-11092860D01*
X15237140Y-11107146D01*
X15222855Y-11135717D01*
X15222855Y-11192860D01*
X15237140Y-11221431D01*
X15251426Y-11235717D01*
X15279997Y-11250003D01*
X15337140Y-11250003D01*
X15365712Y-11235717D01*
X15379997Y-11221431D01*
X15394283Y-11192860D01*
X15394283Y-11135717D01*
X15379997Y-11107146D01*
X15365712Y-11092860D01*
X15337140Y-11078574D01*
X15751426Y-11250003D02*
X15751426Y-10950003D01*
X15879997Y-11250003D02*
X15879997Y-11092860D01*
X15865712Y-11064288D01*
X15837140Y-11050003D01*
X15794283Y-11050003D01*
X15765712Y-11064288D01*
X15751426Y-11078574D01*
X16065712Y-11250003D02*
X16037140Y-11235717D01*
X16022855Y-11221431D01*
X16008569Y-11192860D01*
X16008569Y-11107146D01*
X16022855Y-11078574D01*
X16037140Y-11064288D01*
X16065712Y-11050003D01*
X16108569Y-11050003D01*
X16137140Y-11064288D01*
X16151426Y-11078574D01*
X16165712Y-11107146D01*
X16165712Y-11192860D01*
X16151426Y-11221431D01*
X16137140Y-11235717D01*
X16108569Y-11250003D01*
X16065712Y-11250003D01*
X16337140Y-11250003D02*
X16308569Y-11235717D01*
X16294283Y-11207145D01*
X16294283Y-10950003D01*
X16565712Y-11235717D02*
X16537140Y-11250003D01*
X16479998Y-11250003D01*
X16451426Y-11235717D01*
X16437140Y-11207145D01*
X16437140Y-11092860D01*
X16451426Y-11064288D01*
X16479998Y-11050003D01*
X16537140Y-11050003D01*
X16565712Y-11064288D01*
X16579998Y-11092860D01*
X16579998Y-11121431D01*
X16437140Y-11150003D01*
X16694283Y-11235717D02*
X16722855Y-11250003D01*
X16779998Y-11250003D01*
X16808569Y-11235717D01*
X16822855Y-11207145D01*
X16822855Y-11192860D01*
X16808569Y-11164288D01*
X16779998Y-11150003D01*
X16737140Y-11150003D01*
X16708569Y-11135717D01*
X16694283Y-11107146D01*
X16694283Y-11092860D01*
X16708569Y-11064288D01*
X16737140Y-11050003D01*
X16779998Y-11050003D01*
X16808569Y-11064288D01*
X16922855Y-11364288D02*
X16937141Y-11350003D01*
X16965712Y-11307145D01*
X16979998Y-11278574D01*
X16994283Y-11235717D01*
X17008569Y-11164288D01*
X17008569Y-11107146D01*
X16994283Y-11035717D01*
X16979998Y-10992860D01*
X16965712Y-10964288D01*
X16937141Y-10921431D01*
X16922855Y-10907146D01*
X10165712Y-11510288D02*
G75*
G03X10165712Y-11510288I-50000J0D01*
G01*
X10594283Y-11646003D02*
X10422855Y-11646003D01*
X10508569Y-11646003D02*
X10508569Y-11346003D01*
X10479998Y-11388860D01*
X10451426Y-11417431D01*
X10422855Y-11431717D01*
X10722855Y-11617431D02*
X10737141Y-11631717D01*
X10722855Y-11646003D01*
X10708569Y-11631717D01*
X10722855Y-11617431D01*
X10722855Y-11646003D01*
X10922855Y-11346003D02*
X10951426Y-11346003D01*
X10979998Y-11360288D01*
X10994283Y-11374574D01*
X11008569Y-11403145D01*
X11022855Y-11460288D01*
X11022855Y-11531717D01*
X11008569Y-11588860D01*
X10994283Y-11617431D01*
X10979998Y-11631717D01*
X10951426Y-11646003D01*
X10922855Y-11646003D01*
X10894283Y-11631717D01*
X10879998Y-11617431D01*
X10865712Y-11588860D01*
X10851426Y-11531717D01*
X10851426Y-11460288D01*
X10865712Y-11403145D01*
X10879998Y-11374574D01*
X10894283Y-11360288D01*
X10922855Y-11346003D01*
X11208569Y-11346003D02*
X11237140Y-11346003D01*
X11265712Y-11360288D01*
X11279998Y-11374574D01*
X11294283Y-11403145D01*
X11308569Y-11460288D01*
X11308569Y-11531717D01*
X11294283Y-11588860D01*
X11279998Y-11617431D01*
X11265712Y-11631717D01*
X11237140Y-11646003D01*
X11208569Y-11646003D01*
X11179998Y-11631717D01*
X11165712Y-11617431D01*
X11151426Y-11588860D01*
X11137141Y-11531717D01*
X11137141Y-11460288D01*
X11151426Y-11403145D01*
X11165712Y-11374574D01*
X11179998Y-11360288D01*
X11208569Y-11346003D01*
X11437140Y-11646003D02*
X11437140Y-11446003D01*
X11437140Y-11474574D02*
X11451426Y-11460288D01*
X11479998Y-11446003D01*
X11522855Y-11446003D01*
X11551426Y-11460288D01*
X11565712Y-11488860D01*
X11565712Y-11646003D01*
X11565712Y-11488860D02*
X11579998Y-11460288D01*
X11608569Y-11446003D01*
X11651426Y-11446003D01*
X11679998Y-11460288D01*
X11694283Y-11488860D01*
X11694283Y-11646003D01*
X11837140Y-11646003D02*
X11837140Y-11446003D01*
X11837140Y-11474574D02*
X11851426Y-11460288D01*
X11879998Y-11446003D01*
X11922855Y-11446003D01*
X11951426Y-11460288D01*
X11965712Y-11488860D01*
X11965712Y-11646003D01*
X11965712Y-11488860D02*
X11979998Y-11460288D01*
X12008569Y-11446003D01*
X12051426Y-11446003D01*
X12079998Y-11460288D01*
X12094283Y-11488860D01*
X12094283Y-11646003D01*
X12679998Y-11331717D02*
X12422855Y-11717431D01*
X13065712Y-11346003D02*
X13094283Y-11346003D01*
X13122855Y-11360288D01*
X13137140Y-11374574D01*
X13151426Y-11403145D01*
X13165712Y-11460288D01*
X13165712Y-11531717D01*
X13151426Y-11588860D01*
X13137140Y-11617431D01*
X13122855Y-11631717D01*
X13094283Y-11646003D01*
X13065712Y-11646003D01*
X13037140Y-11631717D01*
X13022855Y-11617431D01*
X13008569Y-11588860D01*
X12994283Y-11531717D01*
X12994283Y-11460288D01*
X13008569Y-11403145D01*
X13022855Y-11374574D01*
X13037140Y-11360288D01*
X13065712Y-11346003D01*
X13294283Y-11617431D02*
X13308569Y-11631717D01*
X13294283Y-11646003D01*
X13279998Y-11631717D01*
X13294283Y-11617431D01*
X13294283Y-11646003D01*
X13494283Y-11346003D02*
X13522855Y-11346003D01*
X13551426Y-11360288D01*
X13565712Y-11374574D01*
X13579997Y-11403145D01*
X13594283Y-11460288D01*
X13594283Y-11531717D01*
X13579997Y-11588860D01*
X13565712Y-11617431D01*
X13551426Y-11631717D01*
X13522855Y-11646003D01*
X13494283Y-11646003D01*
X13465712Y-11631717D01*
X13451426Y-11617431D01*
X13437140Y-11588860D01*
X13422855Y-11531717D01*
X13422855Y-11460288D01*
X13437140Y-11403145D01*
X13451426Y-11374574D01*
X13465712Y-11360288D01*
X13494283Y-11346003D01*
X13694283Y-11346003D02*
X13879997Y-11346003D01*
X13779997Y-11460288D01*
X13822855Y-11460288D01*
X13851426Y-11474574D01*
X13865712Y-11488860D01*
X13879997Y-11517431D01*
X13879997Y-11588860D01*
X13865712Y-11617431D01*
X13851426Y-11631717D01*
X13822855Y-11646003D01*
X13737140Y-11646003D01*
X13708569Y-11631717D01*
X13694283Y-11617431D01*
X14022855Y-11646003D02*
X14079997Y-11646003D01*
X14108569Y-11631717D01*
X14122855Y-11617431D01*
X14151426Y-11574574D01*
X14165712Y-11517431D01*
X14165712Y-11403145D01*
X14151426Y-11374574D01*
X14137140Y-11360288D01*
X14108569Y-11346003D01*
X14051426Y-11346003D01*
X14022855Y-11360288D01*
X14008569Y-11374574D01*
X13994283Y-11403145D01*
X13994283Y-11474574D01*
X14008569Y-11503145D01*
X14022855Y-11517431D01*
X14051426Y-11531717D01*
X14108569Y-11531717D01*
X14137140Y-11517431D01*
X14151426Y-11503145D01*
X14165712Y-11474574D01*
X14279998Y-11346003D02*
X14279998Y-11403145D01*
X14394283Y-11346003D02*
X14394283Y-11403145D01*
X14837140Y-11760288D02*
X14822855Y-11746003D01*
X14794283Y-11703145D01*
X14779997Y-11674574D01*
X14765712Y-11631717D01*
X14751426Y-11560288D01*
X14751426Y-11503145D01*
X14765712Y-11431717D01*
X14779997Y-11388860D01*
X14794283Y-11360288D01*
X14822855Y-11317431D01*
X14837140Y-11303145D01*
X15079997Y-11446003D02*
X15079997Y-11646003D01*
X15008569Y-11331717D02*
X14937140Y-11546003D01*
X15122855Y-11546003D01*
X15465712Y-11646003D02*
X15465712Y-11346003D01*
X15594283Y-11646003D02*
X15594283Y-11488860D01*
X15579997Y-11460288D01*
X15551426Y-11446003D01*
X15508569Y-11446003D01*
X15479997Y-11460288D01*
X15465712Y-11474574D01*
X15779997Y-11646003D02*
X15751426Y-11631717D01*
X15737140Y-11617431D01*
X15722855Y-11588860D01*
X15722855Y-11503145D01*
X15737140Y-11474574D01*
X15751426Y-11460288D01*
X15779997Y-11446003D01*
X15822855Y-11446003D01*
X15851426Y-11460288D01*
X15865712Y-11474574D01*
X15879997Y-11503145D01*
X15879997Y-11588860D01*
X15865712Y-11617431D01*
X15851426Y-11631717D01*
X15822855Y-11646003D01*
X15779997Y-11646003D01*
X16051426Y-11646003D02*
X16022855Y-11631717D01*
X16008569Y-11603145D01*
X16008569Y-11346003D01*
X16279998Y-11631717D02*
X16251426Y-11646003D01*
X16194283Y-11646003D01*
X16165712Y-11631717D01*
X16151426Y-11603145D01*
X16151426Y-11488860D01*
X16165712Y-11460288D01*
X16194283Y-11446003D01*
X16251426Y-11446003D01*
X16279998Y-11460288D01*
X16294283Y-11488860D01*
X16294283Y-11517431D01*
X16151426Y-11546003D01*
X16408569Y-11631717D02*
X16437140Y-11646003D01*
X16494283Y-11646003D01*
X16522855Y-11631717D01*
X16537140Y-11603145D01*
X16537140Y-11588860D01*
X16522855Y-11560288D01*
X16494283Y-11546003D01*
X16451426Y-11546003D01*
X16422855Y-11531717D01*
X16408569Y-11503145D01*
X16408569Y-11488860D01*
X16422855Y-11460288D01*
X16451426Y-11446003D01*
X16494283Y-11446003D01*
X16522855Y-11460288D01*
X16637140Y-11760288D02*
X16651426Y-11746003D01*
X16679998Y-11703145D01*
X16694283Y-11674574D01*
X16708569Y-11631717D01*
X16722855Y-11560288D01*
X16722855Y-11503145D01*
X16708569Y-11431717D01*
X16694283Y-11388860D01*
X16679998Y-11360288D01*
X16651426Y-11317431D01*
X16637140Y-11303145D01*
X10114912Y-11855488D02*
X10114912Y-11957088D01*
X10064112Y-11906288D02*
X10165712Y-11906288D01*
X10594283Y-12042003D02*
X10422855Y-12042003D01*
X10508569Y-12042003D02*
X10508569Y-11742003D01*
X10479998Y-11784860D01*
X10451426Y-11813431D01*
X10422855Y-11827717D01*
X10722855Y-12013431D02*
X10737141Y-12027717D01*
X10722855Y-12042003D01*
X10708569Y-12027717D01*
X10722855Y-12013431D01*
X10722855Y-12042003D01*
X10922855Y-11742003D02*
X10951426Y-11742003D01*
X10979998Y-11756288D01*
X10994283Y-11770574D01*
X11008569Y-11799145D01*
X11022855Y-11856288D01*
X11022855Y-11927717D01*
X11008569Y-11984860D01*
X10994283Y-12013431D01*
X10979998Y-12027717D01*
X10951426Y-12042003D01*
X10922855Y-12042003D01*
X10894283Y-12027717D01*
X10879998Y-12013431D01*
X10865712Y-11984860D01*
X10851426Y-11927717D01*
X10851426Y-11856288D01*
X10865712Y-11799145D01*
X10879998Y-11770574D01*
X10894283Y-11756288D01*
X10922855Y-11742003D01*
X11137141Y-11770574D02*
X11151426Y-11756288D01*
X11179998Y-11742003D01*
X11251426Y-11742003D01*
X11279998Y-11756288D01*
X11294283Y-11770574D01*
X11308569Y-11799145D01*
X11308569Y-11827717D01*
X11294283Y-11870574D01*
X11122855Y-12042003D01*
X11308569Y-12042003D01*
X11437140Y-12042003D02*
X11437140Y-11842003D01*
X11437140Y-11870574D02*
X11451426Y-11856288D01*
X11479998Y-11842003D01*
X11522855Y-11842003D01*
X11551426Y-11856288D01*
X11565712Y-11884860D01*
X11565712Y-12042003D01*
X11565712Y-11884860D02*
X11579998Y-11856288D01*
X11608569Y-11842003D01*
X11651426Y-11842003D01*
X11679998Y-11856288D01*
X11694283Y-11884860D01*
X11694283Y-12042003D01*
X11837140Y-12042003D02*
X11837140Y-11842003D01*
X11837140Y-11870574D02*
X11851426Y-11856288D01*
X11879998Y-11842003D01*
X11922855Y-11842003D01*
X11951426Y-11856288D01*
X11965712Y-11884860D01*
X11965712Y-12042003D01*
X11965712Y-11884860D02*
X11979998Y-11856288D01*
X12008569Y-11842003D01*
X12051426Y-11842003D01*
X12079998Y-11856288D01*
X12094283Y-11884860D01*
X12094283Y-12042003D01*
X12679998Y-11727717D02*
X12422855Y-12113431D01*
X13065712Y-11742003D02*
X13094283Y-11742003D01*
X13122855Y-11756288D01*
X13137140Y-11770574D01*
X13151426Y-11799145D01*
X13165712Y-11856288D01*
X13165712Y-11927717D01*
X13151426Y-11984860D01*
X13137140Y-12013431D01*
X13122855Y-12027717D01*
X13094283Y-12042003D01*
X13065712Y-12042003D01*
X13037140Y-12027717D01*
X13022855Y-12013431D01*
X13008569Y-11984860D01*
X12994283Y-11927717D01*
X12994283Y-11856288D01*
X13008569Y-11799145D01*
X13022855Y-11770574D01*
X13037140Y-11756288D01*
X13065712Y-11742003D01*
X13294283Y-12013431D02*
X13308569Y-12027717D01*
X13294283Y-12042003D01*
X13279998Y-12027717D01*
X13294283Y-12013431D01*
X13294283Y-12042003D01*
X13494283Y-11742003D02*
X13522855Y-11742003D01*
X13551426Y-11756288D01*
X13565712Y-11770574D01*
X13579997Y-11799145D01*
X13594283Y-11856288D01*
X13594283Y-11927717D01*
X13579997Y-11984860D01*
X13565712Y-12013431D01*
X13551426Y-12027717D01*
X13522855Y-12042003D01*
X13494283Y-12042003D01*
X13465712Y-12027717D01*
X13451426Y-12013431D01*
X13437140Y-11984860D01*
X13422855Y-11927717D01*
X13422855Y-11856288D01*
X13437140Y-11799145D01*
X13451426Y-11770574D01*
X13465712Y-11756288D01*
X13494283Y-11742003D01*
X13851426Y-11842003D02*
X13851426Y-12042003D01*
X13779997Y-11727717D02*
X13708569Y-11942003D01*
X13894283Y-11942003D01*
X14065712Y-11742003D02*
X14094283Y-11742003D01*
X14122855Y-11756288D01*
X14137140Y-11770574D01*
X14151426Y-11799145D01*
X14165712Y-11856288D01*
X14165712Y-11927717D01*
X14151426Y-11984860D01*
X14137140Y-12013431D01*
X14122855Y-12027717D01*
X14094283Y-12042003D01*
X14065712Y-12042003D01*
X14037140Y-12027717D01*
X14022855Y-12013431D01*
X14008569Y-11984860D01*
X13994283Y-11927717D01*
X13994283Y-11856288D01*
X14008569Y-11799145D01*
X14022855Y-11770574D01*
X14037140Y-11756288D01*
X14065712Y-11742003D01*
X14279998Y-11742003D02*
X14279998Y-11799145D01*
X14394283Y-11742003D02*
X14394283Y-11799145D01*
X14837140Y-12156288D02*
X14822855Y-12142003D01*
X14794283Y-12099145D01*
X14779997Y-12070574D01*
X14765712Y-12027717D01*
X14751426Y-11956288D01*
X14751426Y-11899145D01*
X14765712Y-11827717D01*
X14779997Y-11784860D01*
X14794283Y-11756288D01*
X14822855Y-11713431D01*
X14837140Y-11699145D01*
X14937140Y-11770574D02*
X14951426Y-11756288D01*
X14979997Y-11742003D01*
X15051426Y-11742003D01*
X15079997Y-11756288D01*
X15094283Y-11770574D01*
X15108569Y-11799145D01*
X15108569Y-11827717D01*
X15094283Y-11870574D01*
X14922855Y-12042003D01*
X15108569Y-12042003D01*
X15465712Y-12042003D02*
X15465712Y-11742003D01*
X15594283Y-12042003D02*
X15594283Y-11884860D01*
X15579997Y-11856288D01*
X15551426Y-11842003D01*
X15508569Y-11842003D01*
X15479997Y-11856288D01*
X15465712Y-11870574D01*
X15779997Y-12042003D02*
X15751426Y-12027717D01*
X15737140Y-12013431D01*
X15722855Y-11984860D01*
X15722855Y-11899145D01*
X15737140Y-11870574D01*
X15751426Y-11856288D01*
X15779997Y-11842003D01*
X15822855Y-11842003D01*
X15851426Y-11856288D01*
X15865712Y-11870574D01*
X15879997Y-11899145D01*
X15879997Y-11984860D01*
X15865712Y-12013431D01*
X15851426Y-12027717D01*
X15822855Y-12042003D01*
X15779997Y-12042003D01*
X16051426Y-12042003D02*
X16022855Y-12027717D01*
X16008569Y-11999145D01*
X16008569Y-11742003D01*
X16279998Y-12027717D02*
X16251426Y-12042003D01*
X16194283Y-12042003D01*
X16165712Y-12027717D01*
X16151426Y-11999145D01*
X16151426Y-11884860D01*
X16165712Y-11856288D01*
X16194283Y-11842003D01*
X16251426Y-11842003D01*
X16279998Y-11856288D01*
X16294283Y-11884860D01*
X16294283Y-11913431D01*
X16151426Y-11942003D01*
X16408569Y-12027717D02*
X16437140Y-12042003D01*
X16494283Y-12042003D01*
X16522855Y-12027717D01*
X16537140Y-11999145D01*
X16537140Y-11984860D01*
X16522855Y-11956288D01*
X16494283Y-11942003D01*
X16451426Y-11942003D01*
X16422855Y-11927717D01*
X16408569Y-11899145D01*
X16408569Y-11884860D01*
X16422855Y-11856288D01*
X16451426Y-11842003D01*
X16494283Y-11842003D01*
X16522855Y-11856288D01*
X16637140Y-12156288D02*
X16651426Y-12142003D01*
X16679998Y-12099145D01*
X16694283Y-12070574D01*
X16708569Y-12027717D01*
X16722855Y-11956288D01*
X16722855Y-11899145D01*
X16708569Y-11827717D01*
X16694283Y-11784860D01*
X16679998Y-11756288D01*
X16651426Y-11713431D01*
X16637140Y-11699145D01*
X10149603Y-12341180D02*
X10149603Y-12263397D01*
X10071821Y-12263397D01*
X10071821Y-12341180D01*
X10149603Y-12341180D01*
X10594283Y-12438003D02*
X10422855Y-12438003D01*
X10508569Y-12438003D02*
X10508569Y-12138003D01*
X10479998Y-12180860D01*
X10451426Y-12209431D01*
X10422855Y-12223717D01*
X10722855Y-12409431D02*
X10737141Y-12423717D01*
X10722855Y-12438003D01*
X10708569Y-12423717D01*
X10722855Y-12409431D01*
X10722855Y-12438003D01*
X11022855Y-12438003D02*
X10851426Y-12438003D01*
X10937140Y-12438003D02*
X10937140Y-12138003D01*
X10908569Y-12180860D01*
X10879998Y-12209431D01*
X10851426Y-12223717D01*
X11208569Y-12138003D02*
X11237140Y-12138003D01*
X11265712Y-12152288D01*
X11279998Y-12166574D01*
X11294283Y-12195145D01*
X11308569Y-12252288D01*
X11308569Y-12323717D01*
X11294283Y-12380860D01*
X11279998Y-12409431D01*
X11265712Y-12423717D01*
X11237140Y-12438003D01*
X11208569Y-12438003D01*
X11179998Y-12423717D01*
X11165712Y-12409431D01*
X11151426Y-12380860D01*
X11137141Y-12323717D01*
X11137141Y-12252288D01*
X11151426Y-12195145D01*
X11165712Y-12166574D01*
X11179998Y-12152288D01*
X11208569Y-12138003D01*
X11437140Y-12438003D02*
X11437140Y-12238003D01*
X11437140Y-12266574D02*
X11451426Y-12252288D01*
X11479998Y-12238003D01*
X11522855Y-12238003D01*
X11551426Y-12252288D01*
X11565712Y-12280860D01*
X11565712Y-12438003D01*
X11565712Y-12280860D02*
X11579998Y-12252288D01*
X11608569Y-12238003D01*
X11651426Y-12238003D01*
X11679998Y-12252288D01*
X11694283Y-12280860D01*
X11694283Y-12438003D01*
X11837140Y-12438003D02*
X11837140Y-12238003D01*
X11837140Y-12266574D02*
X11851426Y-12252288D01*
X11879998Y-12238003D01*
X11922855Y-12238003D01*
X11951426Y-12252288D01*
X11965712Y-12280860D01*
X11965712Y-12438003D01*
X11965712Y-12280860D02*
X11979998Y-12252288D01*
X12008569Y-12238003D01*
X12051426Y-12238003D01*
X12079998Y-12252288D01*
X12094283Y-12280860D01*
X12094283Y-12438003D01*
X12679998Y-12123717D02*
X12422855Y-12509431D01*
X13065712Y-12138003D02*
X13094283Y-12138003D01*
X13122855Y-12152288D01*
X13137140Y-12166574D01*
X13151426Y-12195145D01*
X13165712Y-12252288D01*
X13165712Y-12323717D01*
X13151426Y-12380860D01*
X13137140Y-12409431D01*
X13122855Y-12423717D01*
X13094283Y-12438003D01*
X13065712Y-12438003D01*
X13037140Y-12423717D01*
X13022855Y-12409431D01*
X13008569Y-12380860D01*
X12994283Y-12323717D01*
X12994283Y-12252288D01*
X13008569Y-12195145D01*
X13022855Y-12166574D01*
X13037140Y-12152288D01*
X13065712Y-12138003D01*
X13294283Y-12409431D02*
X13308569Y-12423717D01*
X13294283Y-12438003D01*
X13279998Y-12423717D01*
X13294283Y-12409431D01*
X13294283Y-12438003D01*
X13494283Y-12138003D02*
X13522855Y-12138003D01*
X13551426Y-12152288D01*
X13565712Y-12166574D01*
X13579997Y-12195145D01*
X13594283Y-12252288D01*
X13594283Y-12323717D01*
X13579997Y-12380860D01*
X13565712Y-12409431D01*
X13551426Y-12423717D01*
X13522855Y-12438003D01*
X13494283Y-12438003D01*
X13465712Y-12423717D01*
X13451426Y-12409431D01*
X13437140Y-12380860D01*
X13422855Y-12323717D01*
X13422855Y-12252288D01*
X13437140Y-12195145D01*
X13451426Y-12166574D01*
X13465712Y-12152288D01*
X13494283Y-12138003D01*
X13851426Y-12238003D02*
X13851426Y-12438003D01*
X13779997Y-12123717D02*
X13708569Y-12338003D01*
X13894283Y-12338003D01*
X13979997Y-12138003D02*
X14165712Y-12138003D01*
X14065712Y-12252288D01*
X14108569Y-12252288D01*
X14137140Y-12266574D01*
X14151426Y-12280860D01*
X14165712Y-12309431D01*
X14165712Y-12380860D01*
X14151426Y-12409431D01*
X14137140Y-12423717D01*
X14108569Y-12438003D01*
X14022855Y-12438003D01*
X13994283Y-12423717D01*
X13979997Y-12409431D01*
X14279998Y-12138003D02*
X14279998Y-12195145D01*
X14394283Y-12138003D02*
X14394283Y-12195145D01*
X14837140Y-12552288D02*
X14822855Y-12538003D01*
X14794283Y-12495145D01*
X14779997Y-12466574D01*
X14765712Y-12423717D01*
X14751426Y-12352288D01*
X14751426Y-12295145D01*
X14765712Y-12223717D01*
X14779997Y-12180860D01*
X14794283Y-12152288D01*
X14822855Y-12109431D01*
X14837140Y-12095145D01*
X15108569Y-12438003D02*
X14937140Y-12438003D01*
X15022855Y-12438003D02*
X15022855Y-12138003D01*
X14994283Y-12180860D01*
X14965712Y-12209431D01*
X14937140Y-12223717D01*
X15465712Y-12438003D02*
X15465712Y-12138003D01*
X15594283Y-12438003D02*
X15594283Y-12280860D01*
X15579997Y-12252288D01*
X15551426Y-12238003D01*
X15508569Y-12238003D01*
X15479997Y-12252288D01*
X15465712Y-12266574D01*
X15779997Y-12438003D02*
X15751426Y-12423717D01*
X15737140Y-12409431D01*
X15722855Y-12380860D01*
X15722855Y-12295145D01*
X15737140Y-12266574D01*
X15751426Y-12252288D01*
X15779997Y-12238003D01*
X15822855Y-12238003D01*
X15851426Y-12252288D01*
X15865712Y-12266574D01*
X15879997Y-12295145D01*
X15879997Y-12380860D01*
X15865712Y-12409431D01*
X15851426Y-12423717D01*
X15822855Y-12438003D01*
X15779997Y-12438003D01*
X16051426Y-12438003D02*
X16022855Y-12423717D01*
X16008569Y-12395145D01*
X16008569Y-12138003D01*
X16279998Y-12423717D02*
X16251426Y-12438003D01*
X16194283Y-12438003D01*
X16165712Y-12423717D01*
X16151426Y-12395145D01*
X16151426Y-12280860D01*
X16165712Y-12252288D01*
X16194283Y-12238003D01*
X16251426Y-12238003D01*
X16279998Y-12252288D01*
X16294283Y-12280860D01*
X16294283Y-12309431D01*
X16151426Y-12338003D01*
X16394283Y-12552288D02*
X16408569Y-12538003D01*
X16437140Y-12495145D01*
X16451426Y-12466574D01*
X16465712Y-12423717D01*
X16479998Y-12352288D01*
X16479998Y-12295145D01*
X16465712Y-12223717D01*
X16451426Y-12180860D01*
X16437140Y-12152288D01*
X16408569Y-12109431D01*
X16394283Y-12095145D01*
X16937141Y-12552288D02*
X16922855Y-12538003D01*
X16894283Y-12495145D01*
X16879998Y-12466574D01*
X16865712Y-12423717D01*
X16851426Y-12352288D01*
X16851426Y-12295145D01*
X16865712Y-12223717D01*
X16879998Y-12180860D01*
X16894283Y-12152288D01*
X16922855Y-12109431D01*
X16937141Y-12095145D01*
X17051426Y-12238003D02*
X17051426Y-12438003D01*
X17051426Y-12266574D02*
X17065712Y-12252288D01*
X17094283Y-12238003D01*
X17137141Y-12238003D01*
X17165712Y-12252288D01*
X17179998Y-12280860D01*
X17179998Y-12438003D01*
X17365712Y-12438003D02*
X17337141Y-12423717D01*
X17322855Y-12409431D01*
X17308569Y-12380860D01*
X17308569Y-12295145D01*
X17322855Y-12266574D01*
X17337141Y-12252288D01*
X17365712Y-12238003D01*
X17408569Y-12238003D01*
X17437141Y-12252288D01*
X17451426Y-12266574D01*
X17465712Y-12295145D01*
X17465712Y-12380860D01*
X17451426Y-12409431D01*
X17437141Y-12423717D01*
X17408569Y-12438003D01*
X17365712Y-12438003D01*
X17551426Y-12238003D02*
X17665712Y-12238003D01*
X17594283Y-12138003D02*
X17594283Y-12395145D01*
X17608569Y-12423717D01*
X17637141Y-12438003D01*
X17665712Y-12438003D01*
X17994283Y-12238003D02*
X17994283Y-12538003D01*
X17994283Y-12252288D02*
X18022855Y-12238003D01*
X18079998Y-12238003D01*
X18108569Y-12252288D01*
X18122855Y-12266574D01*
X18137141Y-12295145D01*
X18137141Y-12380860D01*
X18122855Y-12409431D01*
X18108569Y-12423717D01*
X18079998Y-12438003D01*
X18022855Y-12438003D01*
X17994283Y-12423717D01*
X18308569Y-12438003D02*
X18279998Y-12423717D01*
X18265712Y-12395145D01*
X18265712Y-12138003D01*
X18551426Y-12438003D02*
X18551426Y-12280860D01*
X18537141Y-12252288D01*
X18508569Y-12238003D01*
X18451426Y-12238003D01*
X18422855Y-12252288D01*
X18551426Y-12423717D02*
X18522855Y-12438003D01*
X18451426Y-12438003D01*
X18422855Y-12423717D01*
X18408569Y-12395145D01*
X18408569Y-12366574D01*
X18422855Y-12338003D01*
X18451426Y-12323717D01*
X18522855Y-12323717D01*
X18551426Y-12309431D01*
X18651426Y-12238003D02*
X18765712Y-12238003D01*
X18694284Y-12138003D02*
X18694284Y-12395145D01*
X18708569Y-12423717D01*
X18737141Y-12438003D01*
X18765712Y-12438003D01*
X18979998Y-12423717D02*
X18951426Y-12438003D01*
X18894284Y-12438003D01*
X18865712Y-12423717D01*
X18851426Y-12395145D01*
X18851426Y-12280860D01*
X18865712Y-12252288D01*
X18894284Y-12238003D01*
X18951426Y-12238003D01*
X18979998Y-12252288D01*
X18994284Y-12280860D01*
X18994284Y-12309431D01*
X18851426Y-12338003D01*
X19251426Y-12438003D02*
X19251426Y-12138003D01*
X19251426Y-12423717D02*
X19222855Y-12438003D01*
X19165712Y-12438003D01*
X19137141Y-12423717D01*
X19122855Y-12409431D01*
X19108569Y-12380860D01*
X19108569Y-12295145D01*
X19122855Y-12266574D01*
X19137141Y-12252288D01*
X19165712Y-12238003D01*
X19222855Y-12238003D01*
X19251426Y-12252288D01*
X19365712Y-12552288D02*
X19379998Y-12538003D01*
X19408569Y-12495145D01*
X19422855Y-12466574D01*
X19437141Y-12423717D01*
X19451426Y-12352288D01*
X19451426Y-12295145D01*
X19437141Y-12223717D01*
X19422855Y-12180860D01*
X19408569Y-12152288D01*
X19379998Y-12109431D01*
X19365712Y-12095145D01*
X10095712Y-12768288D02*
X10165712Y-12698288D01*
X10095712Y-12628288D01*
X10025712Y-12698288D01*
X10095712Y-12768288D01*
X10594283Y-12834003D02*
X10422855Y-12834003D01*
X10508569Y-12834003D02*
X10508569Y-12534003D01*
X10479998Y-12576860D01*
X10451426Y-12605431D01*
X10422855Y-12619717D01*
X10722855Y-12805431D02*
X10737141Y-12819717D01*
X10722855Y-12834003D01*
X10708569Y-12819717D01*
X10722855Y-12805431D01*
X10722855Y-12834003D01*
X10994283Y-12634003D02*
X10994283Y-12834003D01*
X10922855Y-12519717D02*
X10851426Y-12734003D01*
X11037140Y-12734003D01*
X11208569Y-12534003D02*
X11237140Y-12534003D01*
X11265712Y-12548288D01*
X11279998Y-12562574D01*
X11294283Y-12591145D01*
X11308569Y-12648288D01*
X11308569Y-12719717D01*
X11294283Y-12776860D01*
X11279998Y-12805431D01*
X11265712Y-12819717D01*
X11237140Y-12834003D01*
X11208569Y-12834003D01*
X11179998Y-12819717D01*
X11165712Y-12805431D01*
X11151426Y-12776860D01*
X11137141Y-12719717D01*
X11137141Y-12648288D01*
X11151426Y-12591145D01*
X11165712Y-12562574D01*
X11179998Y-12548288D01*
X11208569Y-12534003D01*
X11437140Y-12834003D02*
X11437140Y-12634003D01*
X11437140Y-12662574D02*
X11451426Y-12648288D01*
X11479998Y-12634003D01*
X11522855Y-12634003D01*
X11551426Y-12648288D01*
X11565712Y-12676860D01*
X11565712Y-12834003D01*
X11565712Y-12676860D02*
X11579998Y-12648288D01*
X11608569Y-12634003D01*
X11651426Y-12634003D01*
X11679998Y-12648288D01*
X11694283Y-12676860D01*
X11694283Y-12834003D01*
X11837140Y-12834003D02*
X11837140Y-12634003D01*
X11837140Y-12662574D02*
X11851426Y-12648288D01*
X11879998Y-12634003D01*
X11922855Y-12634003D01*
X11951426Y-12648288D01*
X11965712Y-12676860D01*
X11965712Y-12834003D01*
X11965712Y-12676860D02*
X11979998Y-12648288D01*
X12008569Y-12634003D01*
X12051426Y-12634003D01*
X12079998Y-12648288D01*
X12094283Y-12676860D01*
X12094283Y-12834003D01*
X12679998Y-12519717D02*
X12422855Y-12905431D01*
X13065712Y-12534003D02*
X13094283Y-12534003D01*
X13122855Y-12548288D01*
X13137140Y-12562574D01*
X13151426Y-12591145D01*
X13165712Y-12648288D01*
X13165712Y-12719717D01*
X13151426Y-12776860D01*
X13137140Y-12805431D01*
X13122855Y-12819717D01*
X13094283Y-12834003D01*
X13065712Y-12834003D01*
X13037140Y-12819717D01*
X13022855Y-12805431D01*
X13008569Y-12776860D01*
X12994283Y-12719717D01*
X12994283Y-12648288D01*
X13008569Y-12591145D01*
X13022855Y-12562574D01*
X13037140Y-12548288D01*
X13065712Y-12534003D01*
X13294283Y-12805431D02*
X13308569Y-12819717D01*
X13294283Y-12834003D01*
X13279998Y-12819717D01*
X13294283Y-12805431D01*
X13294283Y-12834003D01*
X13494283Y-12534003D02*
X13522855Y-12534003D01*
X13551426Y-12548288D01*
X13565712Y-12562574D01*
X13579997Y-12591145D01*
X13594283Y-12648288D01*
X13594283Y-12719717D01*
X13579997Y-12776860D01*
X13565712Y-12805431D01*
X13551426Y-12819717D01*
X13522855Y-12834003D01*
X13494283Y-12834003D01*
X13465712Y-12819717D01*
X13451426Y-12805431D01*
X13437140Y-12776860D01*
X13422855Y-12719717D01*
X13422855Y-12648288D01*
X13437140Y-12591145D01*
X13451426Y-12562574D01*
X13465712Y-12548288D01*
X13494283Y-12534003D01*
X13865712Y-12534003D02*
X13722855Y-12534003D01*
X13708569Y-12676860D01*
X13722855Y-12662574D01*
X13751426Y-12648288D01*
X13822855Y-12648288D01*
X13851426Y-12662574D01*
X13865712Y-12676860D01*
X13879997Y-12705431D01*
X13879997Y-12776860D01*
X13865712Y-12805431D01*
X13851426Y-12819717D01*
X13822855Y-12834003D01*
X13751426Y-12834003D01*
X13722855Y-12819717D01*
X13708569Y-12805431D01*
X14151426Y-12534003D02*
X14008569Y-12534003D01*
X13994283Y-12676860D01*
X14008569Y-12662574D01*
X14037140Y-12648288D01*
X14108569Y-12648288D01*
X14137140Y-12662574D01*
X14151426Y-12676860D01*
X14165712Y-12705431D01*
X14165712Y-12776860D01*
X14151426Y-12805431D01*
X14137140Y-12819717D01*
X14108569Y-12834003D01*
X14037140Y-12834003D01*
X14008569Y-12819717D01*
X13994283Y-12805431D01*
X14279998Y-12534003D02*
X14279998Y-12591145D01*
X14394283Y-12534003D02*
X14394283Y-12591145D01*
X14837140Y-12948288D02*
X14822855Y-12934003D01*
X14794283Y-12891145D01*
X14779997Y-12862574D01*
X14765712Y-12819717D01*
X14751426Y-12748288D01*
X14751426Y-12691145D01*
X14765712Y-12619717D01*
X14779997Y-12576860D01*
X14794283Y-12548288D01*
X14822855Y-12505431D01*
X14837140Y-12491145D01*
X15108569Y-12834003D02*
X14937140Y-12834003D01*
X15022855Y-12834003D02*
X15022855Y-12534003D01*
X14994283Y-12576860D01*
X14965712Y-12605431D01*
X14937140Y-12619717D01*
X15465712Y-12834003D02*
X15465712Y-12534003D01*
X15594283Y-12834003D02*
X15594283Y-12676860D01*
X15579997Y-12648288D01*
X15551426Y-12634003D01*
X15508569Y-12634003D01*
X15479997Y-12648288D01*
X15465712Y-12662574D01*
X15779997Y-12834003D02*
X15751426Y-12819717D01*
X15737140Y-12805431D01*
X15722855Y-12776860D01*
X15722855Y-12691145D01*
X15737140Y-12662574D01*
X15751426Y-12648288D01*
X15779997Y-12634003D01*
X15822855Y-12634003D01*
X15851426Y-12648288D01*
X15865712Y-12662574D01*
X15879997Y-12691145D01*
X15879997Y-12776860D01*
X15865712Y-12805431D01*
X15851426Y-12819717D01*
X15822855Y-12834003D01*
X15779997Y-12834003D01*
X16051426Y-12834003D02*
X16022855Y-12819717D01*
X16008569Y-12791145D01*
X16008569Y-12534003D01*
X16279998Y-12819717D02*
X16251426Y-12834003D01*
X16194283Y-12834003D01*
X16165712Y-12819717D01*
X16151426Y-12791145D01*
X16151426Y-12676860D01*
X16165712Y-12648288D01*
X16194283Y-12634003D01*
X16251426Y-12634003D01*
X16279998Y-12648288D01*
X16294283Y-12676860D01*
X16294283Y-12705431D01*
X16151426Y-12734003D01*
X16394283Y-12948288D02*
X16408569Y-12934003D01*
X16437140Y-12891145D01*
X16451426Y-12862574D01*
X16465712Y-12819717D01*
X16479998Y-12748288D01*
X16479998Y-12691145D01*
X16465712Y-12619717D01*
X16451426Y-12576860D01*
X16437140Y-12548288D01*
X16408569Y-12505431D01*
X16394283Y-12491145D01*
X16937141Y-12948288D02*
X16922855Y-12934003D01*
X16894283Y-12891145D01*
X16879998Y-12862574D01*
X16865712Y-12819717D01*
X16851426Y-12748288D01*
X16851426Y-12691145D01*
X16865712Y-12619717D01*
X16879998Y-12576860D01*
X16894283Y-12548288D01*
X16922855Y-12505431D01*
X16937141Y-12491145D01*
X17051426Y-12634003D02*
X17051426Y-12834003D01*
X17051426Y-12662574D02*
X17065712Y-12648288D01*
X17094283Y-12634003D01*
X17137141Y-12634003D01*
X17165712Y-12648288D01*
X17179998Y-12676860D01*
X17179998Y-12834003D01*
X17365712Y-12834003D02*
X17337141Y-12819717D01*
X17322855Y-12805431D01*
X17308569Y-12776860D01*
X17308569Y-12691145D01*
X17322855Y-12662574D01*
X17337141Y-12648288D01*
X17365712Y-12634003D01*
X17408569Y-12634003D01*
X17437141Y-12648288D01*
X17451426Y-12662574D01*
X17465712Y-12691145D01*
X17465712Y-12776860D01*
X17451426Y-12805431D01*
X17437141Y-12819717D01*
X17408569Y-12834003D01*
X17365712Y-12834003D01*
X17551426Y-12634003D02*
X17665712Y-12634003D01*
X17594283Y-12534003D02*
X17594283Y-12791145D01*
X17608569Y-12819717D01*
X17637141Y-12834003D01*
X17665712Y-12834003D01*
X17994283Y-12634003D02*
X17994283Y-12934003D01*
X17994283Y-12648288D02*
X18022855Y-12634003D01*
X18079998Y-12634003D01*
X18108569Y-12648288D01*
X18122855Y-12662574D01*
X18137141Y-12691145D01*
X18137141Y-12776860D01*
X18122855Y-12805431D01*
X18108569Y-12819717D01*
X18079998Y-12834003D01*
X18022855Y-12834003D01*
X17994283Y-12819717D01*
X18308569Y-12834003D02*
X18279998Y-12819717D01*
X18265712Y-12791145D01*
X18265712Y-12534003D01*
X18551426Y-12834003D02*
X18551426Y-12676860D01*
X18537141Y-12648288D01*
X18508569Y-12634003D01*
X18451426Y-12634003D01*
X18422855Y-12648288D01*
X18551426Y-12819717D02*
X18522855Y-12834003D01*
X18451426Y-12834003D01*
X18422855Y-12819717D01*
X18408569Y-12791145D01*
X18408569Y-12762574D01*
X18422855Y-12734003D01*
X18451426Y-12719717D01*
X18522855Y-12719717D01*
X18551426Y-12705431D01*
X18651426Y-12634003D02*
X18765712Y-12634003D01*
X18694284Y-12534003D02*
X18694284Y-12791145D01*
X18708569Y-12819717D01*
X18737141Y-12834003D01*
X18765712Y-12834003D01*
X18979998Y-12819717D02*
X18951426Y-12834003D01*
X18894284Y-12834003D01*
X18865712Y-12819717D01*
X18851426Y-12791145D01*
X18851426Y-12676860D01*
X18865712Y-12648288D01*
X18894284Y-12634003D01*
X18951426Y-12634003D01*
X18979998Y-12648288D01*
X18994284Y-12676860D01*
X18994284Y-12705431D01*
X18851426Y-12734003D01*
X19251426Y-12834003D02*
X19251426Y-12534003D01*
X19251426Y-12819717D02*
X19222855Y-12834003D01*
X19165712Y-12834003D01*
X19137141Y-12819717D01*
X19122855Y-12805431D01*
X19108569Y-12776860D01*
X19108569Y-12691145D01*
X19122855Y-12662574D01*
X19137141Y-12648288D01*
X19165712Y-12634003D01*
X19222855Y-12634003D01*
X19251426Y-12648288D01*
X19365712Y-12948288D02*
X19379998Y-12934003D01*
X19408569Y-12891145D01*
X19422855Y-12862574D01*
X19437141Y-12819717D01*
X19451426Y-12748288D01*
X19451426Y-12691145D01*
X19437141Y-12619717D01*
X19422855Y-12576860D01*
X19408569Y-12548288D01*
X19379998Y-12505431D01*
X19365712Y-12491145D01*
X9970132Y-12996498D02*
X10165712Y-13192078D01*
X10165712Y-12996498D02*
X9970132Y-13192078D01*
X10165712Y-13094288D02*
G75*
G03X10165712Y-13094288I-97790J0D01*
G01*
X10594283Y-13230003D02*
X10422855Y-13230003D01*
X10508569Y-13230003D02*
X10508569Y-12930003D01*
X10479998Y-12972860D01*
X10451426Y-13001431D01*
X10422855Y-13015717D01*
X10722855Y-13201431D02*
X10737141Y-13215717D01*
X10722855Y-13230003D01*
X10708569Y-13215717D01*
X10722855Y-13201431D01*
X10722855Y-13230003D01*
X10879998Y-13230003D02*
X10937140Y-13230003D01*
X10965712Y-13215717D01*
X10979998Y-13201431D01*
X11008569Y-13158574D01*
X11022855Y-13101431D01*
X11022855Y-12987145D01*
X11008569Y-12958574D01*
X10994283Y-12944288D01*
X10965712Y-12930003D01*
X10908569Y-12930003D01*
X10879998Y-12944288D01*
X10865712Y-12958574D01*
X10851426Y-12987145D01*
X10851426Y-13058574D01*
X10865712Y-13087145D01*
X10879998Y-13101431D01*
X10908569Y-13115717D01*
X10965712Y-13115717D01*
X10994283Y-13101431D01*
X11008569Y-13087145D01*
X11022855Y-13058574D01*
X11279998Y-12930003D02*
X11222855Y-12930003D01*
X11194283Y-12944288D01*
X11179998Y-12958574D01*
X11151426Y-13001431D01*
X11137141Y-13058574D01*
X11137141Y-13172860D01*
X11151426Y-13201431D01*
X11165712Y-13215717D01*
X11194283Y-13230003D01*
X11251426Y-13230003D01*
X11279998Y-13215717D01*
X11294283Y-13201431D01*
X11308569Y-13172860D01*
X11308569Y-13101431D01*
X11294283Y-13072860D01*
X11279998Y-13058574D01*
X11251426Y-13044288D01*
X11194283Y-13044288D01*
X11165712Y-13058574D01*
X11151426Y-13072860D01*
X11137141Y-13101431D01*
X11437140Y-13230003D02*
X11437140Y-13030003D01*
X11437140Y-13058574D02*
X11451426Y-13044288D01*
X11479998Y-13030003D01*
X11522855Y-13030003D01*
X11551426Y-13044288D01*
X11565712Y-13072860D01*
X11565712Y-13230003D01*
X11565712Y-13072860D02*
X11579998Y-13044288D01*
X11608569Y-13030003D01*
X11651426Y-13030003D01*
X11679998Y-13044288D01*
X11694283Y-13072860D01*
X11694283Y-13230003D01*
X11837140Y-13230003D02*
X11837140Y-13030003D01*
X11837140Y-13058574D02*
X11851426Y-13044288D01*
X11879998Y-13030003D01*
X11922855Y-13030003D01*
X11951426Y-13044288D01*
X11965712Y-13072860D01*
X11965712Y-13230003D01*
X11965712Y-13072860D02*
X11979998Y-13044288D01*
X12008569Y-13030003D01*
X12051426Y-13030003D01*
X12079998Y-13044288D01*
X12094283Y-13072860D01*
X12094283Y-13230003D01*
X12679998Y-12915717D02*
X12422855Y-13301431D01*
X13065712Y-12930003D02*
X13094283Y-12930003D01*
X13122855Y-12944288D01*
X13137140Y-12958574D01*
X13151426Y-12987145D01*
X13165712Y-13044288D01*
X13165712Y-13115717D01*
X13151426Y-13172860D01*
X13137140Y-13201431D01*
X13122855Y-13215717D01*
X13094283Y-13230003D01*
X13065712Y-13230003D01*
X13037140Y-13215717D01*
X13022855Y-13201431D01*
X13008569Y-13172860D01*
X12994283Y-13115717D01*
X12994283Y-13044288D01*
X13008569Y-12987145D01*
X13022855Y-12958574D01*
X13037140Y-12944288D01*
X13065712Y-12930003D01*
X13294283Y-13201431D02*
X13308569Y-13215717D01*
X13294283Y-13230003D01*
X13279998Y-13215717D01*
X13294283Y-13201431D01*
X13294283Y-13230003D01*
X13494283Y-12930003D02*
X13522855Y-12930003D01*
X13551426Y-12944288D01*
X13565712Y-12958574D01*
X13579997Y-12987145D01*
X13594283Y-13044288D01*
X13594283Y-13115717D01*
X13579997Y-13172860D01*
X13565712Y-13201431D01*
X13551426Y-13215717D01*
X13522855Y-13230003D01*
X13494283Y-13230003D01*
X13465712Y-13215717D01*
X13451426Y-13201431D01*
X13437140Y-13172860D01*
X13422855Y-13115717D01*
X13422855Y-13044288D01*
X13437140Y-12987145D01*
X13451426Y-12958574D01*
X13465712Y-12944288D01*
X13494283Y-12930003D01*
X13694283Y-12930003D02*
X13894283Y-12930003D01*
X13765712Y-13230003D01*
X13979997Y-12930003D02*
X14179997Y-12930003D01*
X14051426Y-13230003D01*
X14279998Y-12930003D02*
X14279998Y-12987145D01*
X14394283Y-12930003D02*
X14394283Y-12987145D01*
X14837140Y-13344288D02*
X14822855Y-13330003D01*
X14794283Y-13287145D01*
X14779997Y-13258574D01*
X14765712Y-13215717D01*
X14751426Y-13144288D01*
X14751426Y-13087145D01*
X14765712Y-13015717D01*
X14779997Y-12972860D01*
X14794283Y-12944288D01*
X14822855Y-12901431D01*
X14837140Y-12887145D01*
X15108569Y-13230003D02*
X14937140Y-13230003D01*
X15022855Y-13230003D02*
X15022855Y-12930003D01*
X14994283Y-12972860D01*
X14965712Y-13001431D01*
X14937140Y-13015717D01*
X15465712Y-13230003D02*
X15465712Y-12930003D01*
X15594283Y-13230003D02*
X15594283Y-13072860D01*
X15579997Y-13044288D01*
X15551426Y-13030003D01*
X15508569Y-13030003D01*
X15479997Y-13044288D01*
X15465712Y-13058574D01*
X15779997Y-13230003D02*
X15751426Y-13215717D01*
X15737140Y-13201431D01*
X15722855Y-13172860D01*
X15722855Y-13087145D01*
X15737140Y-13058574D01*
X15751426Y-13044288D01*
X15779997Y-13030003D01*
X15822855Y-13030003D01*
X15851426Y-13044288D01*
X15865712Y-13058574D01*
X15879997Y-13087145D01*
X15879997Y-13172860D01*
X15865712Y-13201431D01*
X15851426Y-13215717D01*
X15822855Y-13230003D01*
X15779997Y-13230003D01*
X16051426Y-13230003D02*
X16022855Y-13215717D01*
X16008569Y-13187145D01*
X16008569Y-12930003D01*
X16279998Y-13215717D02*
X16251426Y-13230003D01*
X16194283Y-13230003D01*
X16165712Y-13215717D01*
X16151426Y-13187145D01*
X16151426Y-13072860D01*
X16165712Y-13044288D01*
X16194283Y-13030003D01*
X16251426Y-13030003D01*
X16279998Y-13044288D01*
X16294283Y-13072860D01*
X16294283Y-13101431D01*
X16151426Y-13130003D01*
X16394283Y-13344288D02*
X16408569Y-13330003D01*
X16437140Y-13287145D01*
X16451426Y-13258574D01*
X16465712Y-13215717D01*
X16479998Y-13144288D01*
X16479998Y-13087145D01*
X16465712Y-13015717D01*
X16451426Y-12972860D01*
X16437140Y-12944288D01*
X16408569Y-12901431D01*
X16394283Y-12887145D01*
X16937141Y-13344288D02*
X16922855Y-13330003D01*
X16894283Y-13287145D01*
X16879998Y-13258574D01*
X16865712Y-13215717D01*
X16851426Y-13144288D01*
X16851426Y-13087145D01*
X16865712Y-13015717D01*
X16879998Y-12972860D01*
X16894283Y-12944288D01*
X16922855Y-12901431D01*
X16937141Y-12887145D01*
X17051426Y-13030003D02*
X17051426Y-13230003D01*
X17051426Y-13058574D02*
X17065712Y-13044288D01*
X17094283Y-13030003D01*
X17137141Y-13030003D01*
X17165712Y-13044288D01*
X17179998Y-13072860D01*
X17179998Y-13230003D01*
X17365712Y-13230003D02*
X17337141Y-13215717D01*
X17322855Y-13201431D01*
X17308569Y-13172860D01*
X17308569Y-13087145D01*
X17322855Y-13058574D01*
X17337141Y-13044288D01*
X17365712Y-13030003D01*
X17408569Y-13030003D01*
X17437141Y-13044288D01*
X17451426Y-13058574D01*
X17465712Y-13087145D01*
X17465712Y-13172860D01*
X17451426Y-13201431D01*
X17437141Y-13215717D01*
X17408569Y-13230003D01*
X17365712Y-13230003D01*
X17551426Y-13030003D02*
X17665712Y-13030003D01*
X17594283Y-12930003D02*
X17594283Y-13187145D01*
X17608569Y-13215717D01*
X17637141Y-13230003D01*
X17665712Y-13230003D01*
X17994283Y-13030003D02*
X17994283Y-13330003D01*
X17994283Y-13044288D02*
X18022855Y-13030003D01*
X18079998Y-13030003D01*
X18108569Y-13044288D01*
X18122855Y-13058574D01*
X18137141Y-13087145D01*
X18137141Y-13172860D01*
X18122855Y-13201431D01*
X18108569Y-13215717D01*
X18079998Y-13230003D01*
X18022855Y-13230003D01*
X17994283Y-13215717D01*
X18308569Y-13230003D02*
X18279998Y-13215717D01*
X18265712Y-13187145D01*
X18265712Y-12930003D01*
X18551426Y-13230003D02*
X18551426Y-13072860D01*
X18537141Y-13044288D01*
X18508569Y-13030003D01*
X18451426Y-13030003D01*
X18422855Y-13044288D01*
X18551426Y-13215717D02*
X18522855Y-13230003D01*
X18451426Y-13230003D01*
X18422855Y-13215717D01*
X18408569Y-13187145D01*
X18408569Y-13158574D01*
X18422855Y-13130003D01*
X18451426Y-13115717D01*
X18522855Y-13115717D01*
X18551426Y-13101431D01*
X18651426Y-13030003D02*
X18765712Y-13030003D01*
X18694284Y-12930003D02*
X18694284Y-13187145D01*
X18708569Y-13215717D01*
X18737141Y-13230003D01*
X18765712Y-13230003D01*
X18979998Y-13215717D02*
X18951426Y-13230003D01*
X18894284Y-13230003D01*
X18865712Y-13215717D01*
X18851426Y-13187145D01*
X18851426Y-13072860D01*
X18865712Y-13044288D01*
X18894284Y-13030003D01*
X18951426Y-13030003D01*
X18979998Y-13044288D01*
X18994284Y-13072860D01*
X18994284Y-13101431D01*
X18851426Y-13130003D01*
X19251426Y-13230003D02*
X19251426Y-12930003D01*
X19251426Y-13215717D02*
X19222855Y-13230003D01*
X19165712Y-13230003D01*
X19137141Y-13215717D01*
X19122855Y-13201431D01*
X19108569Y-13172860D01*
X19108569Y-13087145D01*
X19122855Y-13058574D01*
X19137141Y-13044288D01*
X19165712Y-13030003D01*
X19222855Y-13030003D01*
X19251426Y-13044288D01*
X19365712Y-13344288D02*
X19379998Y-13330003D01*
X19408569Y-13287145D01*
X19422855Y-13258574D01*
X19437141Y-13215717D01*
X19451426Y-13144288D01*
X19451426Y-13087145D01*
X19437141Y-13015717D01*
X19422855Y-12972860D01*
X19408569Y-12944288D01*
X19379998Y-12901431D01*
X19365712Y-12887145D01*
X9865712Y-13340288D02*
X10165712Y-13640288D01*
X10165712Y-13340288D02*
X9865712Y-13640288D01*
X10015712Y-13340288D02*
X10015712Y-13640288D01*
X9865712Y-13490288D02*
X10165712Y-13490288D01*
X10408569Y-13326003D02*
X10594283Y-13326003D01*
X10494283Y-13440288D01*
X10537141Y-13440288D01*
X10565712Y-13454574D01*
X10579998Y-13468860D01*
X10594283Y-13497431D01*
X10594283Y-13568860D01*
X10579998Y-13597431D01*
X10565712Y-13611717D01*
X10537141Y-13626003D01*
X10451426Y-13626003D01*
X10422855Y-13611717D01*
X10408569Y-13597431D01*
X10722855Y-13597431D02*
X10737141Y-13611717D01*
X10722855Y-13626003D01*
X10708569Y-13611717D01*
X10722855Y-13597431D01*
X10722855Y-13626003D01*
X10922855Y-13326003D02*
X10951426Y-13326003D01*
X10979998Y-13340288D01*
X10994283Y-13354574D01*
X11008569Y-13383145D01*
X11022855Y-13440288D01*
X11022855Y-13511717D01*
X11008569Y-13568860D01*
X10994283Y-13597431D01*
X10979998Y-13611717D01*
X10951426Y-13626003D01*
X10922855Y-13626003D01*
X10894283Y-13611717D01*
X10879998Y-13597431D01*
X10865712Y-13568860D01*
X10851426Y-13511717D01*
X10851426Y-13440288D01*
X10865712Y-13383145D01*
X10879998Y-13354574D01*
X10894283Y-13340288D01*
X10922855Y-13326003D01*
X11208569Y-13326003D02*
X11237140Y-13326003D01*
X11265712Y-13340288D01*
X11279998Y-13354574D01*
X11294283Y-13383145D01*
X11308569Y-13440288D01*
X11308569Y-13511717D01*
X11294283Y-13568860D01*
X11279998Y-13597431D01*
X11265712Y-13611717D01*
X11237140Y-13626003D01*
X11208569Y-13626003D01*
X11179998Y-13611717D01*
X11165712Y-13597431D01*
X11151426Y-13568860D01*
X11137141Y-13511717D01*
X11137141Y-13440288D01*
X11151426Y-13383145D01*
X11165712Y-13354574D01*
X11179998Y-13340288D01*
X11208569Y-13326003D01*
X11437140Y-13626003D02*
X11437140Y-13426003D01*
X11437140Y-13454574D02*
X11451426Y-13440288D01*
X11479998Y-13426003D01*
X11522855Y-13426003D01*
X11551426Y-13440288D01*
X11565712Y-13468860D01*
X11565712Y-13626003D01*
X11565712Y-13468860D02*
X11579998Y-13440288D01*
X11608569Y-13426003D01*
X11651426Y-13426003D01*
X11679998Y-13440288D01*
X11694283Y-13468860D01*
X11694283Y-13626003D01*
X11837140Y-13626003D02*
X11837140Y-13426003D01*
X11837140Y-13454574D02*
X11851426Y-13440288D01*
X11879998Y-13426003D01*
X11922855Y-13426003D01*
X11951426Y-13440288D01*
X11965712Y-13468860D01*
X11965712Y-13626003D01*
X11965712Y-13468860D02*
X11979998Y-13440288D01*
X12008569Y-13426003D01*
X12051426Y-13426003D01*
X12079998Y-13440288D01*
X12094283Y-13468860D01*
X12094283Y-13626003D01*
X12679998Y-13311717D02*
X12422855Y-13697431D01*
X13065712Y-13326003D02*
X13094283Y-13326003D01*
X13122855Y-13340288D01*
X13137140Y-13354574D01*
X13151426Y-13383145D01*
X13165712Y-13440288D01*
X13165712Y-13511717D01*
X13151426Y-13568860D01*
X13137140Y-13597431D01*
X13122855Y-13611717D01*
X13094283Y-13626003D01*
X13065712Y-13626003D01*
X13037140Y-13611717D01*
X13022855Y-13597431D01*
X13008569Y-13568860D01*
X12994283Y-13511717D01*
X12994283Y-13440288D01*
X13008569Y-13383145D01*
X13022855Y-13354574D01*
X13037140Y-13340288D01*
X13065712Y-13326003D01*
X13294283Y-13597431D02*
X13308569Y-13611717D01*
X13294283Y-13626003D01*
X13279998Y-13611717D01*
X13294283Y-13597431D01*
X13294283Y-13626003D01*
X13594283Y-13626003D02*
X13422855Y-13626003D01*
X13508569Y-13626003D02*
X13508569Y-13326003D01*
X13479997Y-13368860D01*
X13451426Y-13397431D01*
X13422855Y-13411717D01*
X13879997Y-13626003D02*
X13708569Y-13626003D01*
X13794283Y-13626003D02*
X13794283Y-13326003D01*
X13765712Y-13368860D01*
X13737140Y-13397431D01*
X13708569Y-13411717D01*
X14051426Y-13454574D02*
X14022855Y-13440288D01*
X14008569Y-13426003D01*
X13994283Y-13397431D01*
X13994283Y-13383145D01*
X14008569Y-13354574D01*
X14022855Y-13340288D01*
X14051426Y-13326003D01*
X14108569Y-13326003D01*
X14137140Y-13340288D01*
X14151426Y-13354574D01*
X14165712Y-13383145D01*
X14165712Y-13397431D01*
X14151426Y-13426003D01*
X14137140Y-13440288D01*
X14108569Y-13454574D01*
X14051426Y-13454574D01*
X14022855Y-13468860D01*
X14008569Y-13483145D01*
X13994283Y-13511717D01*
X13994283Y-13568860D01*
X14008569Y-13597431D01*
X14022855Y-13611717D01*
X14051426Y-13626003D01*
X14108569Y-13626003D01*
X14137140Y-13611717D01*
X14151426Y-13597431D01*
X14165712Y-13568860D01*
X14165712Y-13511717D01*
X14151426Y-13483145D01*
X14137140Y-13468860D01*
X14108569Y-13454574D01*
X14279998Y-13326003D02*
X14279998Y-13383145D01*
X14394283Y-13326003D02*
X14394283Y-13383145D01*
X14837140Y-13740288D02*
X14822855Y-13726003D01*
X14794283Y-13683145D01*
X14779997Y-13654574D01*
X14765712Y-13611717D01*
X14751426Y-13540288D01*
X14751426Y-13483145D01*
X14765712Y-13411717D01*
X14779997Y-13368860D01*
X14794283Y-13340288D01*
X14822855Y-13297431D01*
X14837140Y-13283145D01*
X15079997Y-13426003D02*
X15079997Y-13626003D01*
X15008569Y-13311717D02*
X14937140Y-13526003D01*
X15122855Y-13526003D01*
X15465712Y-13626003D02*
X15465712Y-13326003D01*
X15594283Y-13626003D02*
X15594283Y-13468860D01*
X15579997Y-13440288D01*
X15551426Y-13426003D01*
X15508569Y-13426003D01*
X15479997Y-13440288D01*
X15465712Y-13454574D01*
X15779997Y-13626003D02*
X15751426Y-13611717D01*
X15737140Y-13597431D01*
X15722855Y-13568860D01*
X15722855Y-13483145D01*
X15737140Y-13454574D01*
X15751426Y-13440288D01*
X15779997Y-13426003D01*
X15822855Y-13426003D01*
X15851426Y-13440288D01*
X15865712Y-13454574D01*
X15879997Y-13483145D01*
X15879997Y-13568860D01*
X15865712Y-13597431D01*
X15851426Y-13611717D01*
X15822855Y-13626003D01*
X15779997Y-13626003D01*
X16051426Y-13626003D02*
X16022855Y-13611717D01*
X16008569Y-13583145D01*
X16008569Y-13326003D01*
X16279998Y-13611717D02*
X16251426Y-13626003D01*
X16194283Y-13626003D01*
X16165712Y-13611717D01*
X16151426Y-13583145D01*
X16151426Y-13468860D01*
X16165712Y-13440288D01*
X16194283Y-13426003D01*
X16251426Y-13426003D01*
X16279998Y-13440288D01*
X16294283Y-13468860D01*
X16294283Y-13497431D01*
X16151426Y-13526003D01*
X16408569Y-13611717D02*
X16437140Y-13626003D01*
X16494283Y-13626003D01*
X16522855Y-13611717D01*
X16537140Y-13583145D01*
X16537140Y-13568860D01*
X16522855Y-13540288D01*
X16494283Y-13526003D01*
X16451426Y-13526003D01*
X16422855Y-13511717D01*
X16408569Y-13483145D01*
X16408569Y-13468860D01*
X16422855Y-13440288D01*
X16451426Y-13426003D01*
X16494283Y-13426003D01*
X16522855Y-13440288D01*
X16637140Y-13740288D02*
X16651426Y-13726003D01*
X16679998Y-13683145D01*
X16694283Y-13654574D01*
X16708569Y-13611717D01*
X16722855Y-13540288D01*
X16722855Y-13483145D01*
X16708569Y-13411717D01*
X16694283Y-13368860D01*
X16679998Y-13340288D01*
X16651426Y-13297431D01*
X16637140Y-13283145D01*
X17179998Y-13740288D02*
X17165712Y-13726003D01*
X17137140Y-13683145D01*
X17122855Y-13654574D01*
X17108569Y-13611717D01*
X17094283Y-13540288D01*
X17094283Y-13483145D01*
X17108569Y-13411717D01*
X17122855Y-13368860D01*
X17137140Y-13340288D01*
X17165712Y-13297431D01*
X17179998Y-13283145D01*
X17294283Y-13426003D02*
X17294283Y-13626003D01*
X17294283Y-13454574D02*
X17308569Y-13440288D01*
X17337140Y-13426003D01*
X17379998Y-13426003D01*
X17408569Y-13440288D01*
X17422855Y-13468860D01*
X17422855Y-13626003D01*
X17608569Y-13626003D02*
X17579998Y-13611717D01*
X17565712Y-13597431D01*
X17551426Y-13568860D01*
X17551426Y-13483145D01*
X17565712Y-13454574D01*
X17579998Y-13440288D01*
X17608569Y-13426003D01*
X17651426Y-13426003D01*
X17679998Y-13440288D01*
X17694283Y-13454574D01*
X17708569Y-13483145D01*
X17708569Y-13568860D01*
X17694283Y-13597431D01*
X17679998Y-13611717D01*
X17651426Y-13626003D01*
X17608569Y-13626003D01*
X17794283Y-13426003D02*
X17908569Y-13426003D01*
X17837141Y-13326003D02*
X17837141Y-13583145D01*
X17851426Y-13611717D01*
X17879998Y-13626003D01*
X17908569Y-13626003D01*
X18237141Y-13426003D02*
X18237141Y-13726003D01*
X18237141Y-13440288D02*
X18265712Y-13426003D01*
X18322855Y-13426003D01*
X18351426Y-13440288D01*
X18365712Y-13454574D01*
X18379998Y-13483145D01*
X18379998Y-13568860D01*
X18365712Y-13597431D01*
X18351426Y-13611717D01*
X18322855Y-13626003D01*
X18265712Y-13626003D01*
X18237141Y-13611717D01*
X18551426Y-13626003D02*
X18522855Y-13611717D01*
X18508569Y-13583145D01*
X18508569Y-13326003D01*
X18794283Y-13626003D02*
X18794283Y-13468860D01*
X18779998Y-13440288D01*
X18751426Y-13426003D01*
X18694283Y-13426003D01*
X18665712Y-13440288D01*
X18794283Y-13611717D02*
X18765712Y-13626003D01*
X18694283Y-13626003D01*
X18665712Y-13611717D01*
X18651426Y-13583145D01*
X18651426Y-13554574D01*
X18665712Y-13526003D01*
X18694283Y-13511717D01*
X18765712Y-13511717D01*
X18794283Y-13497431D01*
X18894283Y-13426003D02*
X19008569Y-13426003D01*
X18937141Y-13326003D02*
X18937141Y-13583145D01*
X18951426Y-13611717D01*
X18979998Y-13626003D01*
X19008569Y-13626003D01*
X19222855Y-13611717D02*
X19194284Y-13626003D01*
X19137141Y-13626003D01*
X19108569Y-13611717D01*
X19094284Y-13583145D01*
X19094284Y-13468860D01*
X19108569Y-13440288D01*
X19137141Y-13426003D01*
X19194284Y-13426003D01*
X19222855Y-13440288D01*
X19237141Y-13468860D01*
X19237141Y-13497431D01*
X19094284Y-13526003D01*
X19494284Y-13626003D02*
X19494284Y-13326003D01*
X19494284Y-13611717D02*
X19465712Y-13626003D01*
X19408569Y-13626003D01*
X19379998Y-13611717D01*
X19365712Y-13597431D01*
X19351426Y-13568860D01*
X19351426Y-13483145D01*
X19365712Y-13454574D01*
X19379998Y-13440288D01*
X19408569Y-13426003D01*
X19465712Y-13426003D01*
X19494284Y-13440288D01*
X19608569Y-13740288D02*
X19622855Y-13726003D01*
X19651426Y-13683145D01*
X19665712Y-13654574D01*
X19679998Y-13611717D01*
X19694284Y-13540288D01*
X19694284Y-13483145D01*
X19679998Y-13411717D01*
X19665712Y-13368860D01*
X19651426Y-13340288D01*
X19622855Y-13297431D01*
X19608569Y-13283145D01*
X9708512Y-13691688D02*
X10165712Y-14148888D01*
X10165712Y-13691688D02*
X9708512Y-14148888D01*
X10098758Y-14081935D02*
X10098758Y-13758642D01*
X9775466Y-13758642D01*
X9775466Y-14081935D01*
X10098758Y-14081935D01*
X10565712Y-13856003D02*
X10565712Y-14056003D01*
X10494283Y-13741717D02*
X10422855Y-13956003D01*
X10608569Y-13956003D01*
X10722855Y-14027431D02*
X10737141Y-14041717D01*
X10722855Y-14056003D01*
X10708569Y-14041717D01*
X10722855Y-14027431D01*
X10722855Y-14056003D01*
X11008569Y-13756003D02*
X10865712Y-13756003D01*
X10851426Y-13898860D01*
X10865712Y-13884574D01*
X10894283Y-13870288D01*
X10965712Y-13870288D01*
X10994283Y-13884574D01*
X11008569Y-13898860D01*
X11022855Y-13927431D01*
X11022855Y-13998860D01*
X11008569Y-14027431D01*
X10994283Y-14041717D01*
X10965712Y-14056003D01*
X10894283Y-14056003D01*
X10865712Y-14041717D01*
X10851426Y-14027431D01*
X11122855Y-13756003D02*
X11322855Y-13756003D01*
X11194283Y-14056003D01*
X11437140Y-14056003D02*
X11437140Y-13856003D01*
X11437140Y-13884574D02*
X11451426Y-13870288D01*
X11479998Y-13856003D01*
X11522855Y-13856003D01*
X11551426Y-13870288D01*
X11565712Y-13898860D01*
X11565712Y-14056003D01*
X11565712Y-13898860D02*
X11579998Y-13870288D01*
X11608569Y-13856003D01*
X11651426Y-13856003D01*
X11679998Y-13870288D01*
X11694283Y-13898860D01*
X11694283Y-14056003D01*
X11837140Y-14056003D02*
X11837140Y-13856003D01*
X11837140Y-13884574D02*
X11851426Y-13870288D01*
X11879998Y-13856003D01*
X11922855Y-13856003D01*
X11951426Y-13870288D01*
X11965712Y-13898860D01*
X11965712Y-14056003D01*
X11965712Y-13898860D02*
X11979998Y-13870288D01*
X12008569Y-13856003D01*
X12051426Y-13856003D01*
X12079998Y-13870288D01*
X12094283Y-13898860D01*
X12094283Y-14056003D01*
X12679998Y-13741717D02*
X12422855Y-14127431D01*
X13065712Y-13756003D02*
X13094283Y-13756003D01*
X13122855Y-13770288D01*
X13137140Y-13784574D01*
X13151426Y-13813145D01*
X13165712Y-13870288D01*
X13165712Y-13941717D01*
X13151426Y-13998860D01*
X13137140Y-14027431D01*
X13122855Y-14041717D01*
X13094283Y-14056003D01*
X13065712Y-14056003D01*
X13037140Y-14041717D01*
X13022855Y-14027431D01*
X13008569Y-13998860D01*
X12994283Y-13941717D01*
X12994283Y-13870288D01*
X13008569Y-13813145D01*
X13022855Y-13784574D01*
X13037140Y-13770288D01*
X13065712Y-13756003D01*
X13294283Y-14027431D02*
X13308569Y-14041717D01*
X13294283Y-14056003D01*
X13279998Y-14041717D01*
X13294283Y-14027431D01*
X13294283Y-14056003D01*
X13594283Y-14056003D02*
X13422855Y-14056003D01*
X13508569Y-14056003D02*
X13508569Y-13756003D01*
X13479997Y-13798860D01*
X13451426Y-13827431D01*
X13422855Y-13841717D01*
X13765712Y-13884574D02*
X13737140Y-13870288D01*
X13722855Y-13856003D01*
X13708569Y-13827431D01*
X13708569Y-13813145D01*
X13722855Y-13784574D01*
X13737140Y-13770288D01*
X13765712Y-13756003D01*
X13822855Y-13756003D01*
X13851426Y-13770288D01*
X13865712Y-13784574D01*
X13879997Y-13813145D01*
X13879997Y-13827431D01*
X13865712Y-13856003D01*
X13851426Y-13870288D01*
X13822855Y-13884574D01*
X13765712Y-13884574D01*
X13737140Y-13898860D01*
X13722855Y-13913145D01*
X13708569Y-13941717D01*
X13708569Y-13998860D01*
X13722855Y-14027431D01*
X13737140Y-14041717D01*
X13765712Y-14056003D01*
X13822855Y-14056003D01*
X13851426Y-14041717D01*
X13865712Y-14027431D01*
X13879997Y-13998860D01*
X13879997Y-13941717D01*
X13865712Y-13913145D01*
X13851426Y-13898860D01*
X13822855Y-13884574D01*
X14065712Y-13756003D02*
X14094283Y-13756003D01*
X14122855Y-13770288D01*
X14137140Y-13784574D01*
X14151426Y-13813145D01*
X14165712Y-13870288D01*
X14165712Y-13941717D01*
X14151426Y-13998860D01*
X14137140Y-14027431D01*
X14122855Y-14041717D01*
X14094283Y-14056003D01*
X14065712Y-14056003D01*
X14037140Y-14041717D01*
X14022855Y-14027431D01*
X14008569Y-13998860D01*
X13994283Y-13941717D01*
X13994283Y-13870288D01*
X14008569Y-13813145D01*
X14022855Y-13784574D01*
X14037140Y-13770288D01*
X14065712Y-13756003D01*
X14279998Y-13756003D02*
X14279998Y-13813145D01*
X14394283Y-13756003D02*
X14394283Y-13813145D01*
X14837140Y-14170288D02*
X14822855Y-14156003D01*
X14794283Y-14113145D01*
X14779997Y-14084574D01*
X14765712Y-14041717D01*
X14751426Y-13970288D01*
X14751426Y-13913145D01*
X14765712Y-13841717D01*
X14779997Y-13798860D01*
X14794283Y-13770288D01*
X14822855Y-13727431D01*
X14837140Y-13713145D01*
X14937140Y-13784574D02*
X14951426Y-13770288D01*
X14979997Y-13756003D01*
X15051426Y-13756003D01*
X15079997Y-13770288D01*
X15094283Y-13784574D01*
X15108569Y-13813145D01*
X15108569Y-13841717D01*
X15094283Y-13884574D01*
X14922855Y-14056003D01*
X15108569Y-14056003D01*
X15465712Y-14056003D02*
X15465712Y-13756003D01*
X15594283Y-14056003D02*
X15594283Y-13898860D01*
X15579997Y-13870288D01*
X15551426Y-13856003D01*
X15508569Y-13856003D01*
X15479997Y-13870288D01*
X15465712Y-13884574D01*
X15779997Y-14056003D02*
X15751426Y-14041717D01*
X15737140Y-14027431D01*
X15722855Y-13998860D01*
X15722855Y-13913145D01*
X15737140Y-13884574D01*
X15751426Y-13870288D01*
X15779997Y-13856003D01*
X15822855Y-13856003D01*
X15851426Y-13870288D01*
X15865712Y-13884574D01*
X15879997Y-13913145D01*
X15879997Y-13998860D01*
X15865712Y-14027431D01*
X15851426Y-14041717D01*
X15822855Y-14056003D01*
X15779997Y-14056003D01*
X16051426Y-14056003D02*
X16022855Y-14041717D01*
X16008569Y-14013145D01*
X16008569Y-13756003D01*
X16279998Y-14041717D02*
X16251426Y-14056003D01*
X16194283Y-14056003D01*
X16165712Y-14041717D01*
X16151426Y-14013145D01*
X16151426Y-13898860D01*
X16165712Y-13870288D01*
X16194283Y-13856003D01*
X16251426Y-13856003D01*
X16279998Y-13870288D01*
X16294283Y-13898860D01*
X16294283Y-13927431D01*
X16151426Y-13956003D01*
X16408569Y-14041717D02*
X16437140Y-14056003D01*
X16494283Y-14056003D01*
X16522855Y-14041717D01*
X16537140Y-14013145D01*
X16537140Y-13998860D01*
X16522855Y-13970288D01*
X16494283Y-13956003D01*
X16451426Y-13956003D01*
X16422855Y-13941717D01*
X16408569Y-13913145D01*
X16408569Y-13898860D01*
X16422855Y-13870288D01*
X16451426Y-13856003D01*
X16494283Y-13856003D01*
X16522855Y-13870288D01*
X16637140Y-14170288D02*
X16651426Y-14156003D01*
X16679998Y-14113145D01*
X16694283Y-14084574D01*
X16708569Y-14041717D01*
X16722855Y-13970288D01*
X16722855Y-13913145D01*
X16708569Y-13841717D01*
X16694283Y-13798860D01*
X16679998Y-13770288D01*
X16651426Y-13727431D01*
X16637140Y-13713145D01*
X17179998Y-14170288D02*
X17165712Y-14156003D01*
X17137140Y-14113145D01*
X17122855Y-14084574D01*
X17108569Y-14041717D01*
X17094283Y-13970288D01*
X17094283Y-13913145D01*
X17108569Y-13841717D01*
X17122855Y-13798860D01*
X17137140Y-13770288D01*
X17165712Y-13727431D01*
X17179998Y-13713145D01*
X17294283Y-13856003D02*
X17294283Y-14056003D01*
X17294283Y-13884574D02*
X17308569Y-13870288D01*
X17337140Y-13856003D01*
X17379998Y-13856003D01*
X17408569Y-13870288D01*
X17422855Y-13898860D01*
X17422855Y-14056003D01*
X17608569Y-14056003D02*
X17579998Y-14041717D01*
X17565712Y-14027431D01*
X17551426Y-13998860D01*
X17551426Y-13913145D01*
X17565712Y-13884574D01*
X17579998Y-13870288D01*
X17608569Y-13856003D01*
X17651426Y-13856003D01*
X17679998Y-13870288D01*
X17694283Y-13884574D01*
X17708569Y-13913145D01*
X17708569Y-13998860D01*
X17694283Y-14027431D01*
X17679998Y-14041717D01*
X17651426Y-14056003D01*
X17608569Y-14056003D01*
X17794283Y-13856003D02*
X17908569Y-13856003D01*
X17837141Y-13756003D02*
X17837141Y-14013145D01*
X17851426Y-14041717D01*
X17879998Y-14056003D01*
X17908569Y-14056003D01*
X18237141Y-13856003D02*
X18237141Y-14156003D01*
X18237141Y-13870288D02*
X18265712Y-13856003D01*
X18322855Y-13856003D01*
X18351426Y-13870288D01*
X18365712Y-13884574D01*
X18379998Y-13913145D01*
X18379998Y-13998860D01*
X18365712Y-14027431D01*
X18351426Y-14041717D01*
X18322855Y-14056003D01*
X18265712Y-14056003D01*
X18237141Y-14041717D01*
X18551426Y-14056003D02*
X18522855Y-14041717D01*
X18508569Y-14013145D01*
X18508569Y-13756003D01*
X18794283Y-14056003D02*
X18794283Y-13898860D01*
X18779998Y-13870288D01*
X18751426Y-13856003D01*
X18694283Y-13856003D01*
X18665712Y-13870288D01*
X18794283Y-14041717D02*
X18765712Y-14056003D01*
X18694283Y-14056003D01*
X18665712Y-14041717D01*
X18651426Y-14013145D01*
X18651426Y-13984574D01*
X18665712Y-13956003D01*
X18694283Y-13941717D01*
X18765712Y-13941717D01*
X18794283Y-13927431D01*
X18894283Y-13856003D02*
X19008569Y-13856003D01*
X18937141Y-13756003D02*
X18937141Y-14013145D01*
X18951426Y-14041717D01*
X18979998Y-14056003D01*
X19008569Y-14056003D01*
X19222855Y-14041717D02*
X19194284Y-14056003D01*
X19137141Y-14056003D01*
X19108569Y-14041717D01*
X19094284Y-14013145D01*
X19094284Y-13898860D01*
X19108569Y-13870288D01*
X19137141Y-13856003D01*
X19194284Y-13856003D01*
X19222855Y-13870288D01*
X19237141Y-13898860D01*
X19237141Y-13927431D01*
X19094284Y-13956003D01*
X19494284Y-14056003D02*
X19494284Y-13756003D01*
X19494284Y-14041717D02*
X19465712Y-14056003D01*
X19408569Y-14056003D01*
X19379998Y-14041717D01*
X19365712Y-14027431D01*
X19351426Y-13998860D01*
X19351426Y-13913145D01*
X19365712Y-13884574D01*
X19379998Y-13870288D01*
X19408569Y-13856003D01*
X19465712Y-13856003D01*
X19494284Y-13870288D01*
X19608569Y-14170288D02*
X19622855Y-14156003D01*
X19651426Y-14113145D01*
X19665712Y-14084574D01*
X19679998Y-14041717D01*
X19694284Y-13970288D01*
X19694284Y-13913145D01*
X19679998Y-13841717D01*
X19665712Y-13798860D01*
X19651426Y-13770288D01*
X19622855Y-13727431D01*
X19608569Y-13713145D01*
M02*
