G04 #@! TF.FileFunction,Profile,NP*
%FSLAX46Y46*%
G04 Gerber Fmt 4.6, Leading zero omitted, Abs format (unit mm)*
G04 Created by KiCad (PCBNEW 4.0.7) date 06/20/18 18:14:49*
%MOMM*%
%LPD*%
G01*
G04 APERTURE LIST*
%ADD10C,0.100000*%
%ADD11C,0.150000*%
G04 APERTURE END LIST*
D10*
D11*
X183575032Y-38474117D02*
X183641892Y-38479391D01*
X183641892Y-38479391D02*
X183830401Y-38501244D01*
X183830401Y-38501244D02*
X184122465Y-38548724D01*
X184122465Y-38548724D02*
X184499989Y-38630880D01*
X184499989Y-38630880D02*
X184944876Y-38756759D01*
X184944876Y-38756759D02*
X185439030Y-38935410D01*
X185439030Y-38935410D02*
X185964355Y-39175879D01*
X185964355Y-39175879D02*
X186502756Y-39487217D01*
X186502756Y-39487217D02*
X187036136Y-39878470D01*
X187036136Y-39878470D02*
X187546399Y-40358686D01*
X187546399Y-40358686D02*
X188015448Y-40936914D01*
X188015448Y-40936914D02*
X188425190Y-41622201D01*
X188425190Y-41622201D02*
X188757526Y-42423596D01*
X188757526Y-42423596D02*
X188994361Y-43350146D01*
X188994361Y-43350146D02*
X189117599Y-44410900D01*
X189117599Y-44410900D02*
X189109099Y-45614906D01*
X189109099Y-45614906D02*
X189044879Y-46441455D01*
X189044879Y-46441455D02*
X188898019Y-47300301D01*
X188898019Y-47300301D02*
X188677966Y-48189174D01*
X188677966Y-48189174D02*
X188394169Y-49105805D01*
X188394169Y-49105805D02*
X188056079Y-50047923D01*
X188056079Y-50047923D02*
X187673143Y-51013258D01*
X187673143Y-51013258D02*
X187254811Y-51999541D01*
X187254811Y-51999541D02*
X186810532Y-53004501D01*
X186810532Y-53004501D02*
X186349757Y-54025869D01*
X186349757Y-54025869D02*
X185881933Y-55061374D01*
X185881933Y-55061374D02*
X185416509Y-56108747D01*
X185416509Y-56108747D02*
X184962937Y-57165717D01*
X184962937Y-57165717D02*
X184530663Y-58230015D01*
X184530663Y-58230015D02*
X184129139Y-59299371D01*
X184129139Y-59299371D02*
X183767812Y-60371514D01*
X183767812Y-60371514D02*
X183456132Y-61444175D01*
X183456132Y-61444175D02*
X183203549Y-62515084D01*
X183203549Y-62515084D02*
X183019512Y-63581971D01*
X183019512Y-63581971D02*
X182913469Y-64642566D01*
X182913469Y-64642566D02*
X182894869Y-65694598D01*
X182894869Y-65694598D02*
X182973159Y-66735799D01*
X182973159Y-66735799D02*
X183157796Y-67763897D01*
X183157796Y-67763897D02*
X183458224Y-68776624D01*
X183458224Y-68776624D02*
X183883894Y-69771708D01*
X183883894Y-69771708D02*
X184444254Y-70746881D01*
X184444254Y-70746881D02*
X185148753Y-71699871D01*
X185148753Y-71699871D02*
X186006841Y-72628410D01*
X186006841Y-72628410D02*
X187027967Y-73530228D01*
X187027967Y-73530228D02*
X188221579Y-74403053D01*
X188221579Y-74403053D02*
X189597128Y-75244617D01*
X189597128Y-75244617D02*
X191164063Y-76052649D01*
X191164063Y-76052649D02*
X192931832Y-76824879D01*
X192931832Y-76824879D02*
X193947611Y-77337609D01*
X193947611Y-77337609D02*
X194203998Y-77463534D01*
X194203998Y-77463534D02*
X194607733Y-77671511D01*
X194607733Y-77671511D02*
X195136201Y-77970296D01*
X195136201Y-77970296D02*
X195766790Y-78368644D01*
X195766790Y-78368644D02*
X196476885Y-78875312D01*
X196476885Y-78875312D02*
X197243872Y-79499054D01*
X197243872Y-79499054D02*
X198045139Y-80248626D01*
X198045139Y-80248626D02*
X198858071Y-81132784D01*
X198858071Y-81132784D02*
X199660054Y-82160283D01*
X199660054Y-82160283D02*
X200428475Y-83339878D01*
X200428475Y-83339878D02*
X201140721Y-84680327D01*
X201140721Y-84680327D02*
X201774179Y-86190383D01*
X201774179Y-86190383D02*
X202306229Y-87878803D01*
X202306229Y-87878803D02*
X202714269Y-89754342D01*
X202714269Y-89754342D02*
X202975669Y-91825755D01*
X202975669Y-91825755D02*
X203067869Y-94101799D01*
X203067869Y-94101799D02*
X203067869Y-101467883D01*
X203067869Y-101467883D02*
X200027809Y-101467883D01*
X200027809Y-101467883D02*
X182040710Y-90037753D01*
X182040710Y-90037753D02*
X152400000Y-86735715D01*
X152400000Y-86735715D02*
X122759290Y-90037753D01*
X122759290Y-90037753D02*
X104772193Y-101467883D01*
X104772193Y-101467883D02*
X101732120Y-101467882D01*
X101732120Y-101467882D02*
X101732120Y-94101798D01*
X101732120Y-94101798D02*
X101824280Y-91825754D01*
X101824280Y-91825754D02*
X102085685Y-89754341D01*
X102085685Y-89754341D02*
X102493720Y-87878802D01*
X102493720Y-87878802D02*
X103025773Y-86190382D01*
X103025773Y-86190382D02*
X103659228Y-84680326D01*
X103659228Y-84680326D02*
X104371474Y-83339878D01*
X104371474Y-83339878D02*
X105139895Y-82160282D01*
X105139895Y-82160282D02*
X105941878Y-81132783D01*
X105941878Y-81132783D02*
X106754810Y-80248625D01*
X106754810Y-80248625D02*
X107556077Y-79499053D01*
X107556077Y-79499053D02*
X108323064Y-78875311D01*
X108323064Y-78875311D02*
X109033159Y-78368643D01*
X109033159Y-78368643D02*
X109663748Y-77970295D01*
X109663748Y-77970295D02*
X110192217Y-77671510D01*
X110192217Y-77671510D02*
X110595951Y-77463533D01*
X110595951Y-77463533D02*
X110852338Y-77337608D01*
X110852338Y-77337608D02*
X112121387Y-76699549D01*
X112121387Y-76699549D02*
X113889150Y-75927471D01*
X113889150Y-75927471D02*
X115456079Y-75119581D01*
X115456079Y-75119581D02*
X116831623Y-74278151D01*
X116831623Y-74278151D02*
X118025231Y-73405450D01*
X118025231Y-73405450D02*
X119046352Y-72503749D01*
X119046352Y-72503749D02*
X119904435Y-71575317D01*
X119904435Y-71575317D02*
X120608930Y-70622426D01*
X120608930Y-70622426D02*
X121169286Y-69647345D01*
X121169286Y-69647345D02*
X121594953Y-68652346D01*
X121594953Y-68652346D02*
X121895378Y-67639697D01*
X121895378Y-67639697D02*
X122080012Y-66611669D01*
X122080012Y-66611669D02*
X122158302Y-65570533D01*
X122158302Y-65570533D02*
X122139702Y-64518559D01*
X122139702Y-64518559D02*
X122033657Y-63458017D01*
X122033657Y-63458017D02*
X121849618Y-62391177D01*
X121849618Y-62391177D02*
X121597033Y-61320310D01*
X121597033Y-61320310D02*
X121285352Y-60247686D01*
X121285352Y-60247686D02*
X120924024Y-59175575D01*
X120924024Y-59175575D02*
X120522498Y-58106247D01*
X120522498Y-58106247D02*
X120090223Y-57041973D01*
X120090223Y-57041973D02*
X119636650Y-55985023D01*
X119636650Y-55985023D02*
X119171226Y-54937667D01*
X119171226Y-54937667D02*
X118703401Y-53902176D01*
X118703401Y-53902176D02*
X118242625Y-52880819D01*
X118242625Y-52880819D02*
X117798346Y-51875868D01*
X117798346Y-51875868D02*
X117380014Y-50889592D01*
X117380014Y-50889592D02*
X116997078Y-49924261D01*
X116997078Y-49924261D02*
X116658987Y-48982146D01*
X116658987Y-48982146D02*
X116375190Y-48065518D01*
X116375190Y-48065518D02*
X116155137Y-47176645D01*
X116155137Y-47176645D02*
X116008277Y-46317800D01*
X116008277Y-46317800D02*
X115944057Y-45491251D01*
X115944057Y-45491251D02*
X115935557Y-44287245D01*
X115935557Y-44287245D02*
X116058795Y-43226491D01*
X116058795Y-43226491D02*
X116295630Y-42299941D01*
X116295630Y-42299941D02*
X116627967Y-41498546D01*
X116627967Y-41498546D02*
X117037708Y-40813259D01*
X117037708Y-40813259D02*
X117506758Y-40235031D01*
X117506758Y-40235031D02*
X118017021Y-39754814D01*
X118017021Y-39754814D02*
X118550401Y-39363562D01*
X118550401Y-39363562D02*
X119088801Y-39052224D01*
X119088801Y-39052224D02*
X119614127Y-38811754D01*
X119614127Y-38811754D02*
X120108281Y-38633104D01*
X120108281Y-38633104D02*
X120553168Y-38507225D01*
X120553168Y-38507225D02*
X120930692Y-38425069D01*
X120930692Y-38425069D02*
X121222756Y-38377589D01*
X121222756Y-38377589D02*
X121411265Y-38355736D01*
X121411265Y-38355736D02*
X121478125Y-38350462D01*
X121478125Y-38350462D02*
X152526555Y-38412289D01*
X152526555Y-38412289D02*
X183575032Y-38474117D01*
M02*
