  0
SECTION
  2
HEADER
  9
$ACADVER
  1
AC1014
  9
$HANDSEED
  5
FFFF
  9
$MEASUREMENT
 70
     1
  0
ENDSEC
  0
SECTION
  2
TABLES
  0
TABLE
  2
VPORT
  5
8
330
0
100
AcDbSymbolTable
 70
     4
  0
VPORT
  5
2E
330
8
100
AcDbSymbolTableRecord
100
AcDbViewportTableRecord
  2
*ACTIVE
 70
     0
 10
0.0
 20
0.0
 11
1.0
 21
1.0
 12
210.0
 22
148.5
 13
0.0
 23
0.0
 14
10.0
 24
10.0
 15
10.0
 25
10.0
 16
0.0
 26
0.0
 36
1.0
 17
0.0
 27
0.0
 37
0.0
 40
341.0
 41
1.24
 42
50.0
 43
0.0
 44
0.0
 50
0.0
 51
0.0
 71
     0
 72
   100
 73
     1
 74
     3
 75
     0
 76
     0
 77
     0
 78
     0
  0
ENDTAB
  0
TABLE
  2
LTYPE
  5
5
330
0
100
AcDbSymbolTable
 70
     1
  0
LTYPE
  5
14
330
5
100
AcDbSymbolTableRecord
100
AcDbLinetypeTableRecord
  2
BYBLOCK
 70
     0
  3

 72
    65
 73
     0
 40
0.0
  0
LTYPE
  5
15
330
5
100
AcDbSymbolTableRecord
100
AcDbLinetypeTableRecord
  2
BYLAYER
 70
     0
  3

 72
    65
 73
     0
 40
0.0
  0
LTYPE
  5
16
330
5
100
AcDbSymbolTableRecord
100
AcDbLinetypeTableRecord
  2
CONTINUOUS
 70
     0
  3
Solid line
 72
    65
 73
     0
 40
0.0
  0
ENDTAB
  0
TABLE
  2
LAYER
  5
2
100
AcDbSymbolTable
 70
6
  0
LAYER
  5
50
100
AcDbSymbolTableRecord
100
AcDbLayerTableRecord
  2
0
 70
0
  6
CONTINUOUS
  0
LAYER
  5
51
100
AcDbSymbolTableRecord
100
AcDbLayerTableRecord
  2
Layer_1
 70
0
  6
CONTINUOUS
  0
LAYER
  5
52
100
AcDbSymbolTableRecord
100
AcDbLayerTableRecord
  2
cuts
 70
0
  6
CONTINUOUS
  0
LAYER
  5
53
100
AcDbSymbolTableRecord
100
AcDbLayerTableRecord
  2
Stash
 70
0
  6
CONTINUOUS
  0
LAYER
  5
54
100
AcDbSymbolTableRecord
100
AcDbLayerTableRecord
  2
top_layer
 70
0
  6
CONTINUOUS
  0
LAYER
  5
55
100
AcDbSymbolTableRecord
100
AcDbLayerTableRecord
  2
top_silk
 70
0
  6
CONTINUOUS
  0
ENDTAB
  0
TABLE
  2
STYLE
  5
3
330
0
100
AcDbSymbolTable
 70
     1
  0
STYLE
  5
11
330
3
100
AcDbSymbolTableRecord
100
AcDbTextStyleTableRecord
  2
STANDARD
 70
     0
 40
0.0
 41
1.0
 50
0.0
 71
     0
 42
2.5
  3
txt
  4

  0
ENDTAB
  0
TABLE
  2
VIEW
  5
6
330
0
100
AcDbSymbolTable
 70
     0
  0
ENDTAB
  0
TABLE
  2
UCS
  5
7
330
0
100
AcDbSymbolTable
 70
     0
  0
ENDTAB
  0
TABLE
  2
APPID
  5
9
330
0
100
AcDbSymbolTable
 70
     2
  0
APPID
  5
12
330
9
100
AcDbSymbolTableRecord
100
AcDbRegAppTableRecord
  2
ACAD
 70
     0
  0
ENDTAB
  0
TABLE
  2
DIMSTYLE
  5
A
330
0
100
AcDbSymbolTable
 70
     1
  0
DIMSTYLE
105
27
330
A
100
AcDbSymbolTableRecord
100
AcDbDimStyleTableRecord
  2
ISO-25
 70
     0
  3

  4

  5

  6

  7

 40
1.0
 41
2.5
 42
0.625
 43
3.75
 44
1.25
 45
0.0
 46
0.0
 47
0.0
 48
0.0
140
2.5
141
2.5
142
0.0
143
0.03937007874016
144
1.0
145
0.0
146
1.0
147
0.625
 71
     0
 72
     0
 73
     0
 74
     0
 75
     0
 76
     0
 77
     1
 78
     8
170
     0
171
     3
172
     1
173
     0
174
     0
175
     0
176
     0
177
     0
178
     0
270
     2
271
     2
272
     2
273
     2
274
     3
340
11
275
     0
280
     0
281
     0
282
     0
283
     0
284
     8
285
     0
286
     0
287
     3
288
     0
  0
ENDTAB
  0
TABLE
  2
BLOCK_RECORD
  5
1
330
0
100
AcDbSymbolTable
 70
     1
  0
BLOCK_RECORD
  5
1F
330
1
100
AcDbSymbolTableRecord
100
AcDbBlockTableRecord
  2
*MODEL_SPACE
  0
BLOCK_RECORD
  5
1B
330
1
100
AcDbSymbolTableRecord
100
AcDbBlockTableRecord
  2
*PAPER_SPACE
  0
ENDTAB
  0
ENDSEC
  0
SECTION
  2
BLOCKS
  0
BLOCK
  5
20
330
1F
100
AcDbEntity
  8
0
100
AcDbBlockBegin
  2
*MODEL_SPACE
 70
     0
 10
0.0
 20
0.0
 30
0.0
  3
*MODEL_SPACE
  1

  0
ENDBLK
  5
21
330
1F
100
AcDbEntity
  8
0
100
AcDbBlockEnd
  0
BLOCK
  5
1C
330
1B
100
AcDbEntity
 67
     1
  8
0
100
AcDbBlockBegin
  2
*PAPER_SPACE
  1

  0
ENDBLK
  5
1D
330
1B
100
AcDbEntity
 67
     1
  8
0
100
AcDbBlockEnd
  0
ENDSEC
  0
SECTION
  2
ENTITIES
  0
SPLINE
  5
100
100
AcDbEntity
  8
cuts
 62
7
100
AcDbSpline
 70
8
 71
3
 72
8
 73
4
 74
0
 40
0
 40
0
 40
0
 40
0
 40
1
 40
1
 40
1
 40
1
 10
101.467869
 20
7.498201
 30
0.0
 10
101.981699
 20
-5.191546
 30
0.0
 10
101.467869
 20
7.498201
 30
0.0
 10
101.467869
 20
7.498201
 30
0.0
  0
SPLINE
  5
101
100
AcDbEntity
  8
cuts
 62
7
100
AcDbSpline
 70
8
 71
3
 72
8
 73
4
 74
0
 40
0
 40
0
 40
0
 40
0
 40
1
 40
1
 40
1
 40
1
 10
0.132120
 20
7.498202
 30
0.0
 10
0.132120
 20
7.498202
 30
0.0
 10
-0.381705
 20
-5.191545
 30
0.0
 10
0.132120
 20
7.498202
 30
0.0
  0
LWPOLYLINE
  5
102
100
AcDbEntity
  8
cuts
 62
7
100
AcDbPolyline
 90
140
 70
1
 10
81.975032
 20
63.125883
 30
0.0
 10
82.041892
 20
63.120609
 30
0.0
 10
82.230401
 20
63.098756
 30
0.0
 10
82.522465
 20
63.051276
 30
0.0
 10
82.899989
 20
62.969120
 30
0.0
 10
83.344876
 20
62.843241
 30
0.0
 10
83.839030
 20
62.664590
 30
0.0
 10
84.364355
 20
62.424121
 30
0.0
 10
84.902756
 20
62.112783
 30
0.0
 10
85.436136
 20
61.721530
 30
0.0
 10
85.946399
 20
61.241314
 30
0.0
 10
86.415448
 20
60.663086
 30
0.0
 10
86.825190
 20
59.977799
 30
0.0
 10
87.157526
 20
59.176404
 30
0.0
 10
87.394361
 20
58.249854
 30
0.0
 10
87.517599
 20
57.189100
 30
0.0
 10
87.509099
 20
55.985094
 30
0.0
 10
87.444879
 20
55.158545
 30
0.0
 10
87.298019
 20
54.299699
 30
0.0
 10
87.077966
 20
53.410826
 30
0.0
 10
86.794169
 20
52.494195
 30
0.0
 10
86.456079
 20
51.552077
 30
0.0
 10
86.073143
 20
50.586742
 30
0.0
 10
85.654811
 20
49.600459
 30
0.0
 10
85.210532
 20
48.595499
 30
0.0
 10
84.749757
 20
47.574131
 30
0.0
 10
84.281933
 20
46.538626
 30
0.0
 10
83.816509
 20
45.491253
 30
0.0
 10
83.362937
 20
44.434283
 30
0.0
 10
82.930663
 20
43.369985
 30
0.0
 10
82.529139
 20
42.300629
 30
0.0
 10
82.167812
 20
41.228486
 30
0.0
 10
81.856132
 20
40.155825
 30
0.0
 10
81.603549
 20
39.084916
 30
0.0
 10
81.419512
 20
38.018029
 30
0.0
 10
81.313469
 20
36.957434
 30
0.0
 10
81.294869
 20
35.905402
 30
0.0
 10
81.373159
 20
34.864201
 30
0.0
 10
81.557796
 20
33.836103
 30
0.0
 10
81.858224
 20
32.823376
 30
0.0
 10
82.283894
 20
31.828292
 30
0.0
 10
82.844254
 20
30.853119
 30
0.0
 10
83.548753
 20
29.900129
 30
0.0
 10
84.406841
 20
28.971590
 30
0.0
 10
85.427967
 20
28.069772
 30
0.0
 10
86.621579
 20
27.196947
 30
0.0
 10
87.997128
 20
26.355383
 30
0.0
 10
89.564063
 20
25.547351
 30
0.0
 10
91.331832
 20
24.775121
 30
0.0
 10
92.347611
 20
24.262391
 30
0.0
 10
92.603998
 20
24.136466
 30
0.0
 10
93.007733
 20
23.928489
 30
0.0
 10
93.536201
 20
23.629704
 30
0.0
 10
94.166790
 20
23.231356
 30
0.0
 10
94.876885
 20
22.724688
 30
0.0
 10
95.643872
 20
22.100946
 30
0.0
 10
96.445139
 20
21.351374
 30
0.0
 10
97.258071
 20
20.467216
 30
0.0
 10
98.060054
 20
19.439717
 30
0.0
 10
98.828475
 20
18.260122
 30
0.0
 10
99.540721
 20
16.919673
 30
0.0
 10
100.174179
 20
15.409617
 30
0.0
 10
100.706229
 20
13.721197
 30
0.0
 10
101.114269
 20
11.845658
 30
0.0
 10
101.375669
 20
9.774245
 30
0.0
 10
101.467869
 20
7.498201
 30
0.0
 10
101.467869
 20
0.132117
 30
0.0
 10
98.427809
 20
0.132117
 30
0.0
 10
80.440710
 20
11.562247
 30
0.0
 10
50.800000
 20
14.864285
 30
0.0
 10
21.159290
 20
11.562247
 30
0.0
 10
3.172193
 20
0.132117
 30
0.0
 10
0.132120
 20
0.132118
 30
0.0
 10
0.132120
 20
7.498202
 30
0.0
 10
0.224280
 20
9.774246
 30
0.0
 10
0.485685
 20
11.845659
 30
0.0
 10
0.893720
 20
13.721198
 30
0.0
 10
1.425773
 20
15.409618
 30
0.0
 10
2.059228
 20
16.919674
 30
0.0
 10
2.771474
 20
18.260122
 30
0.0
 10
3.539895
 20
19.439718
 30
0.0
 10
4.341878
 20
20.467217
 30
0.0
 10
5.154810
 20
21.351375
 30
0.0
 10
5.956077
 20
22.100947
 30
0.0
 10
6.723064
 20
22.724689
 30
0.0
 10
7.433159
 20
23.231357
 30
0.0
 10
8.063748
 20
23.629705
 30
0.0
 10
8.592217
 20
23.928490
 30
0.0
 10
8.995951
 20
24.136467
 30
0.0
 10
9.252338
 20
24.262392
 30
0.0
 10
10.521387
 20
24.900451
 30
0.0
 10
12.289150
 20
25.672529
 30
0.0
 10
13.856079
 20
26.480419
 30
0.0
 10
15.231623
 20
27.321849
 30
0.0
 10
16.425231
 20
28.194550
 30
0.0
 10
17.446352
 20
29.096251
 30
0.0
 10
18.304435
 20
30.024683
 30
0.0
 10
19.008930
 20
30.977574
 30
0.0
 10
19.569286
 20
31.952655
 30
0.0
 10
19.994953
 20
32.947654
 30
0.0
 10
20.295378
 20
33.960303
 30
0.0
 10
20.480012
 20
34.988331
 30
0.0
 10
20.558302
 20
36.029467
 30
0.0
 10
20.539702
 20
37.081441
 30
0.0
 10
20.433657
 20
38.141983
 30
0.0
 10
20.249618
 20
39.208823
 30
0.0
 10
19.997033
 20
40.279690
 30
0.0
 10
19.685352
 20
41.352314
 30
0.0
 10
19.324024
 20
42.424425
 30
0.0
 10
18.922498
 20
43.493753
 30
0.0
 10
18.490223
 20
44.558027
 30
0.0
 10
18.036650
 20
45.614977
 30
0.0
 10
17.571226
 20
46.662333
 30
0.0
 10
17.103401
 20
47.697824
 30
0.0
 10
16.642625
 20
48.719181
 30
0.0
 10
16.198346
 20
49.724132
 30
0.0
 10
15.780014
 20
50.710408
 30
0.0
 10
15.397078
 20
51.675739
 30
0.0
 10
15.058987
 20
52.617854
 30
0.0
 10
14.775190
 20
53.534482
 30
0.0
 10
14.555137
 20
54.423355
 30
0.0
 10
14.408277
 20
55.282200
 30
0.0
 10
14.344057
 20
56.108749
 30
0.0
 10
14.335557
 20
57.312755
 30
0.0
 10
14.458795
 20
58.373509
 30
0.0
 10
14.695630
 20
59.300059
 30
0.0
 10
15.027967
 20
60.101454
 30
0.0
 10
15.437708
 20
60.786741
 30
0.0
 10
15.906758
 20
61.364969
 30
0.0
 10
16.417021
 20
61.845186
 30
0.0
 10
16.950401
 20
62.236438
 30
0.0
 10
17.488801
 20
62.547776
 30
0.0
 10
18.014127
 20
62.788246
 30
0.0
 10
18.508281
 20
62.966896
 30
0.0
 10
18.953168
 20
63.092775
 30
0.0
 10
19.330692
 20
63.174931
 30
0.0
 10
19.622756
 20
63.222411
 30
0.0
 10
19.811265
 20
63.244264
 30
0.0
 10
19.878125
 20
63.249538
 30
0.0
 10
50.926555
 20
63.187711
 30
0.0
  0
ENDSEC
  0
SECTION
  2
OBJECTS
  0
DICTIONARY
  5
C
330
0
100
AcDbDictionary
  3
ACAD_GROUP
350
D
  3
ACAD_MLINESTYLE
350
17
  0
DICTIONARY
  5
D
330
C
100
AcDbDictionary
  0
DICTIONARY
  5
1A
330
C
100
AcDbDictionary
  0
DICTIONARY
  5
17
330
C
100
AcDbDictionary
  3
STANDARD
350
18
  0
DICTIONARY
  5
19
330
C
100
AcDbDictionary
  0
ENDSEC
  0
EOF
