  0
SECTION
  2
HEADER
  9
$ACADVER
  1
AC1014
  9
$HANDSEED
  5
FFFF
  9
$MEASUREMENT
 70
     1
  0
ENDSEC
  0
SECTION
  2
TABLES
  0
TABLE
  2
VPORT
  5
8
330
0
100
AcDbSymbolTable
 70
     4
  0
VPORT
  5
2E
330
8
100
AcDbSymbolTableRecord
100
AcDbViewportTableRecord
  2
*ACTIVE
 70
     0
 10
0.0
 20
0.0
 11
1.0
 21
1.0
 12
210.0
 22
148.5
 13
0.0
 23
0.0
 14
10.0
 24
10.0
 15
10.0
 25
10.0
 16
0.0
 26
0.0
 36
1.0
 17
0.0
 27
0.0
 37
0.0
 40
341.0
 41
1.24
 42
50.0
 43
0.0
 44
0.0
 50
0.0
 51
0.0
 71
     0
 72
   100
 73
     1
 74
     3
 75
     0
 76
     0
 77
     0
 78
     0
  0
ENDTAB
  0
TABLE
  2
LTYPE
  5
5
330
0
100
AcDbSymbolTable
 70
     1
  0
LTYPE
  5
14
330
5
100
AcDbSymbolTableRecord
100
AcDbLinetypeTableRecord
  2
BYBLOCK
 70
     0
  3

 72
    65
 73
     0
 40
0.0
  0
LTYPE
  5
15
330
5
100
AcDbSymbolTableRecord
100
AcDbLinetypeTableRecord
  2
BYLAYER
 70
     0
  3

 72
    65
 73
     0
 40
0.0
  0
LTYPE
  5
16
330
5
100
AcDbSymbolTableRecord
100
AcDbLinetypeTableRecord
  2
CONTINUOUS
 70
     0
  3
Solid line
 72
    65
 73
     0
 40
0.0
  0
ENDTAB
  0
TABLE
  2
LAYER
  5
2
100
AcDbSymbolTable
 70
6
  0
LAYER
  5
50
100
AcDbSymbolTableRecord
100
AcDbLayerTableRecord
  2
0
 70
0
  6
CONTINUOUS
  0
LAYER
  5
51
100
AcDbSymbolTableRecord
100
AcDbLayerTableRecord
  2
Layer_1
 70
0
  6
CONTINUOUS
  0
LAYER
  5
52
100
AcDbSymbolTableRecord
100
AcDbLayerTableRecord
  2
Edge.Cuts
 70
0
  6
CONTINUOUS
  0
LAYER
  5
53
100
AcDbSymbolTableRecord
100
AcDbLayerTableRecord
  2
Mask
 70
0
  6
CONTINUOUS
  0
LAYER
  5
54
100
AcDbSymbolTableRecord
100
AcDbLayerTableRecord
  2
Dwgs.User
 70
0
  6
CONTINUOUS
  0
LAYER
  5
55
100
AcDbSymbolTableRecord
100
AcDbLayerTableRecord
  2
SilkS
 70
0
  6
CONTINUOUS
  0
ENDTAB
  0
TABLE
  2
STYLE
  5
3
330
0
100
AcDbSymbolTable
 70
     1
  0
STYLE
  5
11
330
3
100
AcDbSymbolTableRecord
100
AcDbTextStyleTableRecord
  2
STANDARD
 70
     0
 40
0.0
 41
1.0
 50
0.0
 71
     0
 42
2.5
  3
txt
  4

  0
ENDTAB
  0
TABLE
  2
VIEW
  5
6
330
0
100
AcDbSymbolTable
 70
     0
  0
ENDTAB
  0
TABLE
  2
UCS
  5
7
330
0
100
AcDbSymbolTable
 70
     0
  0
ENDTAB
  0
TABLE
  2
APPID
  5
9
330
0
100
AcDbSymbolTable
 70
     2
  0
APPID
  5
12
330
9
100
AcDbSymbolTableRecord
100
AcDbRegAppTableRecord
  2
ACAD
 70
     0
  0
ENDTAB
  0
TABLE
  2
DIMSTYLE
  5
A
330
0
100
AcDbSymbolTable
 70
     1
  0
DIMSTYLE
105
27
330
A
100
AcDbSymbolTableRecord
100
AcDbDimStyleTableRecord
  2
ISO-25
 70
     0
  3

  4

  5

  6

  7

 40
1.0
 41
2.5
 42
0.625
 43
3.75
 44
1.25
 45
0.0
 46
0.0
 47
0.0
 48
0.0
140
2.5
141
2.5
142
0.0
143
0.03937007874016
144
1.0
145
0.0
146
1.0
147
0.625
 71
     0
 72
     0
 73
     0
 74
     0
 75
     0
 76
     0
 77
     1
 78
     8
170
     0
171
     3
172
     1
173
     0
174
     0
175
     0
176
     0
177
     0
178
     0
270
     2
271
     2
272
     2
273
     2
274
     3
340
11
275
     0
280
     0
281
     0
282
     0
283
     0
284
     8
285
     0
286
     0
287
     3
288
     0
  0
ENDTAB
  0
TABLE
  2
BLOCK_RECORD
  5
1
330
0
100
AcDbSymbolTable
 70
     1
  0
BLOCK_RECORD
  5
1F
330
1
100
AcDbSymbolTableRecord
100
AcDbBlockTableRecord
  2
*MODEL_SPACE
  0
BLOCK_RECORD
  5
1B
330
1
100
AcDbSymbolTableRecord
100
AcDbBlockTableRecord
  2
*PAPER_SPACE
  0
ENDTAB
  0
ENDSEC
  0
SECTION
  2
BLOCKS
  0
BLOCK
  5
20
330
1F
100
AcDbEntity
  8
0
100
AcDbBlockBegin
  2
*MODEL_SPACE
 70
     0
 10
0.0
 20
0.0
 30
0.0
  3
*MODEL_SPACE
  1

  0
ENDBLK
  5
21
330
1F
100
AcDbEntity
  8
0
100
AcDbBlockEnd
  0
BLOCK
  5
1C
330
1B
100
AcDbEntity
 67
     1
  8
0
100
AcDbBlockBegin
  2
*PAPER_SPACE
  1

  0
ENDBLK
  5
1D
330
1B
100
AcDbEntity
 67
     1
  8
0
100
AcDbBlockEnd
  0
ENDSEC
  0
SECTION
  2
ENTITIES
  0
LINE
  5
100
100
AcDbEntity
  8
SilkS
 62
7
100
AcDbLine
 10
23.184114
 20
48.187240
 30
0.0
 11
23.890377
 21
49.625316
 31
0.0
  0
LINE
  5
101
100
AcDbEntity
  8
SilkS
 62
7
100
AcDbLine
 10
23.890377
 20
49.625316
 30
0.0
 11
24.621798
 21
50.847872
 31
0.0
  0
LINE
  5
102
100
AcDbEntity
  8
SilkS
 62
7
100
AcDbLine
 10
24.621798
 20
50.847872
 30
0.0
 11
25.370939
 21
51.872642
 31
0.0
  0
LINE
  5
103
100
AcDbEntity
  8
SilkS
 62
7
100
AcDbLine
 10
25.370939
 20
51.872642
 30
0.0
 11
26.130360
 21
52.717360
 31
0.0
  0
LINE
  5
104
100
AcDbEntity
  8
SilkS
 62
7
100
AcDbLine
 10
26.130360
 20
52.717360
 30
0.0
 11
26.892622
 21
53.399758
 31
0.0
  0
LINE
  5
105
100
AcDbEntity
  8
SilkS
 62
7
100
AcDbLine
 10
26.892622
 20
53.399758
 30
0.0
 11
27.650287
 21
53.937571
 31
0.0
  0
LINE
  5
106
100
AcDbEntity
  8
SilkS
 62
7
100
AcDbLine
 10
27.650287
 20
53.937571
 30
0.0
 11
28.395915
 21
54.348532
 31
0.0
  0
LINE
  5
107
100
AcDbEntity
  8
SilkS
 62
7
100
AcDbLine
 10
28.395915
 20
54.348532
 30
0.0
 11
29.122068
 21
54.650373
 31
0.0
  0
LINE
  5
108
100
AcDbEntity
  8
SilkS
 62
7
100
AcDbLine
 10
29.122068
 20
54.650373
 30
0.0
 11
29.821306
 21
54.860830
 31
0.0
  0
LINE
  5
109
100
AcDbEntity
  8
SilkS
 62
7
100
AcDbLine
 10
29.821306
 20
54.860830
 30
0.0
 11
30.486192
 21
54.997634
 31
0.0
  0
LINE
  5
10a
100
AcDbEntity
  8
SilkS
 62
7
100
AcDbLine
 10
30.486192
 20
54.997634
 30
0.0
 11
31.109284
 21
55.078520
 31
0.0
  0
LINE
  5
10b
100
AcDbEntity
  8
SilkS
 62
7
100
AcDbLine
 10
31.109284
 20
55.078520
 30
0.0
 11
31.683146
 21
55.121221
 31
0.0
  0
LINE
  5
10c
100
AcDbEntity
  8
SilkS
 62
7
100
AcDbLine
 10
31.683146
 20
55.121221
 30
0.0
 11
32.200337
 21
55.143470
 31
0.0
  0
LINE
  5
10d
100
AcDbEntity
  8
SilkS
 62
7
100
AcDbLine
 10
32.200337
 20
55.143470
 30
0.0
 11
32.653419
 21
55.163001
 31
0.0
  0
LINE
  5
10e
100
AcDbEntity
  8
SilkS
 62
7
100
AcDbLine
 10
32.653419
 20
55.163001
 30
0.0
 11
33.034953
 21
55.197548
 31
0.0
  0
LINE
  5
10f
100
AcDbEntity
  8
SilkS
 62
7
100
AcDbLine
 10
33.034953
 20
55.197548
 30
0.0
 11
33.337500
 21
55.264843
 31
0.0
  0
LINE
  5
110
100
AcDbEntity
  8
SilkS
 62
7
100
AcDbLine
 10
33.337500
 20
55.264843
 30
0.0
 11
33.684217
 21
55.313443
 31
0.0
  0
LINE
  5
111
100
AcDbEntity
  8
SilkS
 62
7
100
AcDbLine
 10
33.684217
 20
55.313443
 30
0.0
 11
34.002039
 21
55.471834
 31
0.0
  0
LINE
  5
112
100
AcDbEntity
  8
SilkS
 62
7
100
AcDbLine
 10
34.002039
 20
55.471834
 30
0.0
 11
34.287843
 21
55.724727
 31
0.0
  0
LINE
  5
113
100
AcDbEntity
  8
SilkS
 62
7
100
AcDbLine
 10
34.287843
 20
55.724727
 30
0.0
 11
34.538503
 21
56.056834
 31
0.0
  0
LINE
  5
114
100
AcDbEntity
  8
SilkS
 62
7
100
AcDbLine
 10
34.538503
 20
56.056834
 30
0.0
 11
34.750898
 21
56.452865
 31
0.0
  0
LINE
  5
115
100
AcDbEntity
  8
SilkS
 62
7
100
AcDbLine
 10
34.750898
 20
56.452865
 30
0.0
 11
34.921902
 21
56.897533
 31
0.0
  0
LINE
  5
116
100
AcDbEntity
  8
SilkS
 62
7
100
AcDbLine
 10
34.921902
 20
56.897533
 30
0.0
 11
35.048391
 21
57.375548
 31
0.0
  0
LINE
  5
117
100
AcDbEntity
  8
SilkS
 62
7
100
AcDbLine
 10
35.048391
 20
57.375548
 30
0.0
 11
35.127241
 21
57.871623
 31
0.0
  0
LINE
  5
118
100
AcDbEntity
  8
SilkS
 62
7
100
AcDbLine
 10
35.127241
 20
57.871623
 30
0.0
 11
35.155331
 21
58.370469
 31
0.0
  0
LINE
  5
119
100
AcDbEntity
  8
SilkS
 62
7
100
AcDbLine
 10
35.155331
 20
58.370469
 30
0.0
 11
35.129531
 21
58.856796
 31
0.0
  0
LINE
  5
11a
100
AcDbEntity
  8
SilkS
 62
7
100
AcDbLine
 10
35.129531
 20
58.856796
 30
0.0
 11
35.046721
 21
59.315318
 31
0.0
  0
LINE
  5
11b
100
AcDbEntity
  8
SilkS
 62
7
100
AcDbLine
 10
35.046721
 20
59.315318
 30
0.0
 11
34.903783
 21
59.730744
 31
0.0
  0
LINE
  5
11c
100
AcDbEntity
  8
SilkS
 62
7
100
AcDbLine
 10
34.903783
 20
59.730744
 30
0.0
 11
34.697587
 21
60.087786
 31
0.0
  0
LINE
  5
11d
100
AcDbEntity
  8
SilkS
 62
7
100
AcDbLine
 10
34.697587
 20
60.087786
 30
0.0
 11
34.425011
 21
60.371157
 31
0.0
  0
LINE
  5
11e
100
AcDbEntity
  8
SilkS
 62
7
100
AcDbLine
 10
34.425011
 20
60.371157
 30
0.0
 11
34.082929
 21
60.565567
 31
0.0
  0
LINE
  5
11f
100
AcDbEntity
  8
SilkS
 62
7
100
AcDbLine
 10
34.082929
 20
60.565567
 30
0.0
 11
33.668219
 21
60.655728
 31
0.0
  0
LINE
  5
120
100
AcDbEntity
  8
SilkS
 62
7
100
AcDbLine
 10
33.668219
 20
60.655728
 30
0.0
 11
32.692351
 21
60.598929
 31
0.0
  0
LINE
  5
121
100
AcDbEntity
  8
SilkS
 62
7
100
AcDbLine
 10
32.692351
 20
60.598929
 30
0.0
 11
31.739729
 21
60.447530
 31
0.0
  0
LINE
  5
122
100
AcDbEntity
  8
SilkS
 62
7
100
AcDbLine
 10
31.739729
 20
60.447530
 30
0.0
 11
30.812759
 21
60.210788
 31
0.0
  0
LINE
  5
123
100
AcDbEntity
  8
SilkS
 62
7
100
AcDbLine
 10
30.812759
 20
60.210788
 30
0.0
 11
29.913849
 21
59.897957
 31
0.0
  0
LINE
  5
124
100
AcDbEntity
  8
SilkS
 62
7
100
AcDbLine
 10
29.913849
 20
59.897957
 30
0.0
 11
29.045406
 21
59.518293
 31
0.0
  0
LINE
  5
125
100
AcDbEntity
  8
SilkS
 62
7
100
AcDbLine
 10
29.045406
 20
59.518293
 30
0.0
 11
28.209838
 21
59.081052
 31
0.0
  0
LINE
  5
126
100
AcDbEntity
  8
SilkS
 62
7
100
AcDbLine
 10
28.209838
 20
59.081052
 30
0.0
 11
27.409553
 21
58.595489
 31
0.0
  0
LINE
  5
127
100
AcDbEntity
  8
SilkS
 62
7
100
AcDbLine
 10
27.409553
 20
58.595489
 30
0.0
 11
26.646957
 21
58.070861
 31
0.0
  0
LINE
  5
128
100
AcDbEntity
  8
SilkS
 62
7
100
AcDbLine
 10
26.646957
 20
58.070861
 30
0.0
 11
25.924458
 21
57.516422
 31
0.0
  0
LINE
  5
129
100
AcDbEntity
  8
SilkS
 62
7
100
AcDbLine
 10
25.924458
 20
57.516422
 30
0.0
 11
25.244464
 21
56.941428
 31
0.0
  0
LINE
  5
12a
100
AcDbEntity
  8
SilkS
 62
7
100
AcDbLine
 10
25.244464
 20
56.941428
 30
0.0
 11
24.609382
 21
56.355134
 31
0.0
  0
LINE
  5
12b
100
AcDbEntity
  8
SilkS
 62
7
100
AcDbLine
 10
24.609382
 20
56.355134
 30
0.0
 11
24.021620
 21
55.766797
 31
0.0
  0
LINE
  5
12c
100
AcDbEntity
  8
SilkS
 62
7
100
AcDbLine
 10
24.021620
 20
55.766797
 30
0.0
 11
23.483585
 21
55.185672
 31
0.0
  0
LINE
  5
12d
100
AcDbEntity
  8
SilkS
 62
7
100
AcDbLine
 10
23.483585
 20
55.185672
 30
0.0
 11
22.997684
 21
54.621014
 31
0.0
  0
LINE
  5
12e
100
AcDbEntity
  8
SilkS
 62
7
100
AcDbLine
 10
22.997684
 20
54.621014
 30
0.0
 11
22.566325
 21
54.082080
 31
0.0
  0
LINE
  5
12f
100
AcDbEntity
  8
SilkS
 62
7
100
AcDbLine
 10
22.566325
 20
54.082080
 30
0.0
 11
22.191915
 21
53.578124
 31
0.0
  0
LINE
  5
130
100
AcDbEntity
  8
SilkS
 62
7
100
AcDbLine
 10
22.191915
 20
53.578124
 30
0.0
 11
21.318074
 21
51.899765
 31
0.0
  0
LINE
  5
131
100
AcDbEntity
  8
SilkS
 62
7
100
AcDbLine
 10
21.318074
 20
51.899765
 30
0.0
 11
20.685475
 21
50.490746
 31
0.0
  0
LINE
  5
132
100
AcDbEntity
  8
SilkS
 62
7
100
AcDbLine
 10
20.685475
 20
50.490746
 30
0.0
 11
20.269162
 21
49.331679
 31
0.0
  0
LINE
  5
133
100
AcDbEntity
  8
SilkS
 62
7
100
AcDbLine
 10
20.269162
 20
49.331679
 30
0.0
 11
20.044178
 21
48.403173
 31
0.0
  0
LINE
  5
134
100
AcDbEntity
  8
SilkS
 62
7
100
AcDbLine
 10
20.044178
 20
48.403173
 30
0.0
 11
19.985568
 21
47.685839
 31
0.0
  0
LINE
  5
135
100
AcDbEntity
  8
SilkS
 62
7
100
AcDbLine
 10
19.985568
 20
47.685839
 30
0.0
 11
20.068378
 21
47.160289
 31
0.0
  0
LINE
  5
136
100
AcDbEntity
  8
SilkS
 62
7
100
AcDbLine
 10
20.068378
 20
47.160289
 30
0.0
 11
20.267647
 21
46.807133
 31
0.0
  0
LINE
  5
137
100
AcDbEntity
  8
SilkS
 62
7
100
AcDbLine
 10
20.267647
 20
46.807133
 30
0.0
 11
20.558422
 21
46.606982
 31
0.0
  0
LINE
  5
138
100
AcDbEntity
  8
SilkS
 62
7
100
AcDbLine
 10
20.558422
 20
46.606982
 30
0.0
 11
20.915746
 21
46.540442
 31
0.0
  0
LINE
  5
139
100
AcDbEntity
  8
SilkS
 62
7
100
AcDbLine
 10
20.915746
 20
46.540442
 30
0.0
 11
21.314664
 21
46.588132
 31
0.0
  0
LINE
  5
13a
100
AcDbEntity
  8
SilkS
 62
7
100
AcDbLine
 10
21.314664
 20
46.588132
 30
0.0
 11
21.730220
 21
46.730660
 31
0.0
  0
LINE
  5
13b
100
AcDbEntity
  8
SilkS
 62
7
100
AcDbLine
 10
21.730220
 20
46.730660
 30
0.0
 11
22.137458
 21
46.948635
 31
0.0
  0
LINE
  5
13c
100
AcDbEntity
  8
SilkS
 62
7
100
AcDbLine
 10
22.137458
 20
46.948635
 30
0.0
 11
22.511421
 21
47.222670
 31
0.0
  0
LINE
  5
13d
100
AcDbEntity
  8
SilkS
 62
7
100
AcDbLine
 10
22.511421
 20
47.222670
 30
0.0
 11
22.827154
 21
47.533374
 31
0.0
  0
LINE
  5
13e
100
AcDbEntity
  8
SilkS
 62
7
100
AcDbLine
 10
22.827154
 20
47.533374
 30
0.0
 11
23.059701
 21
47.861359
 31
0.0
  0
LINE
  5
13f
100
AcDbEntity
  8
SilkS
 62
7
100
AcDbLine
 10
23.059701
 20
47.861359
 30
0.0
 11
23.184114
 21
48.187240
 31
0.0
  0
LINE
  5
140
100
AcDbEntity
  8
SilkS
 62
7
100
AcDbLine
 10
78.397851
 20
48.187630
 30
0.0
 11
77.691588
 21
49.625706
 31
0.0
  0
LINE
  5
141
100
AcDbEntity
  8
SilkS
 62
7
100
AcDbLine
 10
77.691588
 20
49.625706
 30
0.0
 11
76.960167
 21
50.848262
 31
0.0
  0
LINE
  5
142
100
AcDbEntity
  8
SilkS
 62
7
100
AcDbLine
 10
76.960167
 20
50.848262
 30
0.0
 11
76.211026
 21
51.873032
 31
0.0
  0
LINE
  5
143
100
AcDbEntity
  8
SilkS
 62
7
100
AcDbLine
 10
76.211026
 20
51.873032
 30
0.0
 11
75.451605
 21
52.717750
 31
0.0
  0
LINE
  5
144
100
AcDbEntity
  8
SilkS
 62
7
100
AcDbLine
 10
75.451605
 20
52.717750
 30
0.0
 11
74.689343
 21
53.400148
 31
0.0
  0
LINE
  5
145
100
AcDbEntity
  8
SilkS
 62
7
100
AcDbLine
 10
74.689343
 20
53.400148
 30
0.0
 11
73.931678
 21
53.937961
 31
0.0
  0
LINE
  5
146
100
AcDbEntity
  8
SilkS
 62
7
100
AcDbLine
 10
73.931678
 20
53.937961
 30
0.0
 11
73.186049
 21
54.348922
 31
0.0
  0
LINE
  5
147
100
AcDbEntity
  8
SilkS
 62
7
100
AcDbLine
 10
73.186049
 20
54.348922
 30
0.0
 11
72.459897
 21
54.650763
 31
0.0
  0
LINE
  5
148
100
AcDbEntity
  8
SilkS
 62
7
100
AcDbLine
 10
72.459897
 20
54.650763
 30
0.0
 11
71.760658
 21
54.861220
 31
0.0
  0
LINE
  5
149
100
AcDbEntity
  8
SilkS
 62
7
100
AcDbLine
 10
71.760658
 20
54.861220
 30
0.0
 11
71.095773
 21
54.998024
 31
0.0
  0
LINE
  5
14a
100
AcDbEntity
  8
SilkS
 62
7
100
AcDbLine
 10
71.095773
 20
54.998024
 30
0.0
 11
70.472680
 21
55.078910
 31
0.0
  0
LINE
  5
14b
100
AcDbEntity
  8
SilkS
 62
7
100
AcDbLine
 10
70.472680
 20
55.078910
 30
0.0
 11
69.898818
 21
55.121611
 31
0.0
  0
LINE
  5
14c
100
AcDbEntity
  8
SilkS
 62
7
100
AcDbLine
 10
69.898818
 20
55.121611
 30
0.0
 11
69.381627
 21
55.143861
 31
0.0
  0
LINE
  5
14d
100
AcDbEntity
  8
SilkS
 62
7
100
AcDbLine
 10
69.381627
 20
55.143861
 30
0.0
 11
68.928545
 21
55.163392
 31
0.0
  0
LINE
  5
14e
100
AcDbEntity
  8
SilkS
 62
7
100
AcDbLine
 10
68.928545
 20
55.163392
 30
0.0
 11
68.547011
 21
55.197938
 31
0.0
  0
LINE
  5
14f
100
AcDbEntity
  8
SilkS
 62
7
100
AcDbLine
 10
68.547011
 20
55.197938
 30
0.0
 11
68.244464
 21
55.265234
 31
0.0
  0
LINE
  5
150
100
AcDbEntity
  8
SilkS
 62
7
100
AcDbLine
 10
68.244464
 20
55.265234
 30
0.0
 11
67.897747
 21
55.313834
 31
0.0
  0
LINE
  5
151
100
AcDbEntity
  8
SilkS
 62
7
100
AcDbLine
 10
67.897747
 20
55.313834
 30
0.0
 11
67.579925
 21
55.472225
 31
0.0
  0
LINE
  5
152
100
AcDbEntity
  8
SilkS
 62
7
100
AcDbLine
 10
67.579925
 20
55.472225
 30
0.0
 11
67.294121
 21
55.725118
 31
0.0
  0
LINE
  5
153
100
AcDbEntity
  8
SilkS
 62
7
100
AcDbLine
 10
67.294121
 20
55.725118
 30
0.0
 11
67.043461
 21
56.057225
 31
0.0
  0
LINE
  5
154
100
AcDbEntity
  8
SilkS
 62
7
100
AcDbLine
 10
67.043461
 20
56.057225
 30
0.0
 11
66.831066
 21
56.453256
 31
0.0
  0
LINE
  5
155
100
AcDbEntity
  8
SilkS
 62
7
100
AcDbLine
 10
66.831066
 20
56.453256
 30
0.0
 11
66.660062
 21
56.897924
 31
0.0
  0
LINE
  5
156
100
AcDbEntity
  8
SilkS
 62
7
100
AcDbLine
 10
66.660062
 20
56.897924
 30
0.0
 11
66.533573
 21
57.375940
 31
0.0
  0
LINE
  5
157
100
AcDbEntity
  8
SilkS
 62
7
100
AcDbLine
 10
66.533573
 20
57.375940
 30
0.0
 11
66.454723
 21
57.872014
 31
0.0
  0
LINE
  5
158
100
AcDbEntity
  8
SilkS
 62
7
100
AcDbLine
 10
66.454723
 20
57.872014
 30
0.0
 11
66.426633
 21
58.370860
 31
0.0
  0
LINE
  5
159
100
AcDbEntity
  8
SilkS
 62
7
100
AcDbLine
 10
66.426633
 20
58.370860
 30
0.0
 11
66.452433
 21
58.857187
 31
0.0
  0
LINE
  5
15a
100
AcDbEntity
  8
SilkS
 62
7
100
AcDbLine
 10
66.452433
 20
58.857187
 30
0.0
 11
66.535233
 21
59.315709
 31
0.0
  0
LINE
  5
15b
100
AcDbEntity
  8
SilkS
 62
7
100
AcDbLine
 10
66.535233
 20
59.315709
 30
0.0
 11
66.678171
 21
59.731135
 31
0.0
  0
LINE
  5
15c
100
AcDbEntity
  8
SilkS
 62
7
100
AcDbLine
 10
66.678171
 20
59.731135
 30
0.0
 11
66.884367
 21
60.088178
 31
0.0
  0
LINE
  5
15d
100
AcDbEntity
  8
SilkS
 62
7
100
AcDbLine
 10
66.884367
 20
60.088178
 30
0.0
 11
67.156943
 21
60.371548
 31
0.0
  0
LINE
  5
15e
100
AcDbEntity
  8
SilkS
 62
7
100
AcDbLine
 10
67.156943
 20
60.371548
 30
0.0
 11
67.499025
 21
60.565958
 31
0.0
  0
LINE
  5
15f
100
AcDbEntity
  8
SilkS
 62
7
100
AcDbLine
 10
67.499025
 20
60.565958
 30
0.0
 11
67.913735
 21
60.656119
 31
0.0
  0
LINE
  5
160
100
AcDbEntity
  8
SilkS
 62
7
100
AcDbLine
 10
67.913735
 20
60.656119
 30
0.0
 11
68.889603
 21
60.599320
 31
0.0
  0
LINE
  5
161
100
AcDbEntity
  8
SilkS
 62
7
100
AcDbLine
 10
68.889603
 20
60.599320
 30
0.0
 11
69.842225
 21
60.447922
 31
0.0
  0
LINE
  5
162
100
AcDbEntity
  8
SilkS
 62
7
100
AcDbLine
 10
69.842225
 20
60.447922
 30
0.0
 11
70.769196
 21
60.211179
 31
0.0
  0
LINE
  5
163
100
AcDbEntity
  8
SilkS
 62
7
100
AcDbLine
 10
70.769196
 20
60.211179
 30
0.0
 11
71.668106
 21
59.898348
 31
0.0
  0
LINE
  5
164
100
AcDbEntity
  8
SilkS
 62
7
100
AcDbLine
 10
71.668106
 20
59.898348
 30
0.0
 11
72.536549
 21
59.518684
 31
0.0
  0
LINE
  5
165
100
AcDbEntity
  8
SilkS
 62
7
100
AcDbLine
 10
72.536549
 20
59.518684
 30
0.0
 11
73.372117
 21
59.081443
 31
0.0
  0
LINE
  5
166
100
AcDbEntity
  8
SilkS
 62
7
100
AcDbLine
 10
73.372117
 20
59.081443
 30
0.0
 11
74.172402
 21
58.595880
 31
0.0
  0
LINE
  5
167
100
AcDbEntity
  8
SilkS
 62
7
100
AcDbLine
 10
74.172402
 20
58.595880
 30
0.0
 11
74.934998
 21
58.071252
 31
0.0
  0
LINE
  5
168
100
AcDbEntity
  8
SilkS
 62
7
100
AcDbLine
 10
74.934998
 20
58.071252
 30
0.0
 11
75.657497
 21
57.516813
 31
0.0
  0
LINE
  5
169
100
AcDbEntity
  8
SilkS
 62
7
100
AcDbLine
 10
75.657497
 20
57.516813
 30
0.0
 11
76.337491
 21
56.941819
 31
0.0
  0
LINE
  5
16a
100
AcDbEntity
  8
SilkS
 62
7
100
AcDbLine
 10
76.337491
 20
56.941819
 30
0.0
 11
76.972573
 21
56.355525
 31
0.0
  0
LINE
  5
16b
100
AcDbEntity
  8
SilkS
 62
7
100
AcDbLine
 10
76.972573
 20
56.355525
 30
0.0
 11
77.560335
 21
55.767188
 31
0.0
  0
LINE
  5
16c
100
AcDbEntity
  8
SilkS
 62
7
100
AcDbLine
 10
77.560335
 20
55.767188
 30
0.0
 11
78.098370
 21
55.186063
 31
0.0
  0
LINE
  5
16d
100
AcDbEntity
  8
SilkS
 62
7
100
AcDbLine
 10
78.098370
 20
55.186063
 30
0.0
 11
78.584271
 21
54.621405
 31
0.0
  0
LINE
  5
16e
100
AcDbEntity
  8
SilkS
 62
7
100
AcDbLine
 10
78.584271
 20
54.621405
 30
0.0
 11
79.015630
 21
54.082471
 31
0.0
  0
LINE
  5
16f
100
AcDbEntity
  8
SilkS
 62
7
100
AcDbLine
 10
79.015630
 20
54.082471
 30
0.0
 11
79.390040
 21
53.578515
 31
0.0
  0
LINE
  5
170
100
AcDbEntity
  8
SilkS
 62
7
100
AcDbLine
 10
79.390040
 20
53.578515
 30
0.0
 11
80.263881
 21
51.900156
 31
0.0
  0
LINE
  5
171
100
AcDbEntity
  8
SilkS
 62
7
100
AcDbLine
 10
80.263881
 20
51.900156
 30
0.0
 11
80.896480
 21
50.491137
 31
0.0
  0
LINE
  5
172
100
AcDbEntity
  8
SilkS
 62
7
100
AcDbLine
 10
80.896480
 20
50.491137
 30
0.0
 11
81.312793
 21
49.332070
 31
0.0
  0
LINE
  5
173
100
AcDbEntity
  8
SilkS
 62
7
100
AcDbLine
 10
81.312793
 20
49.332070
 30
0.0
 11
81.537777
 21
48.403564
 31
0.0
  0
LINE
  5
174
100
AcDbEntity
  8
SilkS
 62
7
100
AcDbLine
 10
81.537777
 20
48.403564
 30
0.0
 11
81.596387
 21
47.686230
 31
0.0
  0
LINE
  5
175
100
AcDbEntity
  8
SilkS
 62
7
100
AcDbLine
 10
81.596387
 20
47.686230
 30
0.0
 11
81.513577
 21
47.160680
 31
0.0
  0
LINE
  5
176
100
AcDbEntity
  8
SilkS
 62
7
100
AcDbLine
 10
81.513577
 20
47.160680
 30
0.0
 11
81.314308
 21
46.807524
 31
0.0
  0
LINE
  5
177
100
AcDbEntity
  8
SilkS
 62
7
100
AcDbLine
 10
81.314308
 20
46.807524
 30
0.0
 11
81.023534
 21
46.607373
 31
0.0
  0
LINE
  5
178
100
AcDbEntity
  8
SilkS
 62
7
100
AcDbLine
 10
81.023534
 20
46.607373
 30
0.0
 11
80.666209
 21
46.540833
 31
0.0
  0
LINE
  5
179
100
AcDbEntity
  8
SilkS
 62
7
100
AcDbLine
 10
80.666209
 20
46.540833
 30
0.0
 11
80.267291
 21
46.588523
 31
0.0
  0
LINE
  5
17a
100
AcDbEntity
  8
SilkS
 62
7
100
AcDbLine
 10
80.267291
 20
46.588523
 30
0.0
 11
79.851735
 21
46.731051
 31
0.0
  0
LINE
  5
17b
100
AcDbEntity
  8
SilkS
 62
7
100
AcDbLine
 10
79.851735
 20
46.731051
 30
0.0
 11
79.444497
 21
46.949026
 31
0.0
  0
LINE
  5
17c
100
AcDbEntity
  8
SilkS
 62
7
100
AcDbLine
 10
79.444497
 20
46.949026
 30
0.0
 11
79.070534
 21
47.223061
 31
0.0
  0
LINE
  5
17d
100
AcDbEntity
  8
SilkS
 62
7
100
AcDbLine
 10
79.070534
 20
47.223061
 30
0.0
 11
78.754801
 21
47.533765
 31
0.0
  0
LINE
  5
17e
100
AcDbEntity
  8
SilkS
 62
7
100
AcDbLine
 10
78.754801
 20
47.533765
 30
0.0
 11
78.522254
 21
47.861750
 31
0.0
  0
LINE
  5
17f
100
AcDbEntity
  8
SilkS
 62
7
100
AcDbLine
 10
78.522254
 20
47.861750
 30
0.0
 11
78.397851
 21
48.187630
 31
0.0
  0
ENDSEC
  0
SECTION
  2
OBJECTS
  0
DICTIONARY
  5
C
330
0
100
AcDbDictionary
  3
ACAD_GROUP
350
D
  3
ACAD_MLINESTYLE
350
17
  0
DICTIONARY
  5
D
330
C
100
AcDbDictionary
  0
DICTIONARY
  5
1A
330
C
100
AcDbDictionary
  0
DICTIONARY
  5
17
330
C
100
AcDbDictionary
  3
STANDARD
350
18
  0
DICTIONARY
  5
19
330
C
100
AcDbDictionary
  0
ENDSEC
  0
EOF
