  0
SECTION
  2
HEADER
  9
$ACADVER
  1
AC1014
  9
$HANDSEED
  5
FFFF
  9
$MEASUREMENT
 70
     1
  0
ENDSEC
  0
SECTION
  2
TABLES
  0
TABLE
  2
VPORT
  5
8
330
0
100
AcDbSymbolTable
 70
     4
  0
VPORT
  5
2E
330
8
100
AcDbSymbolTableRecord
100
AcDbViewportTableRecord
  2
*ACTIVE
 70
     0
 10
0.0
 20
0.0
 11
1.0
 21
1.0
 12
210.0
 22
148.5
 13
0.0
 23
0.0
 14
10.0
 24
10.0
 15
10.0
 25
10.0
 16
0.0
 26
0.0
 36
1.0
 17
0.0
 27
0.0
 37
0.0
 40
341.0
 41
1.24
 42
50.0
 43
0.0
 44
0.0
 50
0.0
 51
0.0
 71
     0
 72
   100
 73
     1
 74
     3
 75
     0
 76
     0
 77
     0
 78
     0
  0
ENDTAB
  0
TABLE
  2
LTYPE
  5
5
330
0
100
AcDbSymbolTable
 70
     1
  0
LTYPE
  5
14
330
5
100
AcDbSymbolTableRecord
100
AcDbLinetypeTableRecord
  2
BYBLOCK
 70
     0
  3

 72
    65
 73
     0
 40
0.0
  0
LTYPE
  5
15
330
5
100
AcDbSymbolTableRecord
100
AcDbLinetypeTableRecord
  2
BYLAYER
 70
     0
  3

 72
    65
 73
     0
 40
0.0
  0
LTYPE
  5
16
330
5
100
AcDbSymbolTableRecord
100
AcDbLinetypeTableRecord
  2
CONTINUOUS
 70
     0
  3
Solid line
 72
    65
 73
     0
 40
0.0
  0
ENDTAB
  0
TABLE
  2
LAYER
  5
2
100
AcDbSymbolTable
 70
6
  0
LAYER
  5
50
100
AcDbSymbolTableRecord
100
AcDbLayerTableRecord
  2
0
 70
0
  6
CONTINUOUS
  0
LAYER
  5
51
100
AcDbSymbolTableRecord
100
AcDbLayerTableRecord
  2
Layer_1
 70
0
  6
CONTINUOUS
  0
LAYER
  5
52
100
AcDbSymbolTableRecord
100
AcDbLayerTableRecord
  2
Edge.Cuts
 70
0
  6
CONTINUOUS
  0
LAYER
  5
53
100
AcDbSymbolTableRecord
100
AcDbLayerTableRecord
  2
Mask
 70
0
  6
CONTINUOUS
  0
LAYER
  5
54
100
AcDbSymbolTableRecord
100
AcDbLayerTableRecord
  2
Dwgs.User
 70
0
  6
CONTINUOUS
  0
LAYER
  5
55
100
AcDbSymbolTableRecord
100
AcDbLayerTableRecord
  2
SilkS
 70
0
  6
CONTINUOUS
  0
ENDTAB
  0
TABLE
  2
STYLE
  5
3
330
0
100
AcDbSymbolTable
 70
     1
  0
STYLE
  5
11
330
3
100
AcDbSymbolTableRecord
100
AcDbTextStyleTableRecord
  2
STANDARD
 70
     0
 40
0.0
 41
1.0
 50
0.0
 71
     0
 42
2.5
  3
txt
  4

  0
ENDTAB
  0
TABLE
  2
VIEW
  5
6
330
0
100
AcDbSymbolTable
 70
     0
  0
ENDTAB
  0
TABLE
  2
UCS
  5
7
330
0
100
AcDbSymbolTable
 70
     0
  0
ENDTAB
  0
TABLE
  2
APPID
  5
9
330
0
100
AcDbSymbolTable
 70
     2
  0
APPID
  5
12
330
9
100
AcDbSymbolTableRecord
100
AcDbRegAppTableRecord
  2
ACAD
 70
     0
  0
ENDTAB
  0
TABLE
  2
DIMSTYLE
  5
A
330
0
100
AcDbSymbolTable
 70
     1
  0
DIMSTYLE
105
27
330
A
100
AcDbSymbolTableRecord
100
AcDbDimStyleTableRecord
  2
ISO-25
 70
     0
  3

  4

  5

  6

  7

 40
1.0
 41
2.5
 42
0.625
 43
3.75
 44
1.25
 45
0.0
 46
0.0
 47
0.0
 48
0.0
140
2.5
141
2.5
142
0.0
143
0.03937007874016
144
1.0
145
0.0
146
1.0
147
0.625
 71
     0
 72
     0
 73
     0
 74
     0
 75
     0
 76
     0
 77
     1
 78
     8
170
     0
171
     3
172
     1
173
     0
174
     0
175
     0
176
     0
177
     0
178
     0
270
     2
271
     2
272
     2
273
     2
274
     3
340
11
275
     0
280
     0
281
     0
282
     0
283
     0
284
     8
285
     0
286
     0
287
     3
288
     0
  0
ENDTAB
  0
TABLE
  2
BLOCK_RECORD
  5
1
330
0
100
AcDbSymbolTable
 70
     1
  0
BLOCK_RECORD
  5
1F
330
1
100
AcDbSymbolTableRecord
100
AcDbBlockTableRecord
  2
*MODEL_SPACE
  0
BLOCK_RECORD
  5
1B
330
1
100
AcDbSymbolTableRecord
100
AcDbBlockTableRecord
  2
*PAPER_SPACE
  0
ENDTAB
  0
ENDSEC
  0
SECTION
  2
BLOCKS
  0
BLOCK
  5
20
330
1F
100
AcDbEntity
  8
0
100
AcDbBlockBegin
  2
*MODEL_SPACE
 70
     0
 10
0.0
 20
0.0
 30
0.0
  3
*MODEL_SPACE
  1

  0
ENDBLK
  5
21
330
1F
100
AcDbEntity
  8
0
100
AcDbBlockEnd
  0
BLOCK
  5
1C
330
1B
100
AcDbEntity
 67
     1
  8
0
100
AcDbBlockBegin
  2
*PAPER_SPACE
  1

  0
ENDBLK
  5
1D
330
1B
100
AcDbEntity
 67
     1
  8
0
100
AcDbBlockEnd
  0
ENDSEC
  0
SECTION
  2
ENTITIES
  0
LINE
  5
100
100
AcDbEntity
  8
Dwgs.User
 62
7
100
AcDbLine
 10
48.308392
 20
43.858418
 30
0.0
 11
53.226614
 21
43.858418
 31
0.0
  0
LINE
  5
101
100
AcDbEntity
  8
Dwgs.User
 62
7
100
AcDbLine
 10
53.226614
 20
43.858418
 30
0.0
 11
53.226614
 21
36.990196
 31
0.0
  0
LINE
  5
102
100
AcDbEntity
  8
Dwgs.User
 62
7
100
AcDbLine
 10
53.226614
 20
36.990196
 30
0.0
 11
48.308392
 21
36.990196
 31
0.0
  0
LINE
  5
103
100
AcDbEntity
  8
Dwgs.User
 62
7
100
AcDbLine
 10
48.308392
 20
36.990196
 30
0.0
 11
48.308392
 21
43.858418
 31
0.0
  0
LINE
  5
104
100
AcDbEntity
  8
Dwgs.User
 62
7
100
AcDbLine
 10
35.169836
 20
48.337875
 30
0.0
 11
35.070026
 21
47.347804
 31
0.0
  0
LINE
  5
105
100
AcDbEntity
  8
Dwgs.User
 62
7
100
AcDbLine
 10
35.070026
 20
47.347804
 30
0.0
 11
34.783773
 21
46.425649
 31
0.0
  0
LINE
  5
106
100
AcDbEntity
  8
Dwgs.User
 62
7
100
AcDbLine
 10
34.783773
 20
46.425649
 30
0.0
 11
34.330830
 21
45.591164
 31
0.0
  0
LINE
  5
107
100
AcDbEntity
  8
Dwgs.User
 62
7
100
AcDbLine
 10
34.330830
 20
45.591164
 30
0.0
 11
33.730951
 21
44.864105
 31
0.0
  0
LINE
  5
108
100
AcDbEntity
  8
Dwgs.User
 62
7
100
AcDbLine
 10
33.730951
 20
44.864105
 30
0.0
 11
33.003892
 21
44.264226
 31
0.0
  0
LINE
  5
109
100
AcDbEntity
  8
Dwgs.User
 62
7
100
AcDbLine
 10
33.003892
 20
44.264226
 30
0.0
 11
32.169407
 21
43.811283
 31
0.0
  0
LINE
  5
10a
100
AcDbEntity
  8
Dwgs.User
 62
7
100
AcDbLine
 10
32.169407
 20
43.811283
 30
0.0
 11
31.247252
 21
43.525030
 31
0.0
  0
LINE
  5
10b
100
AcDbEntity
  8
Dwgs.User
 62
7
100
AcDbLine
 10
31.247252
 20
43.525030
 30
0.0
 11
30.257181
 21
43.425220
 31
0.0
  0
LINE
  5
10c
100
AcDbEntity
  8
Dwgs.User
 62
7
100
AcDbLine
 10
30.257181
 20
43.425220
 30
0.0
 11
29.267110
 21
43.525030
 31
0.0
  0
LINE
  5
10d
100
AcDbEntity
  8
Dwgs.User
 62
7
100
AcDbLine
 10
29.267110
 20
43.525030
 30
0.0
 11
28.344955
 21
43.811283
 31
0.0
  0
LINE
  5
10e
100
AcDbEntity
  8
Dwgs.User
 62
7
100
AcDbLine
 10
28.344955
 20
43.811283
 30
0.0
 11
27.510470
 21
44.264226
 31
0.0
  0
LINE
  5
10f
100
AcDbEntity
  8
Dwgs.User
 62
7
100
AcDbLine
 10
27.510470
 20
44.264226
 30
0.0
 11
26.783411
 21
44.864105
 31
0.0
  0
LINE
  5
110
100
AcDbEntity
  8
Dwgs.User
 62
7
100
AcDbLine
 10
26.783411
 20
44.864105
 30
0.0
 11
26.183532
 21
45.591164
 31
0.0
  0
LINE
  5
111
100
AcDbEntity
  8
Dwgs.User
 62
7
100
AcDbLine
 10
26.183532
 20
45.591164
 30
0.0
 11
25.730589
 21
46.425649
 31
0.0
  0
LINE
  5
112
100
AcDbEntity
  8
Dwgs.User
 62
7
100
AcDbLine
 10
25.730589
 20
46.425649
 30
0.0
 11
25.444336
 21
47.347804
 31
0.0
  0
LINE
  5
113
100
AcDbEntity
  8
Dwgs.User
 62
7
100
AcDbLine
 10
25.444336
 20
47.347804
 30
0.0
 11
25.344526
 21
48.337875
 31
0.0
  0
LINE
  5
114
100
AcDbEntity
  8
Dwgs.User
 62
7
100
AcDbLine
 10
25.344526
 20
48.337875
 30
0.0
 11
25.444336
 21
49.327946
 31
0.0
  0
LINE
  5
115
100
AcDbEntity
  8
Dwgs.User
 62
7
100
AcDbLine
 10
25.444336
 20
49.327946
 30
0.0
 11
25.730589
 21
50.250101
 31
0.0
  0
LINE
  5
116
100
AcDbEntity
  8
Dwgs.User
 62
7
100
AcDbLine
 10
25.730589
 20
50.250101
 30
0.0
 11
26.183532
 21
51.084586
 31
0.0
  0
LINE
  5
117
100
AcDbEntity
  8
Dwgs.User
 62
7
100
AcDbLine
 10
26.183532
 20
51.084586
 30
0.0
 11
26.783411
 21
51.811645
 31
0.0
  0
LINE
  5
118
100
AcDbEntity
  8
Dwgs.User
 62
7
100
AcDbLine
 10
26.783411
 20
51.811645
 30
0.0
 11
27.510470
 21
52.411524
 31
0.0
  0
LINE
  5
119
100
AcDbEntity
  8
Dwgs.User
 62
7
100
AcDbLine
 10
27.510470
 20
52.411524
 30
0.0
 11
28.344955
 21
52.864467
 31
0.0
  0
LINE
  5
11a
100
AcDbEntity
  8
Dwgs.User
 62
7
100
AcDbLine
 10
28.344955
 20
52.864467
 30
0.0
 11
29.267110
 21
53.150720
 31
0.0
  0
LINE
  5
11b
100
AcDbEntity
  8
Dwgs.User
 62
7
100
AcDbLine
 10
29.267110
 20
53.150720
 30
0.0
 11
30.257181
 21
53.250530
 31
0.0
  0
LINE
  5
11c
100
AcDbEntity
  8
Dwgs.User
 62
7
100
AcDbLine
 10
30.257181
 20
53.250530
 30
0.0
 11
31.247252
 21
53.150720
 31
0.0
  0
LINE
  5
11d
100
AcDbEntity
  8
Dwgs.User
 62
7
100
AcDbLine
 10
31.247252
 20
53.150720
 30
0.0
 11
32.169407
 21
52.864467
 31
0.0
  0
LINE
  5
11e
100
AcDbEntity
  8
Dwgs.User
 62
7
100
AcDbLine
 10
32.169407
 20
52.864467
 30
0.0
 11
33.003892
 21
52.411524
 31
0.0
  0
LINE
  5
11f
100
AcDbEntity
  8
Dwgs.User
 62
7
100
AcDbLine
 10
33.003892
 20
52.411524
 30
0.0
 11
33.730951
 21
51.811645
 31
0.0
  0
LINE
  5
120
100
AcDbEntity
  8
Dwgs.User
 62
7
100
AcDbLine
 10
33.730951
 20
51.811645
 30
0.0
 11
34.330830
 21
51.084586
 31
0.0
  0
LINE
  5
121
100
AcDbEntity
  8
Dwgs.User
 62
7
100
AcDbLine
 10
34.330830
 20
51.084586
 30
0.0
 11
34.783773
 21
50.250101
 31
0.0
  0
LINE
  5
122
100
AcDbEntity
  8
Dwgs.User
 62
7
100
AcDbLine
 10
34.783773
 20
50.250101
 30
0.0
 11
35.070026
 21
49.327946
 31
0.0
  0
LINE
  5
123
100
AcDbEntity
  8
Dwgs.User
 62
7
100
AcDbLine
 10
35.070026
 20
49.327946
 30
0.0
 11
35.169836
 21
48.337875
 31
0.0
  0
LINE
  5
124
100
AcDbEntity
  8
Dwgs.User
 62
7
100
AcDbLine
 10
75.962236
 20
48.337875
 30
0.0
 11
75.862426
 21
47.347804
 31
0.0
  0
LINE
  5
125
100
AcDbEntity
  8
Dwgs.User
 62
7
100
AcDbLine
 10
75.862426
 20
47.347804
 30
0.0
 11
75.576173
 21
46.425649
 31
0.0
  0
LINE
  5
126
100
AcDbEntity
  8
Dwgs.User
 62
7
100
AcDbLine
 10
75.576173
 20
46.425649
 30
0.0
 11
75.123230
 21
45.591164
 31
0.0
  0
LINE
  5
127
100
AcDbEntity
  8
Dwgs.User
 62
7
100
AcDbLine
 10
75.123230
 20
45.591164
 30
0.0
 11
74.523351
 21
44.864105
 31
0.0
  0
LINE
  5
128
100
AcDbEntity
  8
Dwgs.User
 62
7
100
AcDbLine
 10
74.523351
 20
44.864105
 30
0.0
 11
73.796292
 21
44.264226
 31
0.0
  0
LINE
  5
129
100
AcDbEntity
  8
Dwgs.User
 62
7
100
AcDbLine
 10
73.796292
 20
44.264226
 30
0.0
 11
72.961807
 21
43.811283
 31
0.0
  0
LINE
  5
12a
100
AcDbEntity
  8
Dwgs.User
 62
7
100
AcDbLine
 10
72.961807
 20
43.811283
 30
0.0
 11
72.039652
 21
43.525030
 31
0.0
  0
LINE
  5
12b
100
AcDbEntity
  8
Dwgs.User
 62
7
100
AcDbLine
 10
72.039652
 20
43.525030
 30
0.0
 11
71.049581
 21
43.425220
 31
0.0
  0
LINE
  5
12c
100
AcDbEntity
  8
Dwgs.User
 62
7
100
AcDbLine
 10
71.049581
 20
43.425220
 30
0.0
 11
70.059510
 21
43.525030
 31
0.0
  0
LINE
  5
12d
100
AcDbEntity
  8
Dwgs.User
 62
7
100
AcDbLine
 10
70.059510
 20
43.525030
 30
0.0
 11
69.137355
 21
43.811283
 31
0.0
  0
LINE
  5
12e
100
AcDbEntity
  8
Dwgs.User
 62
7
100
AcDbLine
 10
69.137355
 20
43.811283
 30
0.0
 11
68.302870
 21
44.264226
 31
0.0
  0
LINE
  5
12f
100
AcDbEntity
  8
Dwgs.User
 62
7
100
AcDbLine
 10
68.302870
 20
44.264226
 30
0.0
 11
67.575811
 21
44.864105
 31
0.0
  0
LINE
  5
130
100
AcDbEntity
  8
Dwgs.User
 62
7
100
AcDbLine
 10
67.575811
 20
44.864105
 30
0.0
 11
66.975932
 21
45.591164
 31
0.0
  0
LINE
  5
131
100
AcDbEntity
  8
Dwgs.User
 62
7
100
AcDbLine
 10
66.975932
 20
45.591164
 30
0.0
 11
66.522989
 21
46.425649
 31
0.0
  0
LINE
  5
132
100
AcDbEntity
  8
Dwgs.User
 62
7
100
AcDbLine
 10
66.522989
 20
46.425649
 30
0.0
 11
66.236736
 21
47.347804
 31
0.0
  0
LINE
  5
133
100
AcDbEntity
  8
Dwgs.User
 62
7
100
AcDbLine
 10
66.236736
 20
47.347804
 30
0.0
 11
66.136926
 21
48.337875
 31
0.0
  0
LINE
  5
134
100
AcDbEntity
  8
Dwgs.User
 62
7
100
AcDbLine
 10
66.136926
 20
48.337875
 30
0.0
 11
66.236736
 21
49.327946
 31
0.0
  0
LINE
  5
135
100
AcDbEntity
  8
Dwgs.User
 62
7
100
AcDbLine
 10
66.236736
 20
49.327946
 30
0.0
 11
66.522989
 21
50.250101
 31
0.0
  0
LINE
  5
136
100
AcDbEntity
  8
Dwgs.User
 62
7
100
AcDbLine
 10
66.522989
 20
50.250101
 30
0.0
 11
66.975932
 21
51.084586
 31
0.0
  0
LINE
  5
137
100
AcDbEntity
  8
Dwgs.User
 62
7
100
AcDbLine
 10
66.975932
 20
51.084586
 30
0.0
 11
67.575811
 21
51.811645
 31
0.0
  0
LINE
  5
138
100
AcDbEntity
  8
Dwgs.User
 62
7
100
AcDbLine
 10
67.575811
 20
51.811645
 30
0.0
 11
68.302870
 21
52.411524
 31
0.0
  0
LINE
  5
139
100
AcDbEntity
  8
Dwgs.User
 62
7
100
AcDbLine
 10
68.302870
 20
52.411524
 30
0.0
 11
69.137355
 21
52.864467
 31
0.0
  0
LINE
  5
13a
100
AcDbEntity
  8
Dwgs.User
 62
7
100
AcDbLine
 10
69.137355
 20
52.864467
 30
0.0
 11
70.059510
 21
53.150720
 31
0.0
  0
LINE
  5
13b
100
AcDbEntity
  8
Dwgs.User
 62
7
100
AcDbLine
 10
70.059510
 20
53.150720
 30
0.0
 11
71.049581
 21
53.250530
 31
0.0
  0
LINE
  5
13c
100
AcDbEntity
  8
Dwgs.User
 62
7
100
AcDbLine
 10
71.049581
 20
53.250530
 30
0.0
 11
72.039652
 21
53.150720
 31
0.0
  0
LINE
  5
13d
100
AcDbEntity
  8
Dwgs.User
 62
7
100
AcDbLine
 10
72.039652
 20
53.150720
 30
0.0
 11
72.961807
 21
52.864467
 31
0.0
  0
LINE
  5
13e
100
AcDbEntity
  8
Dwgs.User
 62
7
100
AcDbLine
 10
72.961807
 20
52.864467
 30
0.0
 11
73.796292
 21
52.411524
 31
0.0
  0
LINE
  5
13f
100
AcDbEntity
  8
Dwgs.User
 62
7
100
AcDbLine
 10
73.796292
 20
52.411524
 30
0.0
 11
74.523351
 21
51.811645
 31
0.0
  0
LINE
  5
140
100
AcDbEntity
  8
Dwgs.User
 62
7
100
AcDbLine
 10
74.523351
 20
51.811645
 30
0.0
 11
75.123230
 21
51.084586
 31
0.0
  0
LINE
  5
141
100
AcDbEntity
  8
Dwgs.User
 62
7
100
AcDbLine
 10
75.123230
 20
51.084586
 30
0.0
 11
75.576173
 21
50.250101
 31
0.0
  0
LINE
  5
142
100
AcDbEntity
  8
Dwgs.User
 62
7
100
AcDbLine
 10
75.576173
 20
50.250101
 30
0.0
 11
75.862426
 21
49.327946
 31
0.0
  0
LINE
  5
143
100
AcDbEntity
  8
Dwgs.User
 62
7
100
AcDbLine
 10
75.862426
 20
49.327946
 30
0.0
 11
75.962236
 21
48.337875
 31
0.0
  0
LINE
  5
144
100
AcDbEntity
  8
Dwgs.User
 62
7
100
AcDbLine
 10
50.546001
 20
37.084000
 30
0.0
 11
51.139583
 21
37.084000
 31
0.0
  0
LINE
  5
145
100
AcDbEntity
  8
Dwgs.User
 62
7
100
AcDbLine
 10
51.139583
 20
37.084000
 30
0.0
 11
51.139583
 21
33.190418
 31
0.0
  0
LINE
  5
146
100
AcDbEntity
  8
Dwgs.User
 62
7
100
AcDbLine
 10
51.139583
 20
33.190418
 30
0.0
 11
50.546001
 21
33.190418
 31
0.0
  0
LINE
  5
147
100
AcDbEntity
  8
Dwgs.User
 62
7
100
AcDbLine
 10
50.546001
 20
33.190418
 30
0.0
 11
50.546001
 21
37.084000
 31
0.0
  0
LINE
  5
148
100
AcDbEntity
  8
Dwgs.User
 62
7
100
AcDbLine
 10
52.118391
 20
37.000419
 30
0.0
 11
52.538117
 21
37.420145
 31
0.0
  0
LINE
  5
149
100
AcDbEntity
  8
Dwgs.User
 62
7
100
AcDbLine
 10
52.538117
 20
37.420145
 30
0.0
 11
55.291296
 21
34.666966
 31
0.0
  0
LINE
  5
14a
100
AcDbEntity
  8
Dwgs.User
 62
7
100
AcDbLine
 10
55.291296
 20
34.666966
 30
0.0
 11
54.871569
 21
34.247240
 31
0.0
  0
LINE
  5
14b
100
AcDbEntity
  8
Dwgs.User
 62
7
100
AcDbLine
 10
54.871569
 20
34.247240
 30
0.0
 11
52.118391
 21
37.000419
 31
0.0
  0
LINE
  5
14c
100
AcDbEntity
  8
Dwgs.User
 62
7
100
AcDbLine
 10
49.070391
 20
37.508416
 30
0.0
 11
49.490118
 21
37.088689
 31
0.0
  0
LINE
  5
14d
100
AcDbEntity
  8
Dwgs.User
 62
7
100
AcDbLine
 10
49.490118
 20
37.088689
 30
0.0
 11
46.736939
 21
34.335511
 31
0.0
  0
LINE
  5
14e
100
AcDbEntity
  8
Dwgs.User
 62
7
100
AcDbLine
 10
46.736939
 20
34.335511
 30
0.0
 11
46.317213
 21
34.755237
 31
0.0
  0
LINE
  5
14f
100
AcDbEntity
  8
Dwgs.User
 62
7
100
AcDbLine
 10
46.317213
 20
34.755237
 30
0.0
 11
49.070391
 21
37.508416
 31
0.0
  0
LINE
  5
150
100
AcDbEntity
  8
Dwgs.User
 62
7
100
AcDbLine
 10
20.280787
 20
56.349900
 30
0.0
 11
20.234347
 21
55.889191
 31
0.0
  0
LINE
  5
151
100
AcDbEntity
  8
Dwgs.User
 62
7
100
AcDbLine
 10
20.234347
 20
55.889191
 30
0.0
 11
20.101145
 21
55.460086
 31
0.0
  0
LINE
  5
152
100
AcDbEntity
  8
Dwgs.User
 62
7
100
AcDbLine
 10
20.101145
 20
55.460086
 30
0.0
 11
19.890377
 21
55.071776
 31
0.0
  0
LINE
  5
153
100
AcDbEntity
  8
Dwgs.User
 62
7
100
AcDbLine
 10
19.890377
 20
55.071776
 30
0.0
 11
19.611236
 21
54.733454
 31
0.0
  0
LINE
  5
154
100
AcDbEntity
  8
Dwgs.User
 62
7
100
AcDbLine
 10
19.611236
 20
54.733454
 30
0.0
 11
19.272914
 21
54.454313
 31
0.0
  0
LINE
  5
155
100
AcDbEntity
  8
Dwgs.User
 62
7
100
AcDbLine
 10
19.272914
 20
54.454313
 30
0.0
 11
18.884604
 21
54.243545
 31
0.0
  0
LINE
  5
156
100
AcDbEntity
  8
Dwgs.User
 62
7
100
AcDbLine
 10
18.884604
 20
54.243545
 30
0.0
 11
18.455499
 21
54.110344
 31
0.0
  0
LINE
  5
157
100
AcDbEntity
  8
Dwgs.User
 62
7
100
AcDbLine
 10
18.455499
 20
54.110344
 30
0.0
 11
17.994790
 21
54.063901
 31
0.0
  0
LINE
  5
158
100
AcDbEntity
  8
Dwgs.User
 62
7
100
AcDbLine
 10
17.994790
 20
54.063901
 30
0.0
 11
17.534078
 21
54.110344
 31
0.0
  0
LINE
  5
159
100
AcDbEntity
  8
Dwgs.User
 62
7
100
AcDbLine
 10
17.534078
 20
54.110344
 30
0.0
 11
17.104973
 21
54.243545
 31
0.0
  0
LINE
  5
15a
100
AcDbEntity
  8
Dwgs.User
 62
7
100
AcDbLine
 10
17.104973
 20
54.243545
 30
0.0
 11
16.716663
 21
54.454313
 31
0.0
  0
LINE
  5
15b
100
AcDbEntity
  8
Dwgs.User
 62
7
100
AcDbLine
 10
16.716663
 20
54.454313
 30
0.0
 11
16.378341
 21
54.733454
 31
0.0
  0
LINE
  5
15c
100
AcDbEntity
  8
Dwgs.User
 62
7
100
AcDbLine
 10
16.378341
 20
54.733454
 30
0.0
 11
16.099200
 21
55.071776
 31
0.0
  0
LINE
  5
15d
100
AcDbEntity
  8
Dwgs.User
 62
7
100
AcDbLine
 10
16.099200
 20
55.071776
 30
0.0
 11
15.888432
 21
55.460086
 31
0.0
  0
LINE
  5
15e
100
AcDbEntity
  8
Dwgs.User
 62
7
100
AcDbLine
 10
15.888432
 20
55.460086
 30
0.0
 11
15.755230
 21
55.889191
 31
0.0
  0
LINE
  5
15f
100
AcDbEntity
  8
Dwgs.User
 62
7
100
AcDbLine
 10
15.755230
 20
55.889191
 30
0.0
 11
15.708790
 21
56.349900
 31
0.0
  0
LINE
  5
160
100
AcDbEntity
  8
Dwgs.User
 62
7
100
AcDbLine
 10
15.708790
 20
56.349900
 30
0.0
 11
15.755230
 21
56.810609
 31
0.0
  0
LINE
  5
161
100
AcDbEntity
  8
Dwgs.User
 62
7
100
AcDbLine
 10
15.755230
 20
56.810609
 30
0.0
 11
15.888432
 21
57.239715
 31
0.0
  0
LINE
  5
162
100
AcDbEntity
  8
Dwgs.User
 62
7
100
AcDbLine
 10
15.888432
 20
57.239715
 30
0.0
 11
16.099200
 21
57.628025
 31
0.0
  0
LINE
  5
163
100
AcDbEntity
  8
Dwgs.User
 62
7
100
AcDbLine
 10
16.099200
 20
57.628025
 30
0.0
 11
16.378341
 21
57.966346
 31
0.0
  0
LINE
  5
164
100
AcDbEntity
  8
Dwgs.User
 62
7
100
AcDbLine
 10
16.378341
 20
57.966346
 30
0.0
 11
16.716663
 21
58.245487
 31
0.0
  0
LINE
  5
165
100
AcDbEntity
  8
Dwgs.User
 62
7
100
AcDbLine
 10
16.716663
 20
58.245487
 30
0.0
 11
17.104973
 21
58.456255
 31
0.0
  0
LINE
  5
166
100
AcDbEntity
  8
Dwgs.User
 62
7
100
AcDbLine
 10
17.104973
 20
58.456255
 30
0.0
 11
17.534078
 21
58.589457
 31
0.0
  0
LINE
  5
167
100
AcDbEntity
  8
Dwgs.User
 62
7
100
AcDbLine
 10
17.534078
 20
58.589457
 30
0.0
 11
17.994787
 21
58.635900
 31
0.0
  0
LINE
  5
168
100
AcDbEntity
  8
Dwgs.User
 62
7
100
AcDbLine
 10
17.994787
 20
58.635900
 30
0.0
 11
18.455496
 21
58.589457
 31
0.0
  0
LINE
  5
169
100
AcDbEntity
  8
Dwgs.User
 62
7
100
AcDbLine
 10
18.455496
 20
58.589457
 30
0.0
 11
18.884601
 21
58.456255
 31
0.0
  0
LINE
  5
16a
100
AcDbEntity
  8
Dwgs.User
 62
7
100
AcDbLine
 10
18.884601
 20
58.456255
 30
0.0
 11
19.272911
 21
58.245487
 31
0.0
  0
LINE
  5
16b
100
AcDbEntity
  8
Dwgs.User
 62
7
100
AcDbLine
 10
19.272911
 20
58.245487
 30
0.0
 11
19.611233
 21
57.966346
 31
0.0
  0
LINE
  5
16c
100
AcDbEntity
  8
Dwgs.User
 62
7
100
AcDbLine
 10
19.611233
 20
57.966346
 30
0.0
 11
19.890374
 21
57.628025
 31
0.0
  0
LINE
  5
16d
100
AcDbEntity
  8
Dwgs.User
 62
7
100
AcDbLine
 10
19.890374
 20
57.628025
 30
0.0
 11
20.101142
 21
57.239715
 31
0.0
  0
LINE
  5
16e
100
AcDbEntity
  8
Dwgs.User
 62
7
100
AcDbLine
 10
20.101142
 20
57.239715
 30
0.0
 11
20.234344
 21
56.810609
 31
0.0
  0
LINE
  5
16f
100
AcDbEntity
  8
Dwgs.User
 62
7
100
AcDbLine
 10
20.234344
 20
56.810609
 30
0.0
 11
20.280787
 21
56.349900
 31
0.0
  0
LINE
  5
170
100
AcDbEntity
  8
Dwgs.User
 62
7
100
AcDbLine
 10
85.890103
 20
56.349900
 30
0.0
 11
85.843663
 21
55.889191
 31
0.0
  0
LINE
  5
171
100
AcDbEntity
  8
Dwgs.User
 62
7
100
AcDbLine
 10
85.843663
 20
55.889191
 30
0.0
 11
85.710461
 21
55.460086
 31
0.0
  0
LINE
  5
172
100
AcDbEntity
  8
Dwgs.User
 62
7
100
AcDbLine
 10
85.710461
 20
55.460086
 30
0.0
 11
85.499693
 21
55.071776
 31
0.0
  0
LINE
  5
173
100
AcDbEntity
  8
Dwgs.User
 62
7
100
AcDbLine
 10
85.499693
 20
55.071776
 30
0.0
 11
85.220552
 21
54.733454
 31
0.0
  0
LINE
  5
174
100
AcDbEntity
  8
Dwgs.User
 62
7
100
AcDbLine
 10
85.220552
 20
54.733454
 30
0.0
 11
84.882230
 21
54.454313
 31
0.0
  0
LINE
  5
175
100
AcDbEntity
  8
Dwgs.User
 62
7
100
AcDbLine
 10
84.882230
 20
54.454313
 30
0.0
 11
84.493920
 21
54.243545
 31
0.0
  0
LINE
  5
176
100
AcDbEntity
  8
Dwgs.User
 62
7
100
AcDbLine
 10
84.493920
 20
54.243545
 30
0.0
 11
84.064815
 21
54.110344
 31
0.0
  0
LINE
  5
177
100
AcDbEntity
  8
Dwgs.User
 62
7
100
AcDbLine
 10
84.064815
 20
54.110344
 30
0.0
 11
83.604106
 21
54.063901
 31
0.0
  0
LINE
  5
178
100
AcDbEntity
  8
Dwgs.User
 62
7
100
AcDbLine
 10
83.604106
 20
54.063901
 30
0.0
 11
83.143397
 21
54.110344
 31
0.0
  0
LINE
  5
179
100
AcDbEntity
  8
Dwgs.User
 62
7
100
AcDbLine
 10
83.143397
 20
54.110344
 30
0.0
 11
82.714292
 21
54.243545
 31
0.0
  0
LINE
  5
17a
100
AcDbEntity
  8
Dwgs.User
 62
7
100
AcDbLine
 10
82.714292
 20
54.243545
 30
0.0
 11
82.325982
 21
54.454313
 31
0.0
  0
LINE
  5
17b
100
AcDbEntity
  8
Dwgs.User
 62
7
100
AcDbLine
 10
82.325982
 20
54.454313
 30
0.0
 11
81.987660
 21
54.733454
 31
0.0
  0
LINE
  5
17c
100
AcDbEntity
  8
Dwgs.User
 62
7
100
AcDbLine
 10
81.987660
 20
54.733454
 30
0.0
 11
81.708519
 21
55.071776
 31
0.0
  0
LINE
  5
17d
100
AcDbEntity
  8
Dwgs.User
 62
7
100
AcDbLine
 10
81.708519
 20
55.071776
 30
0.0
 11
81.497751
 21
55.460086
 31
0.0
  0
LINE
  5
17e
100
AcDbEntity
  8
Dwgs.User
 62
7
100
AcDbLine
 10
81.497751
 20
55.460086
 30
0.0
 11
81.364549
 21
55.889191
 31
0.0
  0
LINE
  5
17f
100
AcDbEntity
  8
Dwgs.User
 62
7
100
AcDbLine
 10
81.364549
 20
55.889191
 30
0.0
 11
81.318109
 21
56.349900
 31
0.0
  0
LINE
  5
180
100
AcDbEntity
  8
Dwgs.User
 62
7
100
AcDbLine
 10
81.318109
 20
56.349900
 30
0.0
 11
81.364549
 21
56.810609
 31
0.0
  0
LINE
  5
181
100
AcDbEntity
  8
Dwgs.User
 62
7
100
AcDbLine
 10
81.364549
 20
56.810609
 30
0.0
 11
81.497751
 21
57.239715
 31
0.0
  0
LINE
  5
182
100
AcDbEntity
  8
Dwgs.User
 62
7
100
AcDbLine
 10
81.497751
 20
57.239715
 30
0.0
 11
81.708519
 21
57.628025
 31
0.0
  0
LINE
  5
183
100
AcDbEntity
  8
Dwgs.User
 62
7
100
AcDbLine
 10
81.708519
 20
57.628025
 30
0.0
 11
81.987660
 21
57.966346
 31
0.0
  0
LINE
  5
184
100
AcDbEntity
  8
Dwgs.User
 62
7
100
AcDbLine
 10
81.987660
 20
57.966346
 30
0.0
 11
82.325982
 21
58.245487
 31
0.0
  0
LINE
  5
185
100
AcDbEntity
  8
Dwgs.User
 62
7
100
AcDbLine
 10
82.325982
 20
58.245487
 30
0.0
 11
82.714292
 21
58.456255
 31
0.0
  0
LINE
  5
186
100
AcDbEntity
  8
Dwgs.User
 62
7
100
AcDbLine
 10
82.714292
 20
58.456255
 30
0.0
 11
83.143397
 21
58.589457
 31
0.0
  0
LINE
  5
187
100
AcDbEntity
  8
Dwgs.User
 62
7
100
AcDbLine
 10
83.143397
 20
58.589457
 30
0.0
 11
83.604106
 21
58.635900
 31
0.0
  0
LINE
  5
188
100
AcDbEntity
  8
Dwgs.User
 62
7
100
AcDbLine
 10
83.604106
 20
58.635900
 30
0.0
 11
84.064815
 21
58.589457
 31
0.0
  0
LINE
  5
189
100
AcDbEntity
  8
Dwgs.User
 62
7
100
AcDbLine
 10
84.064815
 20
58.589457
 30
0.0
 11
84.493920
 21
58.456255
 31
0.0
  0
LINE
  5
18a
100
AcDbEntity
  8
Dwgs.User
 62
7
100
AcDbLine
 10
84.493920
 20
58.456255
 30
0.0
 11
84.882230
 21
58.245487
 31
0.0
  0
LINE
  5
18b
100
AcDbEntity
  8
Dwgs.User
 62
7
100
AcDbLine
 10
84.882230
 20
58.245487
 30
0.0
 11
85.220552
 21
57.966346
 31
0.0
  0
LINE
  5
18c
100
AcDbEntity
  8
Dwgs.User
 62
7
100
AcDbLine
 10
85.220552
 20
57.966346
 30
0.0
 11
85.499693
 21
57.628025
 31
0.0
  0
LINE
  5
18d
100
AcDbEntity
  8
Dwgs.User
 62
7
100
AcDbLine
 10
85.499693
 20
57.628025
 30
0.0
 11
85.710461
 21
57.239715
 31
0.0
  0
LINE
  5
18e
100
AcDbEntity
  8
Dwgs.User
 62
7
100
AcDbLine
 10
85.710461
 20
57.239715
 30
0.0
 11
85.843663
 21
56.810609
 31
0.0
  0
LINE
  5
18f
100
AcDbEntity
  8
Dwgs.User
 62
7
100
AcDbLine
 10
85.843663
 20
56.810609
 30
0.0
 11
85.890103
 21
56.349900
 31
0.0
  0
LINE
  5
190
100
AcDbEntity
  8
Dwgs.User
 62
7
100
AcDbLine
 10
76.318003
 20
34.594271
 30
0.0
 11
76.241153
 21
34.218572
 31
0.0
  0
LINE
  5
191
100
AcDbEntity
  8
Dwgs.User
 62
7
100
AcDbLine
 10
76.241153
 20
34.218572
 30
0.0
 11
76.031581
 21
33.911772
 31
0.0
  0
LINE
  5
192
100
AcDbEntity
  8
Dwgs.User
 62
7
100
AcDbLine
 10
76.031581
 20
33.911772
 30
0.0
 11
75.720744
 21
33.704921
 31
0.0
  0
LINE
  5
193
100
AcDbEntity
  8
Dwgs.User
 62
7
100
AcDbLine
 10
75.720744
 20
33.704921
 30
0.0
 11
75.340101
 21
33.629071
 31
0.0
  0
LINE
  5
194
100
AcDbEntity
  8
Dwgs.User
 62
7
100
AcDbLine
 10
75.340101
 20
33.629071
 30
0.0
 11
74.959458
 21
33.704921
 31
0.0
  0
LINE
  5
195
100
AcDbEntity
  8
Dwgs.User
 62
7
100
AcDbLine
 10
74.959458
 20
33.704921
 30
0.0
 11
74.648621
 21
33.911772
 31
0.0
  0
LINE
  5
196
100
AcDbEntity
  8
Dwgs.User
 62
7
100
AcDbLine
 10
74.648621
 20
33.911772
 30
0.0
 11
74.439049
 21
34.218572
 31
0.0
  0
LINE
  5
197
100
AcDbEntity
  8
Dwgs.User
 62
7
100
AcDbLine
 10
74.439049
 20
34.218572
 30
0.0
 11
74.362199
 21
34.594271
 31
0.0
  0
LINE
  5
198
100
AcDbEntity
  8
Dwgs.User
 62
7
100
AcDbLine
 10
74.362199
 20
34.594271
 30
0.0
 11
74.439049
 21
34.969970
 31
0.0
  0
LINE
  5
199
100
AcDbEntity
  8
Dwgs.User
 62
7
100
AcDbLine
 10
74.439049
 20
34.969970
 30
0.0
 11
74.648621
 21
35.276770
 31
0.0
  0
LINE
  5
19a
100
AcDbEntity
  8
Dwgs.User
 62
7
100
AcDbLine
 10
74.648621
 20
35.276770
 30
0.0
 11
74.959458
 21
35.483621
 31
0.0
  0
LINE
  5
19b
100
AcDbEntity
  8
Dwgs.User
 62
7
100
AcDbLine
 10
74.959458
 20
35.483621
 30
0.0
 11
75.340101
 21
35.559471
 31
0.0
  0
LINE
  5
19c
100
AcDbEntity
  8
Dwgs.User
 62
7
100
AcDbLine
 10
75.340101
 20
35.559471
 30
0.0
 11
75.720744
 21
35.483621
 31
0.0
  0
LINE
  5
19d
100
AcDbEntity
  8
Dwgs.User
 62
7
100
AcDbLine
 10
75.720744
 20
35.483621
 30
0.0
 11
76.031581
 21
35.276770
 31
0.0
  0
LINE
  5
19e
100
AcDbEntity
  8
Dwgs.User
 62
7
100
AcDbLine
 10
76.031581
 20
35.276770
 30
0.0
 11
76.241153
 21
34.969970
 31
0.0
  0
LINE
  5
19f
100
AcDbEntity
  8
Dwgs.User
 62
7
100
AcDbLine
 10
76.241153
 20
34.969970
 30
0.0
 11
76.318003
 21
34.594271
 31
0.0
  0
ENDSEC
  0
SECTION
  2
OBJECTS
  0
DICTIONARY
  5
C
330
0
100
AcDbDictionary
  3
ACAD_GROUP
350
D
  3
ACAD_MLINESTYLE
350
17
  0
DICTIONARY
  5
D
330
C
100
AcDbDictionary
  0
DICTIONARY
  5
1A
330
C
100
AcDbDictionary
  0
DICTIONARY
  5
17
330
C
100
AcDbDictionary
  3
STANDARD
350
18
  0
DICTIONARY
  5
19
330
C
100
AcDbDictionary
  0
ENDSEC
  0
EOF
